<?xml version="1.0" encoding="UTF-8"?>
<!-- Created with Inkscape (http://www.inkscape.org/) -->
<svg width="102.89mm" height="98.622mm" version="1.1" viewBox="0 0 102.89 98.622" xmlns="http://www.w3.org/2000/svg">
 <g transform="translate(-5.3043 -43.146)">
  <g transform="rotate(181.74 56.672 93.048)" stroke-width=".26458" aria-label="FRONT-END excites me FRONT-END excites me FRONT-END excites me FRONT-END excites me">
   <path d="m106.85 98.494 0.14025-2.4739-1.0004-0.05671-0.13001 2.2933-1.0401-0.05897 0.13001-2.2933-2.297-0.13022 0.0782-1.3796 5.3776 0.30486-0.21846 3.8535z"/>
   <path d="m105.53 102.85q0.1992 0.0368 0.3566-0.0187t0.27601-0.23962q0.0825-0.12822 0.12738-0.31122 0.0484-0.18235 0.0937-0.42779l0.0913-0.49445-1.4264-0.26348-0.0775 0.41975q-0.0605 0.32726-0.0692 0.55372-9e-3 0.22646 0.0775 0.39689 0.084 0.16265 0.20378 0.25099 0.12269 0.0925 0.34679 0.13395zm-4.0681 1.452 0.30815-1.6683 2.209-1.0855 0.1163-0.62962-1.9422-0.35875 0.25099-1.3588 5.2966 0.97834-0.42314 2.2908q-0.0867 0.46955-0.20251 0.79762-0.11577 0.32808-0.34817 0.59047-0.23305 0.26595-0.54982 0.38769-0.31386 0.12595-0.74073 0.0471-0.58693-0.10841-0.90629-0.45065-0.32001-0.33868-0.47215-0.88913z"/>
   <path d="m102.14 110.73q-1.2197-0.41306-1.7025-1.3557-0.47938-0.94145-0.0617-2.1749 0.41655-1.23 1.3693-1.6864 0.9562-0.45529 2.1759-0.0422 1.23 0.41654 1.706 1.3568 0.47937 0.94145 0.0628 2.1715-0.41539 1.2266-1.3693 1.6865-0.95051 0.46103-2.1805 0.0445zm-0.70109-2.1814q0.168 0.27077 0.45188 0.47002 0.28731 0.20042 0.71559 0.34546 0.45911 0.15548 0.81715 0.15833 0.35803 3e-3 0.61476-0.10116 0.26475-0.10512 0.435-0.30334 0.16909-0.19481 0.25263-0.44149 0.0847-0.25012 0.071-0.50299-0.0148-0.24944-0.15774-0.50408-0.13385-0.23628-0.43592-0.46079-0.2998-0.21992-0.74521-0.37076-0.45568-0.15432-0.81255-0.1606-0.35461-2e-3 -0.61477 0.10115-0.26016 0.10286-0.43384 0.29992-0.17367 0.19707-0.25953 0.45061-0.0859 0.25354-0.0677 0.51559 0.0216 0.2632 0.16918 0.50413z"/>
   <path d="m96.916 115.19 0.61129-1.1907 4.333-0.34531-3.2888-1.6885 0.58155-1.1327 4.7916 2.46-0.75833 1.4771-3.6421 0.33811 2.745 1.4093-0.58155 1.1327z"/>
   <path d="m97.345 122.3 0.9565-1.3836-3.5737-2.4704 0.78988-1.1426 3.5737 2.4704 0.9565-1.3836 0.85697 0.59241-2.7029 3.9099z"/>
   <path d="m93.046 123.55 1.7827-2.1071 0.79534 0.67288-1.7827 2.1071z"/>
   <path d="m88.098 125.87 2.7895-2.7196 3.76 3.8567-2.7895 2.7196-0.72725-0.74595 1.8001-1.755-0.64897-0.66566-1.6706 1.6288-0.72726-0.74595 1.6706-1.6288-0.92927-0.95316-1.8001 1.755z"/>
   <path d="m83.32 129.61 1.0667-0.80837 4.0549 1.5657-2.2328-2.9465 1.0148-0.76904 3.2531 4.2929-1.3233 1.0028-3.4291-1.2729 1.8636 2.4592-1.0148 0.76904z"/>
   <path d="m79.048 135.21q-0.37008-0.65511-0.36444-1.3438 0.0074-0.68555 0.30753-1.2207 0.22587-0.40181 0.58905-0.715 0.36318-0.31318 0.9238-0.62988l1.6535-0.9341 2.6493 4.6897-1.7008 0.96078q-0.57322 0.32382-1.0441 0.46104-0.46912 0.14037-0.85221 0.12412-0.65228-0.0221-1.2141-0.36941-0.5632-0.34242-0.94752-1.0227zm1.2557-0.69691q0.26155 0.46299 0.61666 0.69446 0.35374 0.2364 0.82406 0.21584 0.23742-0.0136 0.45048-0.0925 0.21169-0.0739 0.60224-0.29451l0.3055-0.17258-1.6582-2.9354-0.30551 0.17258q-0.43149 0.24375-0.61171 0.39542-0.17844 0.15481-0.31185 0.36728-0.22395 0.37579-0.20035 0.77793 0.02537 0.40528 0.2887 0.87141z"/>
   <path d="m71.844 137.29 2.8008-1.0093q-0.12632-0.35052-0.32624-0.57454-0.1987-0.22062-0.44256-0.32115-0.23583-0.0996-0.50688-0.0942-0.27446 7e-3 -0.56713 0.11209-0.38796 0.13981-0.72413 0.43398-0.33835 0.2988-0.45114 0.50863l-0.03403 0.0123-0.25141-0.69764q0.27424-0.25263 0.57804-0.46593 0.3038-0.21329 0.67474-0.34697 0.94607-0.34093 1.6609-0.0218 0.71607 0.32256 1.0558 1.2652 0.33603 0.93245 0.02641 1.6631-0.31302 0.73186-1.1434 1.0311-0.7691 0.27716-1.3462-0.0224-0.58046-0.29837-0.87847-1.1253zm0.79937 0.26562q0.18491 0.50244 0.53607 0.68734 0.34776 0.18612 0.85823 2e-3 0.51387-0.18518 0.711-0.59843 0.19373-0.41203 0.07269-0.87596z"/>
   <path d="m66.805 136.62 0.83005-0.21449 1.4985 1.2156 0.72899-1.7912 0.76701-0.1982-1.0229 2.3454 2.0198 1.5703-0.83005 0.21448-1.4851-1.1929-0.72482 1.764-0.77051 0.1991 1.0398-2.3236z"/>
   <path d="m63.025 137.52q0.30838-0.21685 0.59663-0.35695 0.28468-0.13951 0.62359-0.19642 0.43166-0.0725 0.81293-8e-3 0.38187 0.0679 0.68186 0.28164 0.30355 0.21312 0.51215 0.58158 0.20859 0.36845 0.29666 0.89285 0.16414 0.97747-0.27751 1.6238-0.44522 0.64697-1.3264 0.79494-0.34247 0.0575-0.68684 0.0163-0.34794-0.0406-0.646-0.13361l-0.1252-0.74559 0.03567-6e-3q0.34693 0.1875 0.6967 0.26081 0.3462 0.0739 0.65656 0.0218 0.57078-0.0958 0.83785-0.53684 0.2641-0.43683 0.13949-1.1788-0.12101-0.72061-0.50738-1.0555-0.38933-0.33077-0.97439-0.23252-0.20334 0.0342-0.40483 0.123-0.20149 0.0889-0.35478 0.20263-0.13368 0.0995-0.24833 0.2031-0.11405 0.10718-0.17878 0.18041l-0.03567 6e-3z"/>
   <path d="m61.877 142.11 0.76266-0.0804 0.07393 0.7015-0.76266 0.0804zm-0.45119-4.6956 0.67632-0.0713 0.42346 4.0183-0.67632 0.0713z"/>
   <path d="m57.985 137.68q0.18871-0.0609 0.41452-0.10568 0.2222-0.0446 0.39919-0.0541 0.61767-0.0333 0.95707 0.28166 0.3394 0.31498 0.37895 1.0482l0.11573 2.1456 0.45874-0.0247 0.03078 0.57071-0.45874 0.0247 0.06254 1.1595-0.67908 0.0366-0.06254-1.1595-1.4015 0.0756-0.03078-0.57071 1.4015-0.0756-0.09917-1.8386q-0.01714-0.31787-0.04133-0.49769-0.02399-0.17621-0.11906-0.32686-0.08726-0.1402-0.22822-0.20142-0.14438-0.0574-0.42974-0.042-0.16616 9e-3 -0.34423 0.0657-0.17788 0.0603-0.25559 0.0971l-0.03612 2e-3z"/>
   <path d="m53.735 139.55 2.9764 0.0623q0.0078-0.37251-0.09849-0.65333-0.10636-0.27721-0.29794-0.45851-0.18443-0.17753-0.43939-0.2697-0.25858-0.0923-0.5696-0.0988-0.41229-9e-3 -0.8316 0.14541-0.423 0.15758-0.60355 0.313l-0.03617-7.6e-4 0.01552-0.74139q0.3466-0.13747 0.70668-0.22763 0.36008-0.0902 0.75429-0.0819 1.0054 0.0211 1.5582 0.57534 0.55275 0.55791 0.53178 1.5597-0.02074 0.99094-0.5718 1.5619-0.55467 0.57091-1.4371 0.55244-0.81734-0.0171-1.2486-0.50373-0.43484-0.4867-0.41645-1.3655zm0.65093 0.53464q-0.0076 0.53532 0.2539 0.83387 0.25788 0.29847 0.80036 0.30982 0.5461 0.0114 0.87833-0.30363 0.32861-0.31513 0.382-0.79161z"/>
   <path d="m49.753 138.36q0.05851-0.55036 0.55281-0.85431 0.49071-0.30433 1.2785-0.22058 0.44604 0.0474 0.80904 0.1915 0.35903 0.1473 0.59744 0.29996l-0.08069 0.75899-0.03597-4e-3q-0.29452-0.27504-0.67131-0.4606-0.37717-0.18197-0.73688-0.22021-0.44604-0.0474-0.71313 0.0697-0.26709 0.11712-0.29998 0.42647-0.02524 0.2374 0.09845 0.37424 0.12369 0.13683 0.503 0.26446 0.14044 0.0477 0.36966 0.11569 0.22562 0.0676 0.41092 0.13826 0.51386 0.1965 0.7082 0.48999 0.19036 0.2967 0.1483 0.69238-0.02639 0.2482-0.15043 0.45692-0.12764 0.20833-0.35463 0.35881-0.21941 0.14765-0.53908 0.21188-0.32365 0.0674-0.70854 0.0265-0.35971-0.0382-0.71705-0.16717-0.36132-0.12572-0.59254-0.27762l0.07686-0.72302 0.03597 4e-3q0.23872 0.21818 0.59546 0.38706 0.35635 0.17248 0.71246 0.21033 0.3705 0.0394 0.64119-0.0773 0.27031-0.11314 0.30013-0.39371 0.02639-0.2482-0.1149-0.39054-0.13769-0.14196-0.46741-0.25704-0.18246-0.0631-0.40808-0.13069-0.22922-0.068-0.38007-0.12043-0.45975-0.15801-0.68722-0.44775-0.2271-0.29333-0.18044-0.73217z"/>
   <path d="m40.659 135.03 0.65428 0.18548-0.62749 2.2134q-0.07104 0.25057-0.11278 0.49065-0.04522 0.2391-0.0116 0.39902 0.03762 0.17235 0.16556 0.29133 0.12794 0.11899 0.40984 0.19891 0.27494 0.0779 0.58934 0.0167 0.31341-0.0578 0.64853-0.19214 0.01225-0.083 0.03588-0.19286 0.02264-0.10638 0.05224-0.21079l0.70543-2.4883 0.65428 0.18548-0.62749 2.2134q-0.07301 0.25754-0.11376 0.49414-0.04522 0.23909-0.0116 0.39902 0.03762 0.17234 0.16655 0.28785 0.12794 0.11899 0.40984 0.1989 0.26798 0.076 0.57692 0.0207 0.30547-0.0563 0.63165-0.18564l0.82284-2.9025 0.65428 0.18549-1.1021 3.8874-0.65428-0.18548 0.12234-0.43155q-0.37828 0.16723-0.72151 0.22409-0.34671 0.0559-0.69125-0.0418-0.39674-0.11248-0.62432-0.35747-0.23106-0.24598-0.28292-0.58027-0.49146 0.22162-0.86004 0.27505-0.36956 0.0569-0.74195-0.0487-0.64036-0.18153-0.83263-0.65715-0.19674-0.47313 5.81e-4 -1.1692z"/>
   <path d="m35.574 134.99 2.7428 1.1577q0.14488-0.34327 0.14988-0.64349 0.0036-0.29689-0.10745-0.53614-0.10578-0.23312-0.30864-0.41297-0.20619-0.18126-0.4928-0.30223-0.37992-0.16036-0.82648-0.17215-0.45129-0.01-0.67648 0.0679l-0.03333-0.0141 0.28836-0.68319q0.37287 3.2e-4 0.74078 0.0496 0.36791 0.0493 0.73117 0.2026 0.92648 0.39104 1.2354 1.1104 0.30749 0.72267-0.08214 1.6458-0.38542 0.91315-1.1084 1.2401-0.72637 0.32556-1.5395-0.0177-0.75318-0.31789-0.97409-0.92941-0.22424-0.61293 0.11757-1.4228zm0.40732 0.73732q-0.20485 0.49464-0.07217 0.86867 0.12935 0.37263 0.62925 0.58363 0.50323 0.2124 0.92836 0.0424 0.4218-0.17142 0.64746-0.59445z"/>
   <path d="m27.518 133.17 2.1072 1.3036 0.52716-0.85212-1.9534-1.2085 0.5481-0.88596 1.9534 1.2085 1.2104-1.9565 1.1751 0.727-2.8337 4.5805-3.2824-2.0306z"/>
   <path d="m24.326 129.99q-0.12565 0.1589-0.15014 0.324-0.02449 0.1651 0.0828 0.35601 0.07476 0.13291 0.21558 0.25809 0.13857 0.12802 0.33435 0.28284l0.3944 0.31188 0.89973-1.1378-0.33482-0.26476q-0.26104-0.20642-0.45716-0.31999-0.19611-0.11358-0.38708-0.11702-0.18305-2e-3 -0.31714 0.0628-0.13917 0.0652-0.28053 0.24395zm0.61813-4.275 1.3308 1.0523-0.07307 2.4602 0.50222 0.39714 1.2251-1.5492 1.0839 0.8571-3.3409 4.2249-1.8273-1.445q-0.37454-0.29617-0.61044-0.55188-0.2359-0.25572-0.35922-0.58382-0.12616-0.33034-0.0857-0.66728 0.03538-0.33634 0.30463-0.67683 0.37021-0.46817 0.82204-0.5905 0.44899-0.12457 1.0067-2e-3z"/>
   <path d="m18.928 123.38q0.92563-0.89531 1.9847-0.89303 1.0565 5e-3 1.9618 0.94082 0.90286 0.93343 0.87248 1.9895-0.03297 1.0586-0.9586 1.9539-0.93343 0.90285-1.9873 0.89554-1.0565-5e-3 -1.9593-0.93822-0.90034-0.93083-0.87248-1.9895 0.02526-1.0561 0.95868-1.959zm2.2603 0.37531q-0.31764 0.0254-0.62475 0.18658-0.30971 0.16369-0.63472 0.47805-0.34841 0.337-0.51485 0.65401-0.16644 0.317-0.1915 0.59287-0.02774 0.2835 0.07055 0.52561 0.09578 0.23951 0.27686 0.42671 0.18359 0.18981 0.41466 0.29343 0.22856 0.10101 0.52037 0.0905 0.27135-0.0108 0.60924-0.1766 0.33277-0.16586 0.67078-0.4928 0.34581-0.33449 0.51477-0.64889 0.16384-0.31449 0.1915-0.59288 0.02766-0.27838-0.06804-0.52301-0.0957-0.24462-0.2818-0.43702-0.1861-0.19241-0.42741-0.2962-0.2439-0.10127-0.52565-0.0804z"/>
   <path d="m17.317 116.71 0.78602 1.0833-1.6496 4.0215 2.9922-2.1711 0.74779 1.0306-4.3595 3.1632-0.9751-1.3439 1.3439-3.4019-2.4974 1.8121-0.74779-1.0306z"/>
   <path d="m10.78 113.89 0.80309 1.478 3.8173-2.0742 0.6632 1.2205-3.8173 2.0742 0.80309 1.478-0.91539 0.4974-2.2694-4.1764z"/>
   <path d="m11.608 109.48 1.0677 2.5452-0.9607 0.403-1.0677-2.5452z"/>
   <path d="m11.81 104.01 1.1333 3.7274-5.1533 1.5668-1.1333-3.7274 0.99675-0.30304 0.73131 2.4053 0.88946-0.27043-0.6787-2.2323 0.99675-0.30305 0.6787 2.2323 1.2736-0.38723-0.73131-2.4053z"/>
   <path d="m10.737 98.036 0.21338 1.3213-3.2852 2.8463 3.6496-0.58938 0.203 1.257-5.3173 0.85869-0.2647-1.6391 2.733-2.431-3.0461 0.49192-0.203-1.257z"/>
   <path d="m7.869 91.597q0.75234-0.0099 1.3537 0.32593 0.5977 0.33584 0.92288 0.85614 0.24389 0.39113 0.3441 0.86011 0.10021 0.46898 0.10865 1.1128l0.0249 1.8989-5.3858 0.07061-0.025608-1.9532q-0.00863-0.6583 0.097237-1.1372 0.10225-0.47887 0.30054-0.80706 0.3327-0.56148 0.90725-0.88737 0.57089-0.32946 1.3522-0.3397zm0.00798 1.4361q-0.5317 7e-3 -0.90532 0.20722-0.37728 0.19668-0.58518 0.61906-0.1021 0.21478-0.13533 0.43951-0.036895 0.22116-0.031014 0.66967l0.0046 0.35085 3.3711-0.0442-0.0046-0.35085q-0.0065014-0.49553-0.052941-0.72645-0.050056-0.23087-0.17231-0.44995-0.222-0.37694-0.58603-0.54944-0.36764-0.17244-0.90297-0.16543z"/>
   <path d="m9.6009 84.335-0.50834 2.9334q0.36712 0.06362 0.66071 6.89e-4 0.29003-0.06355 0.49803-0.22575 0.2032-0.15569 0.3326-0.39393 0.13001-0.2418 0.18313-0.54832 0.07041-0.40632-0.01894-0.844-0.0923-0.44186-0.21886-0.64369l0.0062-0.03564 0.73067 0.12662q0.08389 0.36331 0.11898 0.73284 0.03509 0.36954-0.03224 0.75804-0.17174 0.99085-0.80273 1.4542-0.63455 0.46275-1.6218 0.29166-0.9766-0.16924-1.4584-0.79976-0.48119-0.63408-0.33048-1.5038 0.13959-0.80552 0.68543-1.1588 0.54645-0.35687 1.4126-0.20677zm-0.62628 0.56331q-0.52812-0.087851-0.86253 0.12587-0.33379 0.21016-0.42644 0.74479-0.093268 0.5382 0.16836 0.91395 0.26224 0.37219 0.72531 0.49649z"/>
   <path d="m12.723 80.299-0.23394 0.82478-1.8059 0.67972 1.1781 1.5336-0.21617 0.76214-1.508-2.0671-2.3753 0.95062 0.23394-0.82478 1.7795-0.67967-1.1567-1.5163 0.21716-0.76562 1.4807 2.0706z"/>
   <path d="m13.896 76.594q0.02725 0.376-9.45e-4 0.69526-0.02687 0.31589-0.15246 0.63576-0.15996 0.40742-0.41134 0.70123-0.25474 0.29248-0.59236 0.43973-0.33894 0.15061-0.7622 0.13988-0.42326-0.01074-0.91823-0.20508-0.92259-0.36224-1.2496-1.0735-0.32564-0.71467 8.968e-4 -1.5463 0.12691-0.32324 0.33945-0.59732 0.21386-0.27745 0.44697-0.48516l0.70373 0.2763-0.01322 0.03367q-0.33929 0.201-0.58213 0.46318-0.24152 0.25882-0.35654 0.55175-0.21152 0.53874 0.02917 0.99466 0.23866 0.45123 0.93902 0.72621 0.68016 0.26705 1.1662 0.10811 0.48395-0.16363 0.70077-0.71584 0.07536-0.19192 0.10285-0.41042 0.02749-0.21849 0.0088-0.40847-0.01651-0.16581-0.04636-0.31744-0.03322-0.15294-0.0627-0.24613l0.01322-0.03367z"/>
   <path d="m10.577 73.218-0.32908 0.69268-0.63714-0.3027 0.32908-0.69268zm4.242 2.0634-0.29183 0.61426-3.6496-1.7339 0.29183-0.61426z"/>
   <path d="m16.4 72.213q-0.04772 0.19247-0.12869 0.40797-0.07923 0.21233-0.16441 0.36777-0.29726 0.54246-0.74382 0.66486-0.44656 0.1224-1.0905-0.23048l-1.8843-1.0326-0.22077 0.40288-0.50122-0.27466 0.22077-0.40288-1.0183-0.55801 0.32681-0.59639 1.0183 0.55801 0.67448-1.2308 0.50122 0.27466-0.67448 1.2308 1.6147 0.88482q0.27916 0.15298 0.44473 0.2272 0.1624 0.07249 0.34052 0.07111 0.16514-2.56e-4 0.29146-0.08777 0.1249-0.09243 0.26223-0.34304 0.07996-0.14592 0.12564-0.32714 0.04251-0.18295 0.0522-0.26839l0.01738-0.03172z"/>
   <path d="m17.096 67.622-1.6457 2.4809q0.31048 0.20596 0.60458 0.26648 0.29108 0.05852 0.54677-0.0063 0.24867-0.06077 0.46299-0.2268 0.21632-0.16905 0.38829-0.42829 0.22796-0.34364 0.32226-0.78028 0.09329-0.44166 0.05864-0.67734l0.02-0.03015 0.61796 0.40992q-0.06939 0.36636-0.18596 0.71877-0.11657 0.35242-0.33453 0.68099-0.5559 0.83801-1.32 1.0083-0.76712 0.16831-1.6021-0.38559-0.82595-0.5479-1.0133-1.319-0.18538-0.7741 0.30253-1.5096 0.45192-0.68126 1.0938-0.78507 0.64386-0.10682 1.3764 0.37909zm-0.80001 0.26369q-0.44813-0.29293-0.84027-0.23183-0.39014 0.05808-0.69008 0.51025-0.30194 0.45518-0.21363 0.90444 0.09032 0.44625 0.46422 0.74637z"/>
   <path d="m20.262 64.906q0.4305 0.34783 0.41752 0.92796-0.0107 0.57732-0.50857 1.1935-0.2819 0.3489-0.59993 0.5756-0.31857 0.22161-0.57619 0.339l-0.59369-0.47968 0.02273-0.02814q0.39085-0.0981 0.7512-0.31386 0.35753-0.21803 0.58487-0.4994 0.2819-0.3489 0.32849-0.6368 0.04659-0.28789-0.19539-0.4834-0.1857-0.15004-0.36776-0.12042-0.18206 0.02963-0.49511 0.27895-0.11626 0.09209-0.29779 0.2477-0.17926 0.1528-0.33914 0.2701-0.44392 0.32495-0.7959 0.3289-0.35252-0.0011-0.66203-0.25121-0.19415-0.15686-0.30213-0.37432-0.10571-0.22027-0.10891-0.49259-0.0049-0.26442 0.1146-0.56778 0.119-0.30845 0.36225-0.60951 0.22734-0.28137 0.52956-0.51154 0.30169-0.23525 0.55476-0.34701l0.56556 0.45695-0.02273 0.02814q-0.31281 0.0821-0.64826 0.29007-0.33826 0.2057-0.56333 0.48425-0.23416 0.28981-0.28302 0.58052-0.05168 0.28844 0.16779 0.46576 0.19415 0.15686 0.39038 0.11544 0.19396-0.03861 0.46956-0.25308 0.15198-0.11903 0.33124-0.27183 0.18154-0.15561 0.30743-0.25387 0.38222-0.3004 0.74904-0.33421 0.36962-0.03154 0.7129 0.24581z"/>
   <path d="m28.053 59.135-0.51541 0.44366-1.5009-1.7436q-0.16991-0.19739-0.34722-0.36455-0.17456-0.16952-0.32653-0.22963-0.16453-0.06361-0.33434-0.02245t-0.39187 0.23232q-0.21658 0.18643-0.33877 0.48253-0.12454 0.29335-0.19717 0.64702 0.0625 0.05597 0.14114 0.13624 0.07628 0.07753 0.14708 0.15977l1.6873 1.9602-0.51541 0.44366-1.5009-1.7436q-0.17463-0.20287-0.34958-0.3673-0.17456-0.16952-0.32653-0.22963-0.16453-0.06361-0.33198-0.0197-0.1698 0.04116-0.39187 0.23232-0.2111 0.18171-0.33526 0.46996-0.12142 0.28589-0.19329 0.62936l1.9682 2.2864-0.51541 0.44366-2.636-3.0623 0.51541-0.44366 0.29263 0.33995q0.06898-0.4078 0.21074-0.72552 0.1445-0.32008 0.41591-0.55371 0.31254-0.26903 0.64239-0.32387 0.3326-0.0572 0.64011 0.08379 0.08598-0.53222 0.24457-0.86919 0.15623-0.33972 0.44957-0.59223 0.50444-0.43422 1.0073-0.33248 0.50321 0.09664 0.97519 0.64495z"/>
   <path d="m30.902 54.923-2.4831 1.6423q0.20553 0.31077 0.45271 0.48123 0.24519 0.16745 0.50589 0.20753 0.25268 0.04106 0.51479-0.0282 0.26513-0.07126 0.5246-0.24287 0.34396-0.22748 0.60114-0.59273 0.2582-0.37026 0.31824-0.6008l0.03017-0.01996 0.40907 0.61852q-0.20681 0.31026-0.45164 0.58927t-0.5737 0.49652q-0.83878 0.55474-1.6088 0.41345-0.77199-0.1443-1.3247-0.98006-0.54675-0.82671-0.41846-1.6098 0.13131-0.78508 0.8675-1.272 0.68188-0.45097 1.3134-0.29615 0.63451 0.15283 1.1194 0.886zm-0.83949-0.06931q-0.29834-0.44455-0.68325-0.54128-0.38189-0.09872-0.83446 0.20059-0.45559 0.30131-0.54954 0.74943-0.09093 0.44612 0.13626 0.86834z"/>
   <path d="m36.881 49.227-2.253 1.0315 0.41711 0.91106 2.0885-0.9562 0.43368 0.94724-2.0885 0.9562 0.9577 2.0918-1.2564 0.57522-2.2422-4.8974 3.5094-1.6067z"/>
   <path d="m41.292 48.332q-0.06304-0.19251-0.18714-0.30413-0.1241-0.11162-0.3425-0.12764-0.15208-0.0111-0.33422 0.03713-0.18326 0.04479-0.42047 0.12247l-0.47784 0.15648 0.45144 1.3785 0.40565-0.13284q0.31627-0.10357 0.51928-0.20431 0.20301-0.10074 0.31136-0.25803 0.10261-0.1516 0.12283-0.29906 0.02254-0.15202-0.04839-0.3686zm3.2221 2.8768-1.6123 0.52799-2.0104-1.4199-0.60848 0.19926 0.61467 1.877-1.3132 0.43005-1.6763-5.1188 2.2139-0.725q0.45378-0.1486 0.79725-0.20398 0.34347-0.05538 0.68509 0.02306 0.34506 0.07732 0.60357 0.29717 0.26082 0.21529 0.39592 0.62782 0.18575 0.56722 0.03813 1.0114-0.14418 0.44308-0.55466 0.84014z"/>
   <path d="m49.763 47.458q0.2421 1.2648-0.33987 2.1496-0.58265 0.88128-1.8617 1.1261-1.2755 0.24414-2.1424-0.35967-0.86759-0.60737-1.1097-1.8722-0.24414-1.2755 0.33919-2.1532 0.58265-0.88128 1.8581-1.1254 1.2719-0.24346 2.1424 0.35967 0.86979 0.59958 1.1139 1.8751zm-1.552 1.6856q0.15272-0.27968 0.18608-0.6249 0.03268-0.34878-0.05233-0.79288-0.09113-0.47608-0.26519-0.78897-0.17406-0.31289-0.39115-0.48495-0.222-0.17849-0.4784-0.22885-0.25285-0.05104-0.50865-0.0021-0.25936 0.04964-0.47261 0.18622-0.2097 0.1359-0.36075 0.38579-0.13956 0.23296-0.18592 0.60646-0.04349 0.36926 0.04492 0.83113 0.09045 0.47253 0.26096 0.7861 0.17338 0.30933 0.39115 0.48495 0.21776 0.17562 0.47485 0.22953 0.25708 0.05392 0.51999 0.0036 0.26291-0.05032 0.48191-0.19537 0.21832-0.1486 0.35516-0.39577z"/>
   <path d="m56.216 49.705-1.3361 0.07859-2.4993-3.5563 0.21707 3.6906-1.2711 0.07477-0.31627-5.3769 1.6575-0.09749 2.142 2.9649-0.18118-3.0803 1.2711-0.07476z"/>
   <path d="m62.058 45.642-1.6793-0.09588-0.24763 4.3374-1.3868-0.07917 0.24763-4.3374-1.6793-0.09588 0.05938-1.0401 4.7455 0.27093z"/>
   <path d="m65.354 48.626-2.7307-0.40148 0.15154-1.0307 2.7307 0.40148z"/>
   <path d="m69.944 51.578-3.7877-0.91188 1.2607-5.2366 3.7877 0.91188-0.24384 1.0129-2.4442-0.58844-0.2176 0.90383 2.2684 0.54611-0.24384 1.0129-2.2684-0.54611-0.31158 1.2942 2.4442 0.58844z"/>
   <path d="m75.664 53.604-1.2544-0.46668-0.85363-4.2621-1.2891 3.4649-1.1934-0.44398 1.8781-5.0482 1.5562 0.57894 0.76506 3.5768 1.0759-2.892 1.1934 0.44398z"/>
   <path d="m82.685 54.192q-0.35326 0.66432-0.93691 1.03-0.58195 0.36245-1.1945 0.39724-0.46022 0.02567-0.91958-0.11208-0.45936-0.13775-1.0279-0.44006l-1.6768-0.89165 2.5289-4.7557 1.7247 0.91713q0.58128 0.30911 0.95022 0.6323 0.37064 0.32 0.56298 0.65171 0.33221 0.56177 0.34152 1.2222 0.01421 0.65898-0.35264 1.3489zm-1.2629-0.68384q0.24966-0.4695 0.25383-0.89337 0.0091-0.42537-0.26123-0.81082-0.13918-0.19283-0.32022-0.33006-0.17614-0.13873-0.57218-0.34933l-0.3098-0.16474-1.5829 2.9767 0.3098 0.16474q0.43756 0.23268 0.66234 0.30305 0.22649 0.06718 0.47736 0.06538 0.43726-0.0133 0.7636-0.24947 0.32804-0.23936 0.5794-0.71205z"/>
   <path d="m88.305 59.159-2.3538-1.8228q-0.22813 0.29458-0.31001 0.58346-0.07967 0.28602-0.03375 0.54576 0.04241 0.25245 0.19231 0.47835 0.15276 0.22811 0.39873 0.41858 0.32604 0.25249 0.75461 0.3785 0.43364 0.12536 0.67124 0.10805l0.0286 0.02215-0.45404 0.5863q-0.3603-0.09601-0.70324-0.23806-0.34294-0.14205-0.65468-0.38347-0.79509-0.61573-0.90902-1.3902-0.11172-0.77738 0.50179-1.5696 0.60687-0.78364 1.3896-0.9141 0.78559-0.12824 1.4834 0.41218 0.64636 0.50055 0.70293 1.1483 0.05942 0.64995-0.47878 1.3449zm-0.20445-0.81716q0.32494-0.4255 0.2927-0.82106-0.02938-0.39334-0.45838-0.72557-0.43186-0.33444-0.88638-0.27923-0.45166 0.05742-0.77834 0.40836z"/>
   <path d="m90.434 63.781-0.6242-0.58767 0.22885-1.9159-1.9039 0.33889-0.5768-0.54304 2.5295-0.3859 0.2508-2.5461 0.6242 0.58767-0.21676 1.8925 1.8787-0.32789 0.57943 0.54552-2.52 0.36002z"/>
   <path d="m93.198 66.511q-0.34719-0.14689-0.61862-0.31732-0.26903-0.16772-0.49668-0.42515-0.28995-0.32789-0.43713-0.68545-0.14447-0.35996-0.1219-0.7276 0.02018-0.37035 0.2224-0.74233 0.20223-0.37198 0.60057-0.72424 0.74249-0.65658 1.5247-0.62393 0.78457 0.03536 1.3764 0.70468 0.23004 0.26014 0.37734 0.57414 0.14969 0.31671 0.22852 0.61882l-0.56635 0.50082-0.02396-0.0271q-0.02452-0.39359-0.14743-0.72916-0.12051-0.33286-0.32898-0.56861-0.3834-0.43357-0.89892-0.42678-0.51041 0.0071-1.074 0.50553-0.54738 0.48405-0.62709 0.98913-0.0746 0.50539 0.31839 0.9498 0.13659 0.15446 0.31862 0.27839 0.18203 0.12393 0.35969 0.19378 0.15515 0.06078 0.30374 0.10322 0.1513 0.04004 0.24769 0.05621l0.02396 0.0271z"/>
   <path d="m97.711 65.077-0.46886-0.60685 0.55819-0.43126 0.46886 0.60685zm-3.7593 2.8496-0.41578-0.53815 3.1974-2.4704 0.41578 0.53815z"/>
   <path d="m95.977 70.722q-0.15024-0.12941-0.30604-0.29889-0.15375-0.16649-0.25405-0.31263-0.35003-0.51-0.25782-0.96376 0.09221-0.45376 0.69766-0.86929l1.7716-1.2159-0.25996-0.37878 0.47123-0.32342 0.25996 0.37878 0.95738-0.65707 0.38483 0.56071-0.95738 0.65707 0.79422 1.1572-0.47123 0.32342-0.79422-1.1572-1.5181 1.0419q-0.26246 0.18013-0.4034 0.29441-0.13795 0.11223-0.21708 0.27183-0.07427 0.14749-0.05315 0.29972 0.02615 0.15316 0.18786 0.38878 0.09416 0.13719 0.23528 0.25971 0.1441 0.12047 0.21598 0.16766l0.02047 0.02982z"/>
   <path d="m99.761 73.413-1.4721-2.5877q-0.32385 0.18423-0.51051 0.41943-0.18351 0.23341-0.24099 0.49084-0.05791 0.24935-0.0064 0.51552 0.05332 0.26931 0.20715 0.53971 0.20391 0.35844 0.55109 0.63953 0.35212 0.28245 0.5781 0.35781l0.01789 0.03144-0.64456 0.36667q-0.29569-0.22715-0.55766-0.49013-0.26197-0.26298-0.45693-0.6057-0.49724-0.87409-0.30465-1.6329 0.19574-0.76058 1.0667-1.256 0.86151-0.49009 1.6342-0.30958 0.77451 0.18366 1.2109 0.95084 0.40424 0.71059 0.20742 1.3303-0.19503 0.62284-0.95907 1.0575zm0.12544-0.83295q0.46355-0.26786 0.58587-0.64542 0.12411-0.37441-0.14419-0.84604-0.27008-0.47477-0.71089-0.59856-0.43902-0.12064-0.87552 0.07773z"/>
   <path d="m100.75 77.47q-0.50516 0.2261-1.0164-0.04841-0.50977-0.2712-0.8334-0.99428-0.18324-0.40942-0.24118-0.79565-0.05316-0.38441-0.04104-0.66725l0.69667-0.31181 0.01478 0.03302q-0.0897 0.39286-0.06069 0.81186 0.03231 0.41752 0.18008 0.7477 0.18324 0.40942 0.41875 0.58143 0.23551 0.17201 0.51946 0.04492 0.21792-0.09753 0.27402-0.27324 0.0561-0.17571-0.0242-0.56776-0.0294-0.14537-0.0858-0.37772-0.055-0.22904-0.0871-0.42472-0.0885-0.54299 0.0675-0.85853 0.16079-0.31372 0.52398-0.47627 0.22782-0.10196 0.4706-0.09966 0.24426 0.0056 0.48846 0.12618 0.23793 0.11544 0.45417 0.35949 0.22101 0.24587 0.37913 0.59916 0.14778 0.33017 0.21596 0.7039 0.073 0.37554 0.0579 0.65178l-0.66365 0.29703-0.0148-0.03302q0.0686-0.31605 0.0353-0.70932-0.0301-0.39476-0.17634-0.72163-0.15221-0.34008-0.3892-0.51539-0.23369-0.17679-0.49123-0.06153-0.22782 0.10196-0.27983 0.29566-0.0535 0.19039 0.0128 0.53327 0.0372 0.18942 0.0922 0.41847 0.0564 0.23235 0.087 0.3891 0.0945 0.47686-0.0416 0.81916-0.1394 0.34378-0.54222 0.52406z"/>
   <path d="m102.29 87.051-0.15372-0.66246 2.2411-0.52003q0.25371-0.05887 0.48408-0.13832 0.23118-0.07593 0.35496-0.18263 0.13271-0.1162 0.17508-0.28571 0.0424-0.16951-0.0239-0.45493-0.0646-0.27837-0.27014-0.52404-0.20202-0.24649-0.48157-0.47498-0.0786 0.02938-0.18619 0.06177-0.10408 0.03158-0.20979 0.05611l-2.5195 0.58463-0.15372-0.66246 2.2411-0.52003q0.26075-0.06051 0.4876-0.13914 0.23118-0.07593 0.35496-0.18263 0.13271-0.1162 0.17155-0.2849 0.0424-0.16951-0.0239-0.45493-0.063-0.27133-0.26064-0.51511-0.19686-0.24026-0.46772-0.46334l-2.9388 0.68193-0.15372-0.66246 3.936-0.91333 0.15373 0.66246-0.43695 0.10139q0.32919 0.2504 0.5448 0.52344 0.21643 0.27656 0.29738 0.62541 0.0932 0.4017-0.0113 0.71933-0.10373 0.32115-0.37136 0.52807 0.43149 0.32321 0.65635 0.6201 0.22838 0.29607 0.31587 0.67311 0.15045 0.64837-0.17307 1.0465-0.31918 0.40085-1.0239 0.56438z"/>
   <path d="m104.64 91.559-0.26704-2.9651q-0.37108 0.03342-0.63844 0.17009-0.26375 0.13634-0.42276 0.34679-0.15606 0.20292-0.21949 0.4665-0.0631 0.26719-0.0352 0.57702 0.037 0.41072 0.23643 0.81043 0.20337 0.403 0.37779 0.56526l3e-3 0.03603-0.73857 0.06651q-0.17493-0.32928-0.30433-0.6772-0.12939-0.34791-0.16476-0.74062-0.0902-1.0016 0.3996-1.6123 0.4934-0.61103 1.4914-0.7009 0.98716-0.0889 1.6156 0.39567 0.62871 0.48818 0.70788 1.3673 0.0733 0.81423-0.36265 1.2966-0.43566 0.48597-1.3111 0.56481zm0.45942-0.70603q0.53288-0.05162 0.8007-0.34451 0.26814-0.28928 0.21947-0.8297-0.049-0.54402-0.39885-0.83939-0.34952-0.29177-0.82898-0.29217z"/>
  </g>
 </g>
</svg>
