<?xml version="1.0" encoding="UTF-8"?>
<!-- Created with Inkscape (http://www.inkscape.org/) -->
<svg width="20.233mm" height="28.334mm" version="1.1" viewBox="0 0 20.233 56.334" xmlns="http://www.w3.org/2000/svg">
 <g transform="translate(-29.759 -64.776)">
  <g stroke-width=".26458" aria-label="I HATE       mint">
   <path d="m29.759 121.11v-4.86h0.58v0.64h0.12q0.15-0.27 0.48-0.5 0.33-0.24 0.94-0.24 0.59 0 0.95 0.27 0.37 0.27 0.53 0.65h0.12q0.17-0.38 0.53-0.65t1.01-0.27q0.5 0 0.87 0.21 0.37 0.2 0.58 0.57 0.21 0.36 0.21 0.85v3.33h-0.6v-3.27q0-0.52-0.32-0.83-0.31-0.32-0.88-0.32-0.58 0-0.97 0.38-0.39 0.37-0.39 1.09v2.95h-0.6v-3.27q0-0.52-0.32-0.83-0.31-0.32-0.88-0.32-0.58 0-0.97 0.38-0.39 0.37-0.39 1.09v2.95z"/>
   <path d="m38.372 121.11v-4.86h0.6v4.86zm0.3-5.7q-0.22 0-0.37-0.15t-0.15-0.37q0-0.23 0.15-0.37 0.15-0.15 0.37-0.15 0.23 0 0.37 0.15 0.15 0.14 0.15 0.37 0 0.22-0.15 0.37-0.14 0.15-0.37 0.15z"/>
   <path d="m40.735 121.11v-4.86h0.58v0.9h0.12q0.18-0.39 0.59-0.69 0.41-0.31 1.19-0.31 0.53 0 0.97 0.22t0.7 0.67q0.27 0.44 0.27 1.11v2.96h-0.6v-2.92q0-0.8-0.4-1.15t-1.07-0.35q-0.75 0-1.25 0.5-0.5 0.49-0.5 1.49v2.43z"/>
   <path d="m48.472 121.11q-0.39 0-0.59-0.2-0.19-0.2-0.19-0.56v-3.56h-1.56v-0.54h1.56v-1.82h0.6v1.82h1.7v0.54h-1.7v3.48q0 0.3 0.3 0.3h1.14v0.54z"/>
   <text x="30.530825" y="68.626434" font-family="'Space Grotesk Light'" font-size="5.5px" stroke-width=".070004" style="line-height:1.25" xml:space="preserve"><tspan x="30.530825" y="68.626434" font-family="'Space Grotesk'" font-size="5.5px" font-style="italic" font-weight="bold" stroke-width=".070004">I HATE</tspan></text>
  </g>
  <text x="28.499168" y="74.517776" font-family="'Space Grotesk Light'" font-size="8px" stroke-width=".26458" style="line-height:1.25" xml:space="preserve"><tspan x="28.499168" y="74.517776"/><tspan x="28.499168" y="84.517761"/></text>
  <path d="m38.911 70.342v41.573" fill="none" stroke="#000" stroke-width=".26458px"/>
  <text x="44.348877" y="98.682091" font-family="'Space Grotesk Light'" font-size="8px" stroke-width=".26458" style="line-height:1.25" xml:space="preserve"><tspan x="44.348877" y="98.682091"/><tspan x="44.348877" y="108.68208"/></text>
  <text x="26.680351" y="107.25652" font-family="'Space Grotesk Light'" font-size="8px" stroke-width=".26458" style="line-height:1.25" xml:space="preserve"><tspan x="26.680351" y="107.25652"/><tspan x="26.680351" y="117.25651"/></text>
 </g>
</svg>
