<?xml version="1.0" encoding="UTF-8"?>
<!-- Created with Inkscape (http://www.inkscape.org/) -->
<svg width="118.65mm" height="119.27mm" version="1.1" viewBox="0 0 118.65 119.27" xmlns="http://www.w3.org/2000/svg">
 <g transform="translate(-20.518 -57.935)">
  <ellipse cx="111.71" cy="120.71" rx="73.588" ry="72" fill="none" stroke-width=".26458"/>
  <g transform="translate(-33.719 -4.9813)" stroke-width=".26458" aria-label="DESIGN makes me smile DESIGN makes me smile ">
   <path d="m167.77 132.26q-1.207-0.1175-2.1108-0.76197-0.898-0.64391-1.3267-1.535-0.32141-0.66979-0.39884-1.4388-0.0774-0.76906 0.0231-1.802l0.29657-3.0465 8.6404 0.84113-0.30504 3.1335q-0.10281 1.0561-0.35726 1.8046-0.24866 0.74902-0.62445 1.2396-0.63246 0.84053-1.6106 1.2608-0.97292 0.42663-2.2263 0.30461zm0.24167-2.302q0.85301 0.083 1.487-0.17156 0.63924-0.24824 1.0471-0.88804 0.20161-0.32598 0.29466-0.68011 0.0983-0.34775 0.16834-1.0673l0.0548-0.56287-5.4082-0.52649-0.0548 0.56288q-0.0774 0.79498-0.0439 1.1731 0.0393 0.37872 0.19632 0.75134 0.28885 0.64319 0.84145 0.98401 0.55841 0.34139 1.4172 0.425z"/>
   <path d="m161.31 139.56 1.7125-6.0411 8.3521 2.3676-1.7125 6.0411-1.6154-0.45794 1.1051-3.8984-1.4416-0.40865-1.0256 3.6179-1.6154-0.45794 1.0256-3.618-2.0642-0.58515-1.1051 3.8984z"/>
   <path d="m160.12 148.77q-1.1594-0.54865-1.4203-1.8783-0.25814-1.3219 0.53989-3.0082 0.46135-0.97495 0.97414-1.6224 0.51556-0.63969 1.0783-1.1474l1.8814 0.8903-0.10474 0.22134q-0.79741 0.39021-1.4328 1.0377-0.63785 0.65277-0.97701 1.3695-0.0873 0.18445-0.19781 0.4998-0.11053 0.31535-0.12653 0.53998-0.0149 0.27677 0.0576 0.49166 0.07 0.22016 0.34927 0.35233 0.25823 0.1222 0.54742-0.0119 0.29197-0.12629 0.5916-0.50051 0.31488-0.3928 0.63889-0.84578 0.32679-0.44522 0.67357-0.81002 0.7903-0.83863 1.5454-1.0167 0.75784-0.17029 1.5747 0.21625 1.0962 0.51872 1.3227 1.8256 0.22929 1.3147-0.5014 2.8588-0.36659 0.77469-0.87604 1.456-0.50667 0.68905-0.99513 1.1352l-1.8076-0.85538 0.10224-0.21607q0.60388-0.29474 1.1835-0.8654 0.58243-0.5629 0.92159-1.2796 0.1197-0.25295 0.20252-0.52337 0.0856-0.26265 0.10045-0.53942 0.0182-0.24293-0.0753-0.4678-0.0883-0.22238-0.2938-0.31963-0.31093-0.14714-0.59179 0.0102-0.27559 0.15984-0.72434 0.75374-0.29408 0.38974-0.56543 0.74509-0.27386 0.36062-0.63838 0.74928-0.72156 0.76151-1.4348 0.94647-0.71041 0.19273-1.522-0.19131z"/>
   <path d="m154.17 152.79 2.8317-4.2224 1.2783 0.85729-0.79235 1.1815 4.6533 3.1207 0.79235-1.1815 1.2783 0.8573-2.8317 4.2224-1.2783-0.8573 0.79235-1.1815-4.6533-3.1207-0.79235 1.1815z"/>
   <path d="m148.22 160.25q0.23124-0.5815 0.7209-1.4402 0.49392-0.85472 1.1459-1.5541 1.5107-1.6205 3.244-1.7184 1.7375-0.0939 3.2898 1.3532 1.4798 1.3795 1.5212 3.1478 0.0456 1.7722-1.4969 3.4269-0.58441 0.62689-1.2283 1.0867-0.63963 0.46382-1.6246 0.84487l-1.4883-1.3875 0.17095-0.18338q0.20088-0.0359 0.57761-0.11513 0.381-0.0752 0.69492-0.18112 0.36705-0.12013 0.77523-0.36133 0.40421-0.23693 0.75008-0.60794 0.40552-0.43499 0.60755-0.90821 0.20204-0.47323 0.20003-1.0012-5e-3 -0.50721-0.25492-1.0347-0.24922-0.51927-0.76523-1.0003-1.0533-0.98197-2.1328-0.94412-1.0795 0.0379-2.0972 1.1296-0.0875 0.0938-0.18656 0.20867-0.10308 0.11912-0.18201 0.22089l1.2452 1.1609 1.1808-1.2666 1.1983 1.1171-2.7312 2.9297z"/>
   <path d="m139.94 165.88 1.7486-1.2632 6.4761 2.6722-3.4893-4.83 1.6635-1.2018 5.0838 7.037-2.1692 1.5671-5.4785-2.1774 2.9123 4.0313-1.6635 1.2018z"/>
   <path d="m125.28 171.99 1.0381-0.35188 1.1904 3.5118q0.13477 0.39755 0.29882 0.7544 0.15853 0.35872 0.34935 0.54028 0.20748 0.19439 0.48609 0.23538 0.27861 0.041 0.72586-0.11061 0.43621-0.14786 0.79755-0.51659 0.36322-0.36321 0.68526-0.84789-0.0596-0.12138-0.12868-0.28881-0.0672-0.16191-0.12335-0.32756l-1.3382-3.948 1.0381-0.35187 1.1904 3.5118q0.1385 0.4086 0.30069 0.75993 0.15853 0.35872 0.34935 0.54028 0.20748 0.19438 0.48421 0.22985 0.27861 0.041 0.72586-0.11061 0.42517-0.14412 0.78474-0.49993 0.35404-0.35394 0.66878-0.82384l-1.561-4.605 1.0381-0.35187 2.0907 6.1677-1.0381 0.35187-0.23209-0.68468q-0.34927 0.56778-0.75291 0.95701-0.40917 0.39109-0.95581 0.57639-0.62947 0.21337-1.1555 0.0962-0.53157-0.11531-0.90601-0.51165-0.44979 0.74345-0.89021 1.1513-0.43855 0.41336-1.0294 0.61363-1.016 0.34439-1.706-0.1112-0.69366-0.44819-1.068-1.5525z"/>
   <path d="m118.15 172.98 1.0796-0.15204 0.0968 0.68702q0.13051-0.11847 0.35356-0.33241 0.21808-0.20734 0.43438-0.34378 0.25264-0.171 0.59262-0.3072 0.33916-0.14197 0.81256-0.20864 0.87177-0.12277 1.5593 0.36918t0.81352 1.3868q0.10326 0.73321-0.14507 1.2274-0.2533 0.5008-0.79981 0.84272-0.55229 0.34273-1.3649 0.55137t-1.7529 0.38817l0.0236 0.16743q0.052 0.36949 0.21897 0.59326 0.16116 0.22459 0.42315 0.329 0.24964 0.10026 0.57944 0.10092 0.32981 6.5e-4 0.68198-0.0489 0.42722-0.0602 0.93633-0.24963 0.50992-0.18368 1.0398-0.47616l0.0577-8e-3 0.1553 1.1027q-0.30533 0.13132-0.89112 0.31979-0.58578 0.18848-1.1689 0.2706-0.68125 0.0959-1.1998 0.0512-0.52349-0.0382-0.93119-0.25745-0.40112-0.21435-0.65099-0.60897-0.24988-0.39462-0.33769-1.0181zm1.3032 1.4356 0.25287 1.7955q0.49243-0.0988 1.1598-0.25166 0.66157-0.15205 1.0387-0.31703 0.44893-0.19864 0.69775-0.52218 0.24964-0.31777 0.18053-0.8085-0.0781-0.55424-0.45275-0.78997-0.37387-0.22996-1.0609-0.1332-0.57156 0.0805-1.0141 0.36655-0.44169 0.29183-0.80192 0.6605z"/>
   <path d="m110.11 173.12 1.4459-2.5e-4 2.6124 2.8506 0.71117-0.67643-3.7e-4 -2.1747 1.0961-1.9e-4 2e-3 9.0719-1.0961 1.8e-4 -9.8e-4 -5.8186-3.1653 3.2596-1.3818 2.4e-4 3.0254-3.0089z"/>
   <path d="m103.12 175.33 4.7521 0.66422q0.0831-0.59473-0.0337-1.0644-0.11766-0.46386-0.38992-0.79037-0.26151-0.31912-0.6521-0.51501-0.39637-0.19668-0.89294-0.26609-0.65825-0.092-1.3586 0.075-0.70692 0.17199-1.0254 0.38651l-0.0577-8e-3 0.16545-1.1837q0.58083-0.15429 1.1742-0.23029 0.59343-0.076 1.2228 0.012 1.6052 0.22437 2.3849 1.2164 0.77889 0.99779 0.55533 2.5972-0.22113 1.5821-1.2114 2.3915-0.99606 0.80857-2.4049 0.61165-1.305-0.1824-1.9029-1.043-0.60368-0.86145-0.40756-2.2646zm0.94044 0.97917q-0.11367 0.85537 0.24824 1.3828 0.35614 0.52662 1.2222 0.64768 0.8719 0.12187 1.4634-0.31939 0.58573-0.44207 0.76155-1.1946z"/>
   <path d="m96.95 172.38q0.23914-0.85937 1.1056-1.2113 0.86089-0.35351 2.091-0.0112 0.69649 0.19381 1.2353 0.51925 0.53165 0.32949 0.87012 0.63549l-0.32979 1.1852-0.0562-0.0156q-0.39517-0.51543-0.94489-0.91047-0.55128-0.38942-1.113-0.54572-0.69649-0.19381-1.1522-0.0786-0.4557 0.11527-0.59012 0.59831-0.10316 0.37072 0.05714 0.62108 0.1603 0.25037 0.7294 0.55397 0.21061 0.11307 0.55694 0.28207 0.34072 0.16743 0.61653 0.32891 0.76472 0.44881 0.99574 0.96698 0.22384 0.52222 0.0519 1.1401-0.10785 0.38756-0.36046 0.68643-0.25823 0.2973-0.65903 0.47625-0.388 0.17647-0.91325 0.1937-0.53243 0.0213-1.1334-0.14595-0.56168-0.15629-1.0955-0.45614-0.54102-0.29579-0.86826-0.59866l0.31416-1.129 0.05617 0.0156q0.32157 0.41023 0.84384 0.77342 0.5207 0.36881 1.0768 0.52355 0.57853 0.16099 1.0398 0.0473 0.45975-0.10809 0.58166-0.5462 0.10785-0.38756-0.07897-0.65136-0.1812-0.26223-0.6748-0.53272-0.27332-0.14868-0.61404-0.31611-0.34634-0.169-0.57223-0.29238-0.68892-0.37325-0.97361-0.89425-0.28313-0.52662-0.09245-1.2119z"/>
   <path d="m83.822 163.73 0.9445 0.55617-1.8815 3.1952q-0.213 0.36172-0.37605 0.71903-0.16807 0.35435-0.1809 0.61744-0.01166 0.28407 0.13928 0.5218 0.15094 0.23774 0.55788 0.47737 0.39689 0.23371 0.91211 0.26647 0.51227 0.0378 1.0896-0.035 0.05297-0.12442 0.13463-0.28608 0.0787-0.15663 0.16746-0.30735l2.1152-3.5921 0.9445 0.55618-1.8815 3.1952q-0.21892 0.37177-0.37901 0.72405-0.16807 0.35435-0.1809 0.61744-0.01166 0.28407 0.14224 0.51678 0.15094 0.23774 0.55788 0.47737 0.38684 0.22779 0.89112 0.26764 0.49926 0.0369 1.0606-0.0317l2.4673-4.1899 0.94449 0.55618-3.3045 5.6117-0.94449-0.55617 0.36684-0.62297q-0.65807 0.10641-1.2164 0.055-0.5634-0.0544-1.0608-0.34724-0.57272-0.33725-0.82761-0.81212-0.25991-0.47781-0.20438-1.0202-0.85673 0.14504-1.4532 0.078-0.59946-0.0621-1.137-0.37861-0.9244-0.54434-1.0301-1.3644-0.11372-0.81799 0.47795-1.8228z"/>
   <path d="m76.047 161.1 3.6171 3.1528q0.39458-0.45268 0.55332-0.90985 0.1549-0.45278 0.10529-0.875-0.04466-0.41017-0.26476-0.78764-0.2245-0.38131-0.60247-0.71076-0.50103-0.43672-1.1788-0.6795-0.68604-0.24221-1.07-0.23655l-0.04395-0.0383 0.78533-0.90097q0.57076 0.18813 1.1093 0.44873 0.53854 0.26059 1.0176 0.67816 1.2218 1.065 1.3328 2.3218 0.10715 1.2613-0.954 2.4787-1.0497 1.2042-2.3213 1.341-1.276 0.13296-2.3484-0.80178-0.99327-0.86578-1.0238-1.9133-0.03491-1.0513 0.896-2.1193zm0.25264 1.3339q-0.56258 0.65429-0.54765 1.2938 0.01053 0.63565 0.66978 1.2103 0.66364 0.57846 1.4001 0.53209 0.7321-0.0502 1.2905-0.58438z"/>
   <path d="m69.914 151.75q0.71545-0.53277 1.6159-0.28016 0.89702 0.24793 1.6596 1.272 0.43179 0.57984 0.65833 1.1671 0.21838 0.58611 0.29847 1.0353l-0.98666 0.73475-0.03482-0.0468q0.0034-0.64948-0.18913-1.2985-0.19719-0.6455-0.54541-1.1131-0.43179-0.57983-0.86259-0.76788-0.4308-0.18804-0.83294 0.11143-0.30862 0.22983-0.33529 0.52591-0.02667 0.29609 0.23718 0.88468 0.0972 0.21839 0.26743 0.56412 0.16675 0.34106 0.28584 0.63764 0.32951 0.8232 0.1947 1.3743-0.14297 0.54989-0.65734 0.93293-0.32265 0.24027-0.7054 0.32175-0.38623 0.0768-0.81265-0.0273-0.41478-0.0982-0.8405-0.40633-0.43388-0.30932-0.80648-0.80966-0.34822-0.46761-0.5865-1.0316-0.24644-0.56522-0.31956-1.0051l0.9399-0.69992 0.03482 0.0468q0.0029 0.52124 0.19321 1.1282 0.18565 0.61048 0.53038 1.0734 0.35866 0.48164 0.79294 0.67435 0.4296 0.1962 0.79434-0.0754 0.32265-0.24027 0.33658-0.56322 0.01741-0.31827-0.20704-0.83444-0.12496-0.28494-0.29171-0.626-0.17023-0.34573-0.2732-0.58163-0.31588-0.71703-0.22176-1.3032 0.0988-0.58968 0.66928-1.0145z"/>
   <path d="m66.176 140.87 0.49014 0.98039-3.3166 1.6581q-0.37547 0.18771-0.70661 0.3989-0.33375 0.20596-0.4876 0.41976-0.16428 0.23204-0.1669 0.51364-0.0026 0.28159 0.20855 0.704 0.20596 0.41197 0.62052 0.71966 0.40934 0.3103 0.93341 0.56324 0.11212-0.0756 0.26857-0.16686 0.15123-0.0887 0.30768-0.16686l3.7286-1.8641 0.49014 0.98039-3.3166 1.6581q-0.3859 0.19293-0.71183 0.4015-0.33375 0.20597-0.4876 0.41976-0.16428 0.23205-0.16168 0.51104-0.0026 0.28159 0.20856 0.704 0.20075 0.40154 0.60227 0.70923 0.39891 0.30247 0.90734 0.5502l4.3492-2.1743 0.49014 0.98039-5.825 2.9121-0.49014-0.98039 0.64664-0.32328q-0.61011-0.26859-1.0507-0.61539-0.44324-0.35202-0.70134-0.86829-0.29721-0.59449-0.25286-1.1316 0.04174-0.54233 0.38333-0.96731-0.79784-0.34421-1.2619-0.72491-0.46931-0.37809-0.74827-0.93608-0.47971-0.95953-0.12246-1.7052 0.34942-0.74829 1.3924-1.2697z"/>
   <path d="m58.066 140.03 0.38339 1.175-1.0808 0.35265-0.38339-1.175zm7.2494-2.2917 0.33999 1.042-6.1912 2.02-0.33999-1.042z"/>
   <path d="m64.433 134.57 0.27101 1.062-8.7902 2.243-0.27101-1.0621z"/>
   <path d="m60.001 127.52 0.70064 4.7468q0.59408-0.0877 1.0118-0.33203 0.41196-0.2435 0.64861-0.59668 0.23258-0.34078 0.31056-0.77073 0.07713-0.43571 0.0039-0.93173-0.09705-0.65753-0.4545-1.2825-0.36407-0.6299-0.65957-0.87506l-0.0085-0.0577 1.1824-0.17452q0.31159 0.51389 0.5516 1.0619 0.24001 0.54802 0.3328 1.1767 0.23667 1.6034-0.49569 2.6309-0.73812 1.0283-2.3358 1.2641-1.5804 0.23327-2.6358-0.48907-1.0563-0.7281-1.264-2.1354-0.1924-1.3035 0.46508-2.1196 0.65663-0.82181 2.0582-1.0287zm-0.67476 1.1781q-0.85278 0.13176-1.257 0.62753-0.40504 0.49-0.27734 1.3552 0.12855 0.87093 0.7185 1.3143 0.5891 0.43756 1.3607 0.3944z"/>
   <path d="m59.405 112.55q1.2063 0.12429 2.1065 0.77384 0.89436 0.64894 1.3181 1.5425 0.31764 0.67159 0.39075 1.4411 0.07311 0.76948-0.03325 1.8018l-0.3137 3.0448-8.6355-0.8897 0.32266-3.1318q0.10875-1.0555 0.36741-1.8025 0.25286-0.74762 0.63141-1.2361 0.63717-0.83696 1.6177-1.2517 0.97531-0.42115 2.228-0.29209zm-0.25461 2.3006q-0.85253-0.0878-1.488 0.1632-0.64062 0.24463-1.0521 0.88213-0.20344 0.32484-0.29848 0.67844-0.10024 0.3472-0.17434 1.0663l-0.05796 0.56256 5.4052 0.55688 0.05796-0.56255q0.08186-0.79454 0.05051-1.1729-0.03715-0.37894-0.19209-0.75243-0.28523-0.6448-0.83591-0.98873-0.55648-0.34453-1.4148-0.43296z"/>
   <path d="m65.909 105.29-1.7469 6.0313-8.3385-2.4151 1.7469-6.0313 1.6128 0.46713-1.1273 3.8921 1.4392 0.41685 1.0462-3.6121 1.6128 0.46713-1.0462 3.6121 2.0608 0.59688 1.1273-3.892z"/>
   <path d="m67.148 96.081q1.1563 0.55521 1.4096 1.8863 0.25063 1.3233-0.55695 3.0051-0.46688 0.97231-0.98334 1.6168-0.51918 0.63676-1.0848 1.1413l-1.8763-0.90096 0.106-0.22074q0.79961-0.38568 1.4386-1.0296 0.64155-0.64914 0.98477-1.3639 0.08833-0.18395 0.20064-0.49867 0.11232-0.31472 0.12959-0.53926 0.01644-0.27668-0.0548-0.49198-0.06872-0.22056-0.34727-0.35431-0.25753-0.12366-0.54748 0.0088-0.29268 0.12463-0.59443 0.49714-0.3171 0.39101-0.64368 0.84214-0.32931 0.44335-0.67815 0.80618-0.79505 0.83413-1.5511 1.0079-0.75879 0.16598-1.5734-0.22519-1.0932-0.52493-1.3123-1.8331-0.22182-1.3159 0.51762-2.8559 0.37098-0.77259 0.88429-1.451 0.51057-0.68616 1.0016-1.1295l1.8027 0.86563-0.10347 0.21548q-0.60554 0.29131-1.1884 0.85867-0.58561 0.55958-0.92883 1.2744-0.12114 0.25228-0.20548 0.52222-0.08708 0.26216-0.10352 0.53884-0.01959 0.24283 0.07268 0.46822 0.08701 0.22287 0.29198 0.3213 0.31009 0.1489 0.59184-0.0069 0.27649-0.15827 0.7286-0.74962 0.29629-0.38807 0.56966-0.74187 0.27589-0.35906 0.64261-0.74564 0.72587-0.7574 1.4401-0.93832 0.71149-0.1887 1.5209 0.19995z"/>
   <path d="m73.123 92.098-2.8554 4.2063-1.2735-0.86449 0.799-1.177-4.6356-3.1469-0.799 1.177-1.2735-0.86449 2.8554-4.2063 1.2735 0.86449-0.799 1.177 4.6356 3.1469 0.799-1.177z"/>
   <path d="m79.113 84.67q-0.23451 0.5802-0.72898 1.4361-0.49872 0.85193-1.1546 1.5476-1.5198 1.612-3.2536 1.7002-1.738 0.08417-3.2822-1.3716-1.472-1.3878-1.5035-3.1563-0.03569-1.7724 1.5161-3.4184 0.58793-0.6236 1.2344-1.0798 0.64223-0.46022 1.6293-0.83573l1.4805 1.3958-0.17198 0.18241q-0.20107 0.03479-0.57824 0.11189-0.38142 0.07309-0.69593 0.17722-0.36772 0.11806-0.77725 0.35696-0.40553 0.23466-0.75349 0.60372-0.40795 0.4327-0.61264 0.90478-0.20469 0.47208-0.20565 1 0.0026 0.50722 0.2491 1.0361 0.2463 0.52067 0.7596 1.0046 1.0478 0.98788 2.1275 0.95609 1.0797-0.03179 2.1035-1.1178 0.08799-0.09333 0.18773-0.20762 0.10374-0.11854 0.18325-0.21986l-1.2387-1.1679-1.1878 1.2599-1.192-1.1239 2.7477-2.9144z"/>
   <path d="m87.421 79.093-1.7557 1.2534-6.461-2.7086 3.462 4.8495-1.6703 1.1924-5.044-7.0655 2.178-1.5549 5.4662 2.2082-2.8896-4.0476 1.6703-1.1924z"/>
   <path d="m102.12 73.067-1.0401 0.34596-1.1704-3.5185q-0.1325-0.39832-0.29452-0.7561-0.15649-0.35962-0.34627-0.54226-0.20637-0.19556-0.48474-0.23814-0.27837-0.04258-0.72648 0.10648-0.43704 0.14538-0.80048 0.51204-0.36528 0.36113-0.69007 0.84397 0.05892 0.12172 0.12703 0.28954 0.06627 0.16228 0.12148 0.32825l1.3158 3.9555-1.0401 0.34596-1.1704-3.5185q-0.13618-0.40938-0.29636-0.76163-0.15649-0.35962-0.34627-0.54226-0.20637-0.19556-0.4829-0.23261-0.27837-0.04258-0.72648 0.10648-0.42598 0.1417-0.78756 0.49546-0.35605 0.35192-0.67346 0.82002l1.5347 4.6139-1.0401 0.34596-2.0555-6.1795 1.0401-0.34596 0.22819 0.68599q0.3525-0.56579 0.75835-0.95271 0.41139-0.38876 0.95907-0.57094 0.63067-0.20978 1.156-0.08961 0.53091 0.11833 0.90308 0.5168 0.45401-0.74088 0.89675-1.1462 0.4409-0.41086 1.0328-0.60777 1.0179-0.3386 1.7053 0.12091 0.6911 0.45214 1.0591 1.5586z"/>
   <path d="m109.26 72.116-1.0804 0.14594-0.0929-0.68756q-0.13118 0.11773-0.35543 0.3304-0.21925 0.20611-0.43632 0.34133-0.2536 0.16957-0.59434 0.30384-0.33996 0.14005-0.81373 0.20404-0.87245 0.11784-1.5572-0.37799-0.68471-0.49583-0.80567-1.3914-0.0991-0.73378 0.15201-1.2266 0.25613-0.49937 0.80456-0.83819 0.55421-0.3396 1.368-0.54365 0.81373-0.20404 1.755-0.37826l-0.0226-0.16756q-0.0499-0.36978-0.21561-0.59449-0.15989-0.2255-0.42129-0.33138-0.24906-0.10167-0.57886-0.10419-0.32979-0.0025-0.68224 0.04509-0.42755 0.05775-0.93772 0.24432-0.51095 0.1808-1.0425 0.47028l-0.0578 0.0078-0.14906-1.1036q0.30607-0.12959 0.89291-0.31475t1.1704-0.26399q0.68178-0.09209 1.2-0.04443 0.52327 0.0411 0.92973 0.26271 0.3999 0.21661 0.64754 0.61263 0.24763 0.39602 0.33192 1.02zm-1.2951-1.4429-0.24271-1.7969q-0.49299 0.09601-1.1612 0.24509-0.66242 0.14831-1.0405 0.31115-0.45005 0.1961-0.7007 0.51824-0.25142 0.31636-0.18509 0.80746 0.0749 0.55467 0.44827 0.79251 0.37257 0.23207 1.0601 0.1392 0.572-0.07726 1.0161-0.36081 0.44334-0.28933 0.80564-0.65596z"/>
   <path d="m117.29 72.019-1.4459-0.0078-2.5965-2.865-0.71493 0.67246-0.0117 2.1746-1.0961-0.0059 0.049-9.0717 1.0961 0.0059-0.0314 5.8185 3.1834-3.242 1.3817 0.0075-3.0421 2.992z"/>
   <path d="m124.3 69.848-4.7483-0.69106q-0.0865 0.59425 0.0277 1.0645 0.11504 0.46451 0.38544 0.79256 0.25971 0.3206 0.64919 0.51868 0.39524 0.19892 0.89142 0.27114 0.65772 0.09572 1.359-0.06734 0.70788-0.16799 1.0275-0.3807l0.0577 0.0084-0.17214 1.1827q-0.58169 0.15101-1.1755 0.22365-0.59385 0.07265-1.2227-0.01888-1.6039-0.23343-2.378-1.2298-0.77324-1.0022-0.54065-2.6003 0.23007-1.5808 1.2249-2.3846 1.0006-0.80293 2.4084-0.59804 1.3039 0.18977 1.8969 1.0538 0.5988 0.86485 0.39476 2.2668zm-0.93489-0.98446q0.1185-0.85472-0.24042-1.3842-0.35316-0.52862-1.2186-0.65458-0.87119-0.12679-1.4652 0.31112-0.58821 0.43875-0.76829 1.1902z"/>
   <path d="m130.45 72.833q-0.24403 0.858-1.1125 1.205-0.86289 0.34861-2.091-6.84e-4 -0.69537-0.19777-1.2323-0.52627-0.52976-0.33251-0.86649-0.64043l0.33653-1.1833 0.0561 0.01595q0.39224 0.51768 0.9397 0.91584 0.54905 0.39255 1.1098 0.55205 0.69538 0.19777 1.1517 0.0851 0.45635-0.11267 0.59351-0.59494 0.10527-0.37012-0.0536-0.62139t-0.72624-0.55812q-0.20996-0.11427-0.55533-0.28523-0.33976-0.16937-0.61465-0.33241-0.76215-0.45316-0.99022-0.97264-0.22086-0.52349-0.0454-1.1404 0.11005-0.38694 0.36436-0.68436 0.25992-0.29582 0.66173-0.4725 0.389-0.17425 0.91434-0.1885 0.53254-0.01826 1.1326 0.1524 0.56079 0.15949 1.0929 0.46237 0.53933 0.29887 0.86484 0.6036l-0.32058 1.1272-0.0561-0.01595q-0.31923-0.41205-0.83942-0.77821-0.5186-0.37177-1.0738-0.52967-0.57761-0.16428-1.0396-0.0532-0.46036 0.10546-0.58477 0.54288-0.11005 0.38694 0.0753 0.6518 0.1797 0.26326 0.67175 0.53656 0.27247 0.15023 0.61223 0.3196 0.34537 0.17096 0.57056 0.29562 0.68678 0.37717 0.96851 0.89978 0.28013 0.52822 0.0856 1.2124z"/>
   <path d="m143.53 81.556-0.94134-0.56151 1.8996-3.1845q0.21505-0.36051 0.38011-0.71689 0.17007-0.3534 0.18439-0.6164 0.0133-0.284-0.13633-0.52259-0.14959-0.23859-0.55517-0.48051-0.39556-0.23595-0.91059-0.27162-0.51205-0.04068-1.0898 0.0288-0.0537 0.12412-0.13625 0.28532-0.0796 0.15619-0.16919 0.3064l-2.1355 3.5801-0.94134-0.56151 1.8996-3.1845q0.22102-0.37053 0.3831-0.7219 0.17007-0.3534 0.18439-0.6164 0.0133-0.284-0.13932-0.51758-0.14959-0.23859-0.55517-0.48051-0.38554-0.22998-0.8896-0.27268-0.49904-0.03971-1.0608 0.02573l-2.491 4.1759-0.94134-0.56151 3.3362-5.5929 0.94134 0.56151-0.37036 0.62088q0.65866-0.10268 1.2167-0.04813 0.56308 0.05754 1.0588 0.35323 0.57081 0.34049 0.823 0.81678 0.25721 0.47928 0.19861 1.0214 0.85754-0.14019 1.4536-0.06974 0.59909 0.06545 1.1348 0.38503 0.92131 0.54956 1.0224 1.3702 0.1091 0.81862-0.48825 1.82z"/>
   <path d="m151.29 84.23-3.5993-3.1731q-0.39712 0.45046-0.55842 0.90673-0.15744 0.4519-0.1102 0.8744 0.0423 0.41041 0.26033 0.78911 0.22235 0.38256 0.59846 0.71414 0.49857 0.43953 1.175 0.68611 0.68467 0.24607 1.0686 0.24256l0.0437 0.03856-0.79038 0.89655q-0.5697-0.19134-1.1068-0.45496-0.53707-0.26362-1.0138-0.68387-1.2158-1.0718-1.3197-2.3293-0.10006-1.2618 0.96792-2.4733 1.0564-1.1983 2.3288-1.328 1.2768-0.12579 2.3439 0.81496 0.98838 0.87135 1.013 1.919 0.029 1.0515-0.9079 2.1143zm-0.24514-1.3353q0.56625-0.65112 0.55492-1.2907-7e-3 -0.6357-0.66297-1.214-0.66039-0.58218-1.3971-0.53995-0.73238 0.04609-1.2938 0.57711z"/>
   <path d="m157.37 93.616q-0.71844 0.52874-1.6175 0.27106-0.8956-0.25298-1.6524-1.2813-0.42852-0.58226-0.65175-1.1708-0.21507-0.58733-0.29263-1.037l0.99078-0.72917 0.0346 0.04696q-7e-3 0.64945 0.18181 1.2995 0.19355 0.6466 0.53913 1.1162 0.42852 0.58226 0.85825 0.77272t0.83356-0.10674q0.30991-0.22808 0.33825-0.52401 0.0283-0.29593-0.2322-0.886-0.096-0.21893-0.26425-0.56562-0.16482-0.34199-0.28224-0.63924-0.32487-0.82504-0.18696-1.3754 0.14607-0.54908 0.66259-0.92921 0.324-0.23845 0.7072-0.31778 0.38665-0.07463 0.81248 0.03184 0.41422 0.10053 0.8382 0.41105 0.43213 0.31176 0.8019 0.8142 0.34558 0.46957 0.58068 1.0349 0.24325 0.56659 0.3139 1.0068l-0.94383 0.69462-0.0346-0.04696q6e-5 -0.52124-0.18685-1.1293-0.18221-0.61152-0.52433-1.0764-0.35595-0.48365-0.78913-0.67881-0.4285-0.19862-0.79476 0.07094-0.324 0.23845-0.33975 0.56132-0.0192 0.31817 0.20234 0.83559 0.12335 0.28564 0.28818 0.62764 0.16828 0.34669 0.26992 0.58316 0.31184 0.7188 0.21442 1.3045-0.10212 0.58912-0.67499 1.0107z"/>
   <path d="m161.04 104.52-0.48457-0.98315 3.326-1.6393q0.37653-0.18558 0.70886-0.39487 0.33492-0.20407 0.48997-0.41699 0.16559-0.23112 0.16981-0.51269 4e-3 -0.28158-0.20456-0.70517-0.20362-0.41314-0.61642-0.72317-0.40758-0.31261-0.9302-0.56852-0.11255 0.07497-0.26951 0.16533-0.15173 0.08778-0.30862 0.16511l-3.7391 1.8429-0.48457-0.98315 3.326-1.6393q0.38698-0.19073 0.71409-0.39746 0.33492-0.20407 0.48997-0.41699 0.16559-0.23111 0.16458-0.51011 4e-3 -0.28158-0.20456-0.70517-0.19847-0.40268-0.59823-0.71264-0.39719-0.30473-0.9042-0.55534l-4.3614 2.1496-0.48457-0.98316 5.8414-2.8791 0.48457 0.98316-0.64846 0.31961q0.60857 0.27204 1.0472 0.62134 0.44123 0.35452 0.6964 0.87225 0.29383 0.59617 0.24644 1.133-0.0448 0.54208-0.38881 0.96512 0.79587 0.34873 1.2578 0.73205 0.46716 0.38075 0.74295 0.94031 0.47426 0.96224 0.11279 1.7059-0.35366 0.74631-1.3996 1.2618z"/>
   <path d="m169.15 105.4-0.37669-1.1772 1.0828-0.34648 0.37669 1.1772zm-7.2623 2.2504-0.33404-1.044 6.2026-1.9847 0.33404 1.044z"/>
   <path d="m162.75 110.82-0.26496-1.0636 8.8028-2.193 0.26495 1.0636z"/>
   <path d="m167.14 117.9-0.6738-4.7507q-0.59457 0.0843-1.0137 0.32631-0.41332 0.24117-0.65196 0.593-0.23451 0.33947-0.31492 0.76896-0.0796 0.43527-9e-3 0.9317 0.0933 0.65806 0.44724 1.2851 0.36051 0.63194 0.65461 0.87877l8e-3 0.0577-1.1834 0.16784q-0.30867-0.51564-0.54558-1.065t-0.32615-1.1786q-0.2276-1.6047 0.51055-2.628 0.74392-1.0241 2.3429-1.2509 1.5816-0.22432 2.633 0.50396 1.0522 0.73406 1.2519 2.1425 0.18503 1.3046-0.47706 2.1169-0.66126 0.81809-2.064 1.017zm0.68141-1.1743q0.85351-0.12694 1.2605-0.62042 0.40781-0.4877 0.285-1.3536-0.12363-0.87164-0.71106-1.3183-0.58662-0.44089-1.3584-0.40209z"/>
  </g>
  <circle transform="scale(-1,1)" cx="-113.56" cy="122.56" r=".76963" fill="none" stroke="#000" stroke-width=".0040276"/>
 </g>
</svg>
