<?xml version="1.0" encoding="UTF-8" standalone="no"?>
<!-- Created with Inkscape (http://www.inkscape.org/) -->

<svg
   width="78.634003mm"
   height="77.4785mm"
   viewBox="0 0 78.634004 77.478499"
   version="1.1"
   id="svg5"
   sodipodi:docname="project1-contactCardsCURVE-BETA.svg"
   inkscape:version="1.1.2 (b8e25be8, 2022-02-05)"
   xmlns:inkscape="http://www.inkscape.org/namespaces/inkscape"
   xmlns:sodipodi="http://sodipodi.sourceforge.net/DTD/sodipodi-0.dtd"
   xmlns="http://www.w3.org/2000/svg"
   xmlns:svg="http://www.w3.org/2000/svg">
  <sodipodi:namedview
     id="namedview7"
     pagecolor="#ffffff"
     bordercolor="#111111"
     borderopacity="1"
     inkscape:pageshadow="0"
     inkscape:pageopacity="0"
     inkscape:pagecheckerboard="1"
     inkscape:document-units="mm"
     showgrid="false"
     showguides="true"
     inkscape:guide-bbox="true"
     inkscape:zoom="1.2184136"
     inkscape:cx="239.24552"
     inkscape:cy="173.58637"
     inkscape:window-width="1312"
     inkscape:window-height="781"
     inkscape:window-x="0"
     inkscape:window-y="25"
     inkscape:window-maximized="0"
     inkscape:current-layer="layer1">
    <sodipodi:guide
       position="1167.8557,-209.01361"
       orientation="1,0"
       id="guide6180" />
    <sodipodi:guide
       position="1461.1567,-239.43001"
       orientation="1,0"
       id="guide6182" />
    <inkscape:grid
       type="xygrid"
       id="grid6184"
       originx="3424.5938"
       originy="3606.6676" />
    <sodipodi:guide
       position="18.141802,40.436413"
       orientation="1,0"
       id="guide6732" />
    <sodipodi:guide
       position="60.806803,38.826413"
       orientation="1,0"
       id="guide6734" />
  </sodipodi:namedview>
  <defs
     id="defs2">
    <rect
       x="-2080"
       y="-3860"
       width="433.61374"
       height="134.07614"
       id="rect57365" />
  </defs>
  <g
     inkscape:label="Layer 1"
     inkscape:groupmode="layer"
     id="layer1"
     transform="translate(1922.2911,1311.4163)">
    <circle
       style="fill:none;stroke:#000000;stroke-width:0.00116562;stroke-miterlimit:4;stroke-dasharray:none"
       id="circle950"
       cx="116.3278"
       cy="-1014.821"
       r="0.21086393" />
    <text
       xml:space="preserve"
       style="font-weight:bold;font-size:10px;line-height:1.25;font-family:'Space Grotesk';-inkscape-font-specification:'Space Grotesk Bold';stroke-width:0.264583"
       id="text1042"
       x="-38.892334"
       y="-1126.825"><tspan
         id="tspan1040"
         style="stroke-width:0.264583">EMAIL ME                                                                      EMAIL ME</tspan></text>
    <g
       aria-label="EMAIL ME                                                                      EMAIL ME"
       id="text2343"
       style="font-weight:bold;font-size:10px;line-height:1.25;font-family:'Space Grotesk';-inkscape-font-specification:'Space Grotesk Bold';stroke-width:0.264583">
      <path
         d="m 179.31379,-1014.1596 6.99342,0.3035 -0.19509,4.4958 -1.19888,-0.052 0.13787,-3.177 -1.66843,-0.072 -0.12573,2.8973 -1.19887,-0.052 0.12573,-2.8973 -1.72837,-0.075 -0.14047,3.2369 -1.19887,-0.052 z"
         id="path2771" />
      <path
         d="m 179.09212,-1008.6083 6.91384,1.095 -0.38322,2.4198 -6.21418,0.241 -0.0281,0.1778 5.83565,2.1492 -0.38322,2.4198 -6.91384,-1.0949 0.20021,-1.2642 5.95578,0.9432 0.0282,-0.1778 -5.76808,-2.1284 0.34099,-2.1532 6.14347,-0.242 0.0282,-0.1778 -5.95578,-0.9432 z"
         id="path2773" />
      <path
         d="m 177.69043,-1000.3747 6.22543,3.69181 -0.6317,2.21155 -7.23617,-0.15335 0.37353,-1.3077 1.58515,0.0576 0.68664,-2.40386 -1.37641,-0.78835 z m 2.09081,2.7292 -0.51635,1.8077 3.51232,0.11926 0.0494,-0.17307 z"
         id="path2775" />
      <path
         d="m 175.70602,-993.84306 6.57526,2.40124 -0.45281,1.23991 -6.57526,-2.40124 z"
         id="path2777" />
      <path
         d="m 174.79901,-991.36601 6.41343,2.80498 -0.52894,1.20939 -5.31398,-2.32413 -1.28228,2.93186 -1.09944,-0.48085 z"
         id="path2779" />
      <path
         d="m 171.57907,-984.38921 5.9162,3.74147 -1.30951,2.07067 -5.80229,-2.23776 -0.0962,0.15213 4.5088,4.28307 -1.30951,2.07067 -5.9162,-3.74146 0.68415,-1.08182 5.09639,3.223 0.0962,-0.15213 -4.45499,-4.23721 1.1652,-1.84247 5.73777,2.2088 0.0962,-0.15213 -5.09638,-3.22301 z"
         id="path2781" />
      <path
         d="m 166.71859,-977.01988 5.45279,4.38943 -2.82177,3.50536 -0.93476,-0.75247 1.99405,-2.47713 -1.30088,-1.04719 -1.81848,2.25902 -0.93476,-0.75247 1.81847,-2.25902 -1.34762,-1.08481 -2.03167,2.52386 -0.93477,-0.75247 z"
         id="path2783" />
      <path
         d="m 58.618476,-1040.1067 -6.311618,-3.0271 1.946009,-4.0575 1.081991,0.519 -1.375179,2.8672 1.505772,0.7222 1.254094,-2.6148 1.081992,0.5189 -1.254095,2.6148 1.559871,0.7482 1.401127,-2.9214 1.081991,0.5189 z"
         id="path2785" />
      <path
         d="m 61.00542,-1045.1236 -5.924925,-3.7276 1.304672,-2.0737 5.807498,2.2242 0.09585,-0.1524 -4.518801,-4.2725 1.304672,-2.0737 5.924926,3.7276 -0.681625,1.0834 -5.1039,-3.2111 -0.09585,0.1524 4.464876,4.2268 -1.160892,1.8452 -5.742923,-2.1954 -0.09585,0.1523 5.1039,3.2111 z"
         id="path2787" />
      <path
         d="m 65.534833,-1052.1409 -4.275676,-5.8398 1.449395,-1.7859 6.594707,2.9825 -0.857033,1.056 -1.435208,-0.6754 -1.575429,1.9411 0.956277,1.2656 z m -0.851167,-3.331 1.184723,-1.4597 -3.183361,-1.4889 -0.113431,0.1398 z"
         id="path2789" />
      <path
         d="m 69.923616,-1057.3695 -5.108726,-4.7855 0.902407,-0.9633 5.108725,4.7854 z"
         id="path2791" />
      <path
         d="m 71.728571,-1059.2932 -4.805665,-5.0897 0.959782,-0.9063 3.981837,4.2173 2.326744,-2.1969 0.823828,0.8725 z"
         id="path2793" />
      <path
         d="m 77.418707,-1064.4571 -3.987855,-5.753 2.01355,-1.3957 4.469578,4.324 0.147935,-0.1025 -2.480684,-5.7027 2.013549,-1.3958 3.987856,5.753 -1.051977,0.7293 -3.435253,-4.9558 -0.147934,0.1025 2.449024,5.6394 -1.791649,1.242 -4.421481,-4.2722 -0.147934,0.1025 3.435253,4.9558 z"
         id="path2795" />
      <path
         d="m 84.768673,-1069.3468 -3.306622,-6.1698 3.966291,-2.1257 0.566849,1.0577 -2.802845,1.5022 0.788866,1.4719 2.556053,-1.3699 0.56685,1.0577 -2.556054,1.3699 0.817208,1.5248 2.855729,-1.5305 0.56685,1.0577 z"
         id="path2797" />
    </g>
    <path
       id="circle2487"
       style="fill:none;stroke:#000000;stroke-width:1.39394;stroke-miterlimit:4;stroke-dasharray:none"
       d="m 614.64844,-3654.084 -411.94141,-267.2812 a 252.16858,252.16858 0 0 0 -15.21094,85.8222 252.16858,252.16858 0 0 0 252.16797,252.168 252.16858,252.16858 0 0 0 174.98438,-70.709 z"
       transform="scale(0.26458333)" />
    <path
       id="path2636"
       style="fill:none;stroke:#000000;stroke-width:1.39394;stroke-miterlimit:4;stroke-dasharray:none"
       d="m 439.66406,-4087.7129 a 252.16858,252.16858 0 0 0 -98.38086,20.0996 l 350.38086,223.1192 a 252.16858,252.16858 0 0 0 -252,-243.2188 z"
       transform="scale(0.26458333)" />
    <circle
       style="fill:none;stroke:#000000;stroke-width:0.413043;stroke-miterlimit:4;stroke-dasharray:none"
       id="circle2489"
       cx="116.3278"
       cy="-1014.821"
       r="74.720779" />
    <circle
       style="fill:none;stroke:#000000;stroke-width:0.00138105;stroke-miterlimit:4;stroke-dasharray:none"
       id="circle5765"
       cx="-621.64172"
       cy="1020.543"
       r="0.490879"
       transform="scale(1,-1)" />
    <g
       aria-label="              ETC. ME                                                                                                          ETC.ME  "
       transform="rotate(96.457303,-621.51862,-1020.796)"
       id="text6740"
       style="font-weight:bold;font-size:12px;line-height:1.25;font-family:'Space Grotesk';-inkscape-font-specification:'Space Grotesk Bold';stroke-width:0.264583"
       inkscape:transform-center-x="10.800038"
       inkscape:transform-center-y="0.52339501">
      <path
         d="m -505.44278,-977.96766 7.82561,3.05284 -1.96254,5.03075 -1.34153,-0.52335 1.38686,-3.55506 -1.86697,-0.72832 -1.26474,3.24204 -1.34154,-0.52335 1.26475,-3.24203 -1.93404,-0.75449 -1.41303,3.62214 -1.34153,-0.52335 z"
         id="path62037" />
      <path
         d="m -508.70541,-970.01158 6.33686,2.87851 1.01244,-2.22883 1.31108,0.59556 -2.68,5.89983 -1.31107,-0.59555 1.01244,-2.22883 -6.33686,-2.87851 z"
         id="path62039" />
      <path
         d="m -512.34982,-962.92392 q 0.72739,-1.38004 1.91696,-1.78397 1.20018,-0.39834 2.6333,0.35702 l 1.78344,0.94001 q 1.43311,0.75537 1.7722,1.96502 0.34971,1.21525 -0.37768,2.59529 -0.72179,1.36942 -1.86718,1.71525 -1.14036,0.36205 -2.44609,-0.32617 l -0.0637,-0.0336 0.72738,-1.38004 0.10616,0.056 q 0.65817,0.34691 1.27864,0.19917 0.61486,-0.13712 1.01213,-0.89084 0.39167,-0.7431 0.15901,-1.40832 -0.23267,-0.66523 -1.01823,-1.07928 l -1.8259,-0.96239 q -0.77494,-0.40845 -1.46584,-0.23002 -0.68029,0.18403 -1.07196,0.92713 -0.39726,0.75372 -0.16288,1.33846 0.23941,0.60096 0.88697,0.94227 l 0.19108,0.10071 -0.72739,1.38004 -0.14862,-0.0783 q -1.30573,-0.68822 -1.66217,-1.8392 -0.35143,-1.13477 0.37036,-2.50419 z"
         id="path62041" />
      <path
         d="m -515.04832,-958.08262 q 0.24851,-0.42462 0.6875,-0.55702 0.44329,-0.11598 0.87827,0.13859 0.43498,0.25457 0.5406,0.6918 0.10992,0.45364 -0.13859,0.87826 -0.24245,0.41427 -0.68573,0.53025 -0.43293,0.12204 -0.86791,-0.13253 -0.43498,-0.25457 -0.55096,-0.69786 -0.10563,-0.43722 0.13682,-0.85149 z"
         id="path62043" />
      <path
         d="m -517.74386,-953.26909 5.93058,6.18148 -0.85772,1.23058 -7.06607,-3.75492 -0.0823,0.11813 4.15668,7.92903 -0.85772,1.23058 -5.93058,-6.18148 0.42543,-0.61036 5.61138,5.84197 0.0823,-0.11814 -4.15668,-7.92902 0.78224,-1.12229 7.06607,3.75492 0.0823,-0.11814 -5.61138,-5.84197 z"
         style="font-style:italic;font-weight:300;-inkscape-font-specification:'Space Grotesk Light'"
         id="path62045" />
      <path
         d="m -523.73433,-944.90414 5.4915,6.57464 -3.182,3.95483 -0.452,-0.54849 2.70056,-3.35647 -2.0584,-2.45705 -2.48993,3.09468 -0.452,-0.5485 2.48993,-3.09467 -2.0771,-2.4721 -2.73064,3.39386 -0.452,-0.54849 z"
         style="font-style:italic;font-weight:300;-inkscape-font-specification:'Space Grotesk Light'"
         id="path62047" />
      <path
         d="m -743.36027,-1042.824 -8.23171,-1.673 1.07548,-5.2918 1.41115,0.2868 -0.76001,3.7396 1.96385,0.3991 0.69309,-3.4103 1.41116,0.2868 -0.69309,3.4103 2.03441,0.4135 0.77434,-3.8102 1.41116,0.2868 z"
         id="path62049" />
      <path
         d="m -741.50291,-1051.2203 -6.73502,-1.7553 -0.61739,2.3688 -1.39345,-0.3631 1.63426,-6.2706 1.39345,0.3632 -0.61738,2.3689 6.73501,1.7553 z"
         id="path62051" />
      <path
         d="m -739.12045,-1058.8254 q -0.48163,1.4838 -1.58499,2.0845 -1.11477,0.597 -2.65563,0.097 l -1.91752,-0.6224 q -1.54085,-0.5001 -2.08108,-1.6343 -0.55163,-1.1379 -0.07,-2.6217 0.47793,-1.4724 1.54764,-2.0083 1.06201,-0.5511 2.4659,-0.095 l 0.0685,0.022 -0.48163,1.4838 -0.11414,-0.037 q -0.70766,-0.2297 -1.29388,0.022 -0.58251,0.2399 -0.84556,1.0502 -0.25934,0.799 0.0833,1.4149 0.3426,0.6158 1.18722,0.89 l 1.96317,0.6372 q 0.8332,0.2705 1.4836,-0.023 0.63899,-0.2972 0.89833,-1.0962 0.26304,-0.8103 -0.0675,-1.3466 -0.3383,-0.5514 -1.03454,-0.7774 l -0.20545,-0.067 0.48163,-1.4838 0.1598,0.052 q 1.40389,0.4557 1.95122,1.5291 0.53963,1.0583 0.0617,2.5307 z"
         id="path62053" />
      <path
         d="m -737.28556,-1064.0553 q -0.1733,0.4605 -0.58366,0.6651 -0.41737,0.1891 -0.88906,0.012 -0.4717,-0.1775 -0.64957,-0.5906 -0.18488,-0.4286 -0.0116,-0.8891 0.16908,-0.4492 0.58645,-0.6383 0.40613,-0.1934 0.87783,-0.016 0.47169,0.1775 0.66079,0.5949 0.17788,0.4131 0.009,0.8623 z"
         id="path62055" />
      <path
         d="m -736.48296,-1066.7672 -7.00261,-4.9341 0.60674,-1.3718 7.65343,2.3353 0.0583,-0.1317 -5.59538,-6.9885 0.60673,-1.3718 7.00261,4.9341 -0.30094,0.6804 -6.62441,-4.6619 -0.0582,0.1317 5.59538,6.9885 -0.55334,1.2511 -7.65344,-2.3353 -0.0582,0.1317 6.62441,4.6619 z"
         style="font-style:italic;font-weight:300;-inkscape-font-specification:'Space Grotesk Light'"
         id="path62057" />
      <path
         d="m -732.20059,-1076.1222 -6.64378,-5.4076 2.37001,-4.4888 0.54825,0.4523 -2.01143,3.8096 2.48891,2.0198 1.85455,-3.5125 0.54824,0.4523 -1.85454,3.5125 2.51013,2.0309 2.03384,-3.852 0.54824,0.4523 z"
         style="font-style:italic;font-weight:300;-inkscape-font-specification:'Space Grotesk Light'"
         id="path62059" />
    </g>
    <path
       style="fill:none;stroke:#000000;stroke-width:0.357;stroke-miterlimit:4;stroke-dasharray:none"
       d="m -887.13243,-1085.6062 c -70.12649,-10e-5 -126.97527,56.8487 -126.97517,126.97521 0.016,17.28223 3.5597,34.3793 10.4142,50.24408 l 119.91664,-52.64603 112.55829,-49.41556 c -20.43647,-45.7185 -65.83572,-75.155 -115.91396,-75.1577 z"
       id="path6369-7"
       sodipodi:nodetypes="cccccc" />
    <path
       style="fill:none;stroke:#000000;stroke-width:0.264583px;stroke-linecap:butt;stroke-linejoin:miter;stroke-opacity:1"
       d="m -1003.6934,-908.38691 c -16.1185,-33.92975 -12.6431,-76.43208 4.92812,-110.95769 25.07768,-45.3425 74.87526,-71.0151 124.6982,-65.5297 24.58466,2.4508 45.27385,11.5911 65.2798,25.8661 16.45693,12.5574 31.87552,33.8658 37.56881,48.5561"
       id="path19004"
       sodipodi:nodetypes="ccccc" />
    <path
       style="fill:none;stroke:#000000;stroke-width:0.264583px;stroke-linecap:butt;stroke-linejoin:miter;stroke-opacity:1"
       d="m -719.64152,-939.91089 c -30.42779,-38.27819 -35.5843,-81.22021 -21.4021,-123.02241 6.17029,-18.187 16.24136,-34.5226 29.76986,-47.9406 16.04872,-15.9175 36.96302,-27.7293 62.00296,-33.6552 18.91037,-4.3146 35.17121,-3.6677 52.77124,-0.529"
       id="path19909"
       sodipodi:nodetypes="csscc"
       inkscape:transform-center-x="50.891218"
       inkscape:transform-center-y="-23.209054" />
    <path
       style="fill:none;stroke:#000000;stroke-width:0.264583px;stroke-linecap:butt;stroke-linejoin:miter;stroke-opacity:1"
       d="m -669.82585,-902.70044 c 37.47985,13.86679 80.75249,11.67395 114.21995,-9.31402 39.11621,-24.23488 63.12541,-67.36897 60.79534,-116.02464 -3.24563,-37.7478 -18.81396,-66.5098 -46.41225,-90.4727"
       id="path21954"
       sodipodi:nodetypes="cccc"
       inkscape:transform-center-x="-39.402699"
       inkscape:transform-center-y="14.320947" />
    <text
       xml:space="preserve"
       transform="scale(0.26458333)"
       id="text57363"
       style="font-weight:bold;font-size:37.7953px;line-height:1.25;font-family:'Space Grotesk';-inkscape-font-specification:'Space Grotesk Bold';white-space:pre;shape-inside:url(#rect57365)" />
    <circle
       style="fill:none;stroke:#000000;stroke-width:0.357;stroke-opacity:1"
       id="path906"
       cx="-1892.5879"
       cy="-1137.944"
       r="381.29449" />
    <circle
       style="fill:none;stroke:#000000;stroke-width:0.000880853;stroke-opacity:1"
       id="circle1152"
       cx="-1882.9731"
       cy="-1272.8687"
       r="0.079644918" />
    <g
       aria-label="EMAIL ME                     EMAIL ME"
       id="text1390"
       style="font-weight:bold;font-size:10px;line-height:1.25;font-family:'Space Grotesk';-inkscape-font-specification:'Space Grotesk Bold';stroke-width:0.264583">
      <path
         d="m -1850.6318,-1272.2042 6.9747,0.5941 -0.3819,4.4837 -1.1956,-0.1018 0.2698,-3.1685 -1.6639,-0.1418 -0.2462,2.8896 -1.1956,-0.1019 0.2461,-2.8895 -1.7238,-0.1468 -0.2749,3.2283 -1.1957,-0.1018 z"
         id="path8004" />
      <path
         d="m -1851.071,-1266.6405 6.67,2.124 -0.7435,2.3345 -6.1795,-0.698 -0.055,0.1715 5.4452,3.0039 -0.7434,2.3345 -6.67,-2.124 0.3884,-1.2197 5.7457,1.8297 0.055,-0.1715 -5.3815,-2.9731 0.6615,-2.0772 6.1098,0.6863 0.055,-0.1715 -5.7457,-1.8298 z"
         id="path8006" />
      <path
         d="m -1853.7917,-1258.7325 5.0348,5.1996 -1.1912,1.9674 -6.9409,-2.0516 0.7044,-1.1634 1.5141,0.4726 1.2949,-2.1385 -1.1205,-1.1227 z m 1.2991,3.1831 -0.9737,1.6082 3.3572,1.0391 0.093,-0.154 z"
         id="path8008" />
      <path
         d="m -1857.5128,-1253.0132 5.4284,4.4196 -0.8334,1.0236 -5.4284,-4.4196 z"
         id="path8010" />
      <path
         d="m -1859.1838,-1250.9679 4.8617,5.0363 -0.9497,0.9168 -4.0283,-4.1729 -2.3023,2.2224 -0.8334,-0.8633 z"
         id="path8012" />
      <path
         d="m -1865.1165,-1245.7558 1.9724,6.8607 -1.1103,0.5743 -3.7519,-5.5125 -0.1066,0.055 -0.014,7.4604 -1.1103,0.5743 -1.9724,-6.8608 0.5507,-0.2848 1.8689,6.4864 0.1066,-0.055 0.014,-7.4604 1.0126,-0.5237 3.7519,5.5124 0.1066,-0.055 -1.8689,-6.4864 z"
         style="font-style:italic;font-weight:300;-inkscape-font-specification:'Space Grotesk Light'"
         id="path8014" />
      <path
         d="m -1872.8852,-1242.1334 0.4145,7.1266 -4.0926,1.069 -0.031,-0.5915 3.4734,-0.9072 -0.159,-2.6664 -3.2025,0.8365 -0.031,-0.5915 3.2025,-0.8365 -0.164,-2.6857 -3.5122,0.9174 -0.03,-0.5915 z"
         style="font-style:italic;font-weight:300;-inkscape-font-specification:'Space Grotesk Light'"
         id="path8016" />
      <path
         d="m -1915.293,-1271.523 -6.9981,-0.1642 0.1056,-4.4987 1.1997,0.028 -0.075,3.1791 1.6695,0.039 0.068,-2.8992 1.1997,0.028 -0.068,2.8992 1.7295,0.041 0.076,-3.2391 1.1997,0.028 z"
         id="path8018" />
      <path
         d="m -1915.1981,-1277.1029 -6.7896,-1.7031 0.596,-2.3764 6.2111,0.3105 0.044,-0.1746 -5.6223,-2.6577 0.596,-2.3764 6.7897,1.703 -0.3114,1.2416 -5.8488,-1.4671 -0.044,0.1746 5.5569,2.631 -0.5304,2.1145 -6.1408,-0.3031 -0.044,0.1746 5.8488,1.467 z"
         id="path8020" />
      <path
         d="m -1912.9774,-1285.1661 -5.3486,-4.8763 1.0666,-2.0377 7.0551,1.6159 -0.6307,1.2049 -1.5406,-0.3775 -1.1594,2.215 1.1882,1.0508 z m -1.4947,-3.0961 0.8718,-1.6657 -3.4153,-0.8282 -0.083,0.1595 z"
         id="path8022" />
      <path
         d="m -1909.6189,-1291.1053 -5.6914,-4.0753 0.7684,-1.0733 5.6914,4.0753 z"
         id="path8024" />
      <path
         d="m -1908.0842,-1293.2561 -5.142,-4.7497 0.8957,-0.9696 4.2605,3.9355 2.1713,-2.3507 0.8815,0.8143 z"
         id="path8026" />
      <path
         d="m -1902.2102,-1299.0179 -2.3261,-6.749 1.0789,-0.6311 4.0332,5.3101 0.1036,-0.061 -0.3734,-7.4511 1.0789,-0.6311 2.3262,6.749 -0.5352,0.313 -2.2033,-6.3806 -0.1036,0.061 0.3734,7.4511 -0.984,0.5756 -4.0332,-5.3101 -0.1036,0.061 2.2034,6.3806 z"
         style="font-style:italic;font-weight:300;-inkscape-font-specification:'Space Grotesk Light'"
         id="path8028" />
      <path
         d="m -1894.6406,-1303.0398 -0.7861,-7.0952 4.0313,-1.2813 0.061,0.5891 -3.4213,1.0874 0.298,2.6545 3.1545,-1.0026 0.061,0.5891 -3.1545,1.0026 0.3041,2.6734 3.4595,-1.0995 0.061,0.5891 z"
         style="font-style:italic;font-weight:300;-inkscape-font-specification:'Space Grotesk Light'"
         id="path8030" />
    </g>
    <path
       id="circle6672"
       style="fill:none;stroke:#000000;stroke-width:0.394832;stroke-opacity:1"
       d="m -1802.409,-1296.6248 a 35.699832,35.699832 0 0 0 -35.6996,35.6997 35.699832,35.699832 0 0 0 35.6996,35.6996 35.699832,35.699832 0 0 0 35.6996,-35.6996 35.699832,35.699832 0 0 0 -35.6996,-35.6997 z m 21.3326,8.7726 -42.6652,53.8541 z" />
    <path
       style="fill:none;stroke:#000000;stroke-width:0.264583px;stroke-linecap:butt;stroke-linejoin:miter;stroke-opacity:1"
       d="m -1888.1111,-1307.9803 c 13.1934,-2.2535 26.998,4.3501 34.5466,15.1942 3.6617,5.308 5.9703,11.5965 6.4954,18.0303"
       id="path7017" />
    <path
       style="fill:none;stroke:#000000;stroke-width:0.264583px;stroke-linecap:butt;stroke-linejoin:miter;stroke-opacity:1"
       d="m -1879.8593,-1237.4053 c -16.3152,1.5322 -32.8912,-9.5788 -37.6564,-25.2606 -0.6504,-2.166 -1.062,-4.4043 -1.2141,-6.661"
       id="path7474" />
  </g>
</svg>
