<?xml version="1.0" encoding="UTF-8" standalone="no"?>
<!-- Created with Inkscape (http://www.inkscape.org/) -->

<svg
   width="124.44417mm"
   height="124.17542mm"
   version="1.1"
   viewBox="0 0 124.44417 124.17542"
   id="svg200"
   sodipodi:docname="project1-FEexcitesMe.svg"
   inkscape:version="1.1.2 (b8e25be8, 2022-02-05)"
   xmlns:inkscape="http://www.inkscape.org/namespaces/inkscape"
   xmlns:sodipodi="http://sodipodi.sourceforge.net/DTD/sodipodi-0.dtd"
   xmlns:xlink="http://www.w3.org/1999/xlink"
   xmlns="http://www.w3.org/2000/svg"
   xmlns:svg="http://www.w3.org/2000/svg">
  <defs
     id="defs204" />
  <sodipodi:namedview
     id="namedview202"
     pagecolor="#ffffff"
     bordercolor="#111111"
     borderopacity="1"
     inkscape:pageshadow="0"
     inkscape:pageopacity="0"
     inkscape:pagecheckerboard="1"
     inkscape:document-units="mm"
     showgrid="false"
     fit-margin-top="0"
     fit-margin-left="0"
     fit-margin-right="0"
     fit-margin-bottom="0"
     inkscape:showpageshadow="false"
     showborder="false"
     inkscape:zoom="0.92937423"
     inkscape:cx="550.37033"
     inkscape:cy="270.6122"
     inkscape:window-width="1296"
     inkscape:window-height="781"
     inkscape:window-x="0"
     inkscape:window-y="25"
     inkscape:window-maximized="0"
     inkscape:current-layer="text3698" />
  <g
     transform="translate(-1076.5615,-9.781718)"
     id="g198">
    <ellipse
       cx="111.71"
       cy="120.71"
       rx="73.587997"
       ry="72"
       fill="none"
       stroke-width="0.26458"
       id="ellipse120" />
    <g
       transform="translate(-33.719,-4.9813)"
       stroke-width="0.26458"
       aria-label="DESIGN makes me smile DESIGN makes me smile "
       id="g194">
      <g
         aria-label="FRONT-END excites me FRONT-END excites me FRONT-END excites me FRONT-END excites me"
         id="text3698"
         style="font-weight:bold;font-size:7.673px;line-height:1.25;font-family:'Space Grotesk';-inkscape-font-specification:'Space Grotesk Bold';stroke-width:0.0700035">
        <path
           d="m 405.20038,135.32875 0.10065,-2.56444 -1.03701,-0.0407 -0.0933,2.37725 -1.07818,-0.0423 0.0933,-2.37725 -2.381,-0.0934 0.0561,-1.43009 5.57437,0.21878 -0.15677,3.99452 z"
           style="font-family:sans-serif;-inkscape-font-specification:'sans-serif Bold'"
           id="path16690" />
        <path
           d="m 404.07051,139.73632 q 0.20813,0.0265 0.36767,-0.0401 0.15954,-0.0666 0.2715,-0.26383 0.0779,-0.13739 0.11363,-0.32923 0.0395,-0.19138 0.0721,-0.44782 l 0.0657,-0.51662 -1.49037,-0.18958 -0.0558,0.43857 q -0.0435,0.34193 -0.0394,0.57661 0.004,0.23469 0.10321,0.40592 0.0963,0.16332 0.22531,0.24771 0.13225,0.0886 0.3664,0.11836 z m -4.12247,1.73789 0.22173,-1.7431 2.22122,-1.25082 0.0837,-0.65784 -2.02929,-0.25814 0.1806,-1.41975 5.53407,0.70396 -0.30447,2.39351 q -0.0624,0.4906 -0.16307,0.83659 -0.10066,0.34599 -0.32573,0.63083 -0.22555,0.28856 -0.54604,0.43285 -0.31726,0.14848 -0.76325,0.0917 -0.61325,-0.078 -0.96337,-0.41336 -0.3506,-0.33163 -0.53991,-0.89201 z"
           style="font-family:sans-serif;-inkscape-font-specification:'sans-serif Bold'"
           id="path16692" />
        <path
           d="m 401.30488,148.01417 q -1.29958,-0.30011 -1.89422,-1.22184 -0.59098,-0.92089 -0.2875,-2.23508 0.30263,-1.31053 1.23756,-1.87905 0.93858,-0.56768 2.23816,-0.26757 1.31053,0.30264 1.89787,1.22268 0.59098,0.92089 0.28835,2.23143 -0.30179,1.30688 -1.23756,1.87905 -0.93212,0.57301 -2.24266,0.27038 z m -0.94716,-2.17592 q 0.20103,0.26175 0.51412,0.43787 0.31673,0.17696 0.77305,0.28233 0.48917,0.11297 0.85845,0.079 0.36928,-0.0339 0.62316,-0.16755 0.26202,-0.1356 0.41707,-0.35742 0.1542,-0.21818 0.21489,-0.48101 0.0615,-0.26649 0.0214,-0.52569 -0.041,-0.25555 -0.21447,-0.50326 -0.16228,-0.22973 -0.4967,-0.43001 -0.33162,-0.19578 -0.80619,-0.30537 -0.48551,-0.11211 -0.85395,-0.0818 -0.36563,0.0348 -0.62316,0.16756 -0.25753,0.13279 -0.41623,0.35377 -0.15869,0.22098 -0.22107,0.49111 -0.0624,0.27014 -0.0166,0.53833 0.0494,0.26903 0.22626,0.50214 z"
           style="font-family:sans-serif;-inkscape-font-specification:'sans-serif Bold'"
           id="path16694" />
        <path
           d="m 396.61682,153.23442 0.4515,-1.31064 4.39144,-0.99159 -3.62021,-1.24714 0.42954,-1.24688 5.27446,1.81701 -0.56012,1.62591 -3.68418,0.88255 3.02157,1.04091 -0.42955,1.24688 z"
           style="font-family:sans-serif;-inkscape-font-specification:'sans-serif Bold'"
           id="path16696" />
        <path
           d="m 398.3517,160.38992 0.72012,-1.58636 -4.09725,-1.85993 0.59469,-1.31003 4.09725,1.85993 0.72012,-1.58636 0.98252,0.44601 -2.03493,4.48275 z"
           style="font-family:sans-serif;-inkscape-font-specification:'sans-serif Bold'"
           id="path16698" />
        <path
           d="m 394.30933,162.45968 1.36459,-2.51191 0.94814,0.51507 -1.36458,2.51192 z"
           style="font-family:sans-serif;-inkscape-font-specification:'sans-serif Bold'"
           id="path16700" />
        <path
           d="m 389.8706,165.91334 2.17418,-3.39922 4.69958,3.0059 -2.17418,3.39923 -0.90899,-0.5814 1.40303,-2.19356 -0.81115,-0.51881 -1.30208,2.03574 -0.90899,-0.58139 1.30209,-2.03575 -1.16148,-0.7429 -1.40302,2.19356 z"
           style="font-family:sans-serif;-inkscape-font-specification:'sans-serif Bold'"
           id="path16702" />
        <path
           d="m 386.06468,170.91404 0.85281,-1.09287 4.47538,0.48887 -3.01868,-2.35561 0.81132,-1.0397 4.39806,3.432 -1.05795,1.35574 -3.77106,-0.36222 2.5195,1.96608 -0.81133,1.0397 z"
           style="font-family:sans-serif;-inkscape-font-specification:'sans-serif Bold'"
           id="path16704" />
        <path
           d="m 383.48064,177.72726 q -0.5622,-0.53964 -0.76171,-1.2245 -0.1968,-0.68227 -0.0585,-1.3025 0.1044,-0.46585 0.3714,-0.88468 0.26701,-0.41884 0.72882,-0.89996 l 1.36209,-1.41902 4.02462,3.86314 -1.401,1.45957 q -0.47219,0.49193 -0.89845,0.76828 -0.42355,0.27895 -0.80842,0.37692 -0.65362,0.17237 -1.31439,-0.005 -0.66067,-0.17196 -1.2445,-0.73237 z m 1.03811,-1.06527 q 0.39733,0.38139 0.81853,0.50525 0.42131,0.12917 0.88174,-0.0313 0.23145,-0.0842 0.41934,-0.22586 0.18799,-0.13634 0.5097,-0.4715 l 0.25167,-0.26218 -2.51911,-2.41803 -0.25166,0.26218 q -0.35544,0.3703 -0.48905,0.57442 -0.13091,0.20671 -0.19998,0.4572 -0.11024,0.43948 0.0329,0.83136 0.14587,0.39449 0.5459,0.77846 z"
           style="font-family:sans-serif;-inkscape-font-specification:'sans-serif Bold'"
           id="path16706" />
        <path
           d="m 377.16204,182.06091 2.4051,-1.92953 q -0.24149,-0.30101 -0.51261,-0.45335 -0.26877,-0.14942 -0.54146,-0.16601 -0.2645,-0.0184 -0.52826,0.078 -0.26667,0.0987 -0.518,0.30029 -0.33314,0.26728 -0.56371,0.6684 -0.23115,0.40639 -0.27118,0.64986 l -0.0292,0.0234 -0.48062,-0.59908 q 0.18384,-0.33962 0.40985,-0.65063 0.22601,-0.31101 0.54455,-0.56656 0.81242,-0.65178 1.61998,-0.57917 0.80991,0.0755 1.45934,0.88503 0.64239,0.80072 0.58443,1.62055 -0.0609,0.82218 -0.77395,1.39424 -0.66045,0.52986 -1.32645,0.43014 -0.66893,-0.0974 -1.23864,-0.80751 z m 0.8724,-0.008 q 0.34991,0.43017 0.75607,0.49338 0.40324,0.0656 0.84159,-0.28611 0.44127,-0.35402 0.49562,-0.82512 0.0514,-0.46875 -0.22297,-0.88263 z"
           style="font-weight:normal;font-family:sans-serif;-inkscape-font-specification:sans-serif"
           id="path16708" />
        <path
           d="m 372.05083,183.17087 0.73104,-0.504 1.89011,0.64915 0.0717,-2.00165 0.67552,-0.46572 -0.16037,2.64529 2.52342,0.80868 -0.73105,0.504 -1.86905,-0.63182 -0.0773,1.97368 -0.6786,0.46785 0.18451,-2.63008 z"
           style="font-weight:normal;font-family:sans-serif;-inkscape-font-specification:sans-serif"
           id="path16710" />
        <path
           d="m 368.73552,185.44979 q 0.21688,-0.32469 0.44298,-0.56772 0.22289,-0.24112 0.529,-0.42272 0.3899,-0.23129 0.78225,-0.31157 0.39426,-0.0771 0.7639,0.0173 0.37285,0.0925 0.71201,0.37045 0.33915,0.27799 0.62014,0.75167 0.52375,0.8829 0.33861,1.6723 -0.18837,0.79131 -0.98428,1.26345 -0.30933,0.1835 -0.65739,0.27236 -0.35129,0.0908 -0.67395,0.11228 l -0.3995,-0.67345 0.0322,-0.0191 q 0.40519,0.0515 0.77045,-0.008 0.36204,-0.0579 0.64238,-0.22424 0.51556,-0.30584 0.60879,-0.83162 0.0919,-0.52064 -0.30567,-1.19087 -0.38612,-0.6509 -0.88448,-0.83009 -0.49967,-0.17406 -1.02812,0.13942 -0.18367,0.10896 -0.34511,0.27007 -0.16145,0.16111 -0.26702,0.32829 -0.092,0.14604 -0.16401,0.28896 -0.0701,0.14615 -0.10529,0.24107 l -0.0322,0.0191 z"
           style="font-weight:normal;font-family:sans-serif;-inkscape-font-specification:sans-serif"
           id="path16712" />
        <path
           d="m 369.40865,190.30998 0.70212,-0.37135 0.34157,0.64582 -0.70213,0.37135 z m -2.24439,-4.33973 0.62263,-0.32931 1.95658,3.69939 -0.62264,0.32931 z"
           style="font-weight:normal;font-family:sans-serif;-inkscape-font-specification:sans-serif"
           id="path16714" />
        <path
           d="m 363.97171,187.57817 q 0.15661,-0.13287 0.35511,-0.26496 0.19512,-0.13048 0.3608,-0.20955 0.57819,-0.27594 1.02758,-0.10848 0.44939,0.16746 0.77697,0.85386 l 0.95852,2.00846 0.42942,-0.20493 0.25497,0.53424 -0.42942,0.20493 0.51799,1.08539 -0.63568,0.30337 -0.51799,-1.08539 -1.31193,0.62611 -0.25496,-0.53424 1.31193,-0.6261 -0.82136,-1.72107 q -0.14201,-0.29755 -0.23622,-0.46016 -0.0926,-0.15922 -0.24313,-0.26589 -0.13893,-0.0998 -0.29808,-0.10267 -0.16092,0.002 -0.42804,0.12955 -0.15554,0.0742 -0.30362,0.19887 -0.14647,0.12802 -0.20634,0.19395 l -0.0338,0.0161 z"
           style="font-weight:normal;font-family:sans-serif;-inkscape-font-specification:sans-serif"
           id="path16716" />
        <path
           d="m 360.68538,191.08091 2.85861,-1.15581 q -0.14465,-0.35776 -0.36046,-0.58167 -0.21441,-0.22045 -0.47079,-0.31481 -0.24803,-0.0937 -0.52834,-0.0773 -0.28379,0.0178 -0.58251,0.13853 -0.39597,0.1601 -0.73221,0.47791 -0.33831,0.32268 -0.44672,0.54433 l -0.0347,0.014 -0.2879,-0.71205 q 0.2738,-0.27235 0.57975,-0.50517 0.30594,-0.23282 0.68455,-0.38589 0.9656,-0.39042 1.71811,-0.0885 0.75392,0.3054 1.14293,1.26753 0.3848,0.95172 0.0934,1.72019 -0.2949,0.76987 -1.14242,1.11254 -0.78499,0.3174 -1.39412,0.0302 -0.61261,-0.28575 -0.95387,-1.12979 z m 0.83786,0.24317 q 0.21133,0.51266 0.58211,0.69008 0.36732,0.17883 0.88833,-0.0318 0.52448,-0.21206 0.7121,-0.64759 0.18414,-0.43412 0.0405,-0.90946 z"
           style="font-weight:normal;font-family:sans-serif;-inkscape-font-specification:sans-serif"
           id="path16718" />
        <path
           d="m 356.44869,191.62942 q -0.17773,-0.54498 0.1608,-1.04157 0.33497,-0.49544 1.11504,-0.74983 0.44168,-0.14404 0.84581,-0.16155 0.40173,-0.0128 0.69172,0.0306 l 0.2451,0.75157 -0.0356,0.0116 q -0.39484,-0.13526 -0.82956,-0.15113 -0.43355,-0.0123 -0.78975,0.10387 -0.44168,0.14404 -0.64455,0.36783 -0.20287,0.22379 -0.10298,0.53012 0.0767,0.23509 0.25152,0.31205 0.17485,0.077 0.58742,0.037 0.15293,-0.0144 0.3984,-0.0472 0.2419,-0.0316 0.44695,-0.0433 0.56891,-0.0318 0.87687,0.16329 0.30556,0.19985 0.43334,0.59166 0.0802,0.24578 0.0513,0.49558 -0.0324,0.25097 -0.18328,0.48932 -0.14487,0.23246 -0.41984,0.42853 -0.27736,0.20079 -0.65849,0.32509 -0.3562,0.11616 -0.74856,0.14559 -0.39476,0.0342 -0.67763,-0.0115 l -0.23348,-0.71596 0.0356,-0.0116 q 0.31803,0.10514 0.72673,0.11373 0.40986,0.0121 0.76249,-0.10286 0.36688,-0.11964 0.57332,-0.3446 0.20759,-0.22139 0.11699,-0.49922 -0.0802,-0.24577 -0.27398,-0.32049 -0.19025,-0.0759 -0.55063,-0.0451 -0.19917,0.0177 -0.44107,0.0493 -0.24547,0.0328 -0.41025,0.0471 -0.50146,0.0453 -0.83916,-0.13224 -0.33886,-0.18111 -0.48057,-0.61567 z"
           style="font-weight:normal;font-family:sans-serif;-inkscape-font-specification:sans-serif"
           id="path16720" />
        <path
           d="m 346.48804,192.57192 0.69301,-0.12587 0.42583,2.34447 q 0.0482,0.26541 0.11887,0.5077 0.067,0.24297 0.17116,0.37636 0.11358,0.14311 0.28682,0.19541 0.17324,0.0523 0.47183,-0.002 0.29121,-0.0529 0.55565,-0.25324 0.2651,-0.19665 0.51547,-0.47441 -0.0265,-0.0828 -0.0546,-0.19571 -0.0275,-0.10925 -0.0476,-0.21984 l -0.47871,-2.63568 0.69302,-0.12587 0.42582,2.34446 q 0.0495,0.27279 0.11954,0.5114 0.067,0.24296 0.17117,0.37635 0.11357,0.14311 0.28614,0.19173 0.17324,0.0523 0.47183,-0.002 0.28384,-0.0516 0.54593,-0.24386 0.2584,-0.19163 0.50274,-0.46067 l -0.55839,-3.07435 0.69302,-0.12588 0.74787,4.11757 -0.69302,0.12587 -0.083,-0.4571 q -0.27551,0.32802 -0.56877,0.53741 -0.29694,0.21005 -0.66188,0.27634 -0.42023,0.0763 -0.74359,-0.0477 -0.32704,-0.12337 -0.52771,-0.4106 -0.35596,0.43021 -0.67435,0.64797 -0.31772,0.22145 -0.71215,0.29309 -0.67827,0.12319 -1.07397,-0.23142 -0.39871,-0.35026 -0.53261,-1.08751 z"
           style="font-weight:normal;font-family:sans-serif;-inkscape-font-specification:sans-serif"
           id="path16722" />
        <path
           d="m 341.80886,194.98407 3.07268,-0.25737 q -0.0322,-0.38455 -0.17203,-0.66234 -0.1395,-0.27405 -0.35643,-0.44011 -0.20916,-0.16294 -0.48174,-0.23034 -0.27632,-0.0671 -0.5974,-0.0402 -0.42562,0.0357 -0.8409,0.23962 -0.4187,0.20802 -0.58789,0.38762 l -0.0373,0.003 -0.0641,-0.76537 q 0.34218,-0.17905 0.70335,-0.31081 0.36117,-0.13176 0.76813,-0.16585 1.03791,-0.0869 1.66725,0.42431 0.62964,0.51497 0.71627,1.54915 0.0857,1.02299 -0.42026,1.67068 -0.50968,0.648 -1.42066,0.7243 -0.84377,0.0707 -1.34054,-0.384 -0.5005,-0.45435 -0.57649,-1.3616 z m 0.72827,0.48039 q 0.05,0.55225 0.35162,0.83152 0.29788,0.27959 0.85791,0.23268 0.56376,-0.0472 0.87194,-0.40765 0.30445,-0.36011 0.30797,-0.85669 z"
           style="font-weight:normal;font-family:sans-serif;-inkscape-font-specification:sans-serif"
           id="path16724" />
        <path
           d="m 333.7052,197.41673 2.5649,0.0879 0.0356,-1.0372 -2.37769,-0.0815 0.037,-1.07839 2.37768,0.0815 0.0816,-2.38143 1.43036,0.049 -0.19109,5.57538 -3.99525,-0.13692 z"
           id="path16726" />
        <path
           d="m 329.29221,196.30902 q -0.0254,0.20826 0.0419,0.36746 0.0674,0.1592 0.26519,0.27017 0.13777,0.0772 0.3298,0.11198 0.19157,0.0385 0.44818,0.0698 l 0.51693,0.0631 0.18209,-1.4913 -0.43884,-0.0536 q -0.34215,-0.0418 -0.57681,-0.0365 -0.23466,0.005 -0.40539,0.10525 -0.16283,0.0971 -0.24657,0.22656 -0.0879,0.13269 -0.11653,0.36699 z m -1.7586,-4.11369 1.7442,0.21297 1.26197,2.21491 0.65826,0.0804 0.24792,-2.03056 1.42065,0.17346 -0.67612,5.53754 -2.39501,-0.29243 q -0.49091,-0.0599 -0.8374,-0.15886 -0.34649,-0.0989 -0.63246,-0.32256 -0.28969,-0.22409 -0.43559,-0.54385 -0.15008,-0.31651 -0.0956,-0.76278 0.0749,-0.61363 0.40851,-0.96544 0.32987,-0.35226 0.88929,-0.54439 z"
           id="path16728" />
        <path
           d="m 321.00068,193.58531 q 0.29352,-1.30109 1.21223,-1.90039 0.91788,-0.59564 2.23358,-0.29883 1.31205,0.29599 1.8853,1.22803 0.57243,0.93569 0.27891,2.23677 -0.29599,1.31205 -1.21305,1.90404 -0.91788,0.59565 -2.22993,0.29966 -1.3084,-0.29517 -1.8853,-1.22803 -0.57773,-0.9292 -0.28174,-2.24125 z m 2.17109,-0.95818 q -0.26073,0.20235 -0.43526,0.51633 -0.17535,0.31763 -0.27842,0.77447 -0.11048,0.48973 -0.0747,0.85884 0.0358,0.3691 0.17071,0.6223 0.13692,0.26134 0.35953,0.41525 0.21895,0.1531 0.48209,0.21246 0.2668,0.0602 0.52579,0.0188 0.25534,-0.0423 0.50217,-0.21702 0.2289,-0.16344 0.42748,-0.49888 0.1941,-0.3326 0.30128,-0.80772 0.10966,-0.48608 0.0775,-0.85436 -0.0366,-0.36545 -0.17072,-0.6223 -0.13409,-0.25685 -0.35587,-0.41443 -0.22178,-0.15757 -0.49223,-0.21858 -0.27045,-0.061 -0.5384,-0.0139 -0.26878,0.0507 -0.50099,0.2288 z"
           id="path16730" />
        <path
           d="m 315.75697,188.92389 1.31292,0.44485 1.01386,4.38635 1.22875,-3.62649 1.24905,0.42321 -1.79023,5.28361 -1.62873,-0.55186 -0.90123,-3.67966 -1.02556,3.02681 -1.24905,-0.42321 z"
           id="path16732" />
        <path
           d="m 308.6102,190.69494 1.58998,0.71208 1.83917,-4.10662 1.31302,0.58805 -1.83916,4.10661 1.58998,0.71208 -0.44103,0.98477 -4.493,-2.01221 z"
           id="path16734" />
        <path
           d="m 306.51997,186.66302 2.51878,1.35189 -0.51028,0.95073 -2.51878,-1.35189 z"
           id="path16736" />
        <path
           d="m 303.04404,182.24173 3.41012,2.15704 -2.98222,4.71465 -3.41012,-2.15705 0.57682,-0.9119 2.20059,1.39197 0.51472,-0.81375 -2.04227,-1.29182 0.57681,-0.9119 2.04228,1.29183 0.73704,-1.16521 -2.20059,-1.39196 z"
           id="path16738" />
        <path
           d="m 298.02433,178.46096 1.09713,0.84733 -0.46641,4.47776 2.34043,-3.03045 1.04376,0.8061 -3.40989,4.41521 -1.36104,-1.05114 0.34331,-3.77283 -1.95342,2.52933 -1.04376,-0.8061 z"
           id="path16740" />
        <path
           d="m 291.19827,175.91108 q 0.53682,-0.5649 1.22068,-0.76783 0.68127,-0.20022 1.30219,-0.065 0.46636,0.10207 0.88653,0.36697 0.42016,0.2649 0.90359,0.7243 l 1.42582,1.35497 -3.84294,4.04391 -1.46657,-1.39368 q -0.49428,-0.46972 -0.77277,-0.89459 -0.28106,-0.42215 -0.38096,-0.80652 -0.17564,-0.65275 -0.002,-1.31441 0.16865,-0.66152 0.72612,-1.24814 z m 1.07045,1.03276 q -0.37939,0.39923 -0.50115,0.82105 -0.12705,0.42195 0.0357,0.88157 0.0854,0.23103 0.22796,0.4182 0.13728,0.18731 0.47405,0.50734 l 0.26343,0.25035 2.40539,-2.53118 -0.26343,-0.25035 q -0.37208,-0.35358 -0.57686,-0.48616 -0.20737,-0.12987 -0.45821,-0.19769 -0.44001,-0.10804 -0.83118,0.0371 -0.39375,0.14784 -0.77572,0.54979 z"
           id="path16742" />
        <path
           d="m 286.83302,169.61426 1.94156,2.39539 q 0.29979,-0.24299 0.45077,-0.51487 0.14807,-0.26952 0.1633,-0.54229 0.017,-0.26458 -0.0806,-0.52785 -0.1,-0.26618 -0.30288,-0.51649 -0.26894,-0.33181 -0.67122,-0.56036 -0.40754,-0.22911 -0.65121,-0.26792 l -0.0236,-0.0291 0.59667,-0.48362 q 0.34054,0.18214 0.65268,0.40659 0.31214,0.22445 0.56928,0.5417 0.65584,0.80914 0.58728,1.61706 -0.0715,0.81027 -0.8777,1.46375 -0.7975,0.6464 -1.61761,0.59255 -0.82247,-0.0568 -1.3981,-0.76695 -0.53316,-0.65779 -0.43678,-1.32428 0.094,-0.6694 0.80129,-1.24267 z m 0.0126,0.87235 q -0.42841,0.35206 -0.48959,0.75853 -0.0635,0.40356 0.29033,0.84014 0.35623,0.4395 0.82759,0.49149 0.469,0.0491 0.88151,-0.2274 z"
           style="font-weight:normal;font-family:sans-serif;-inkscape-font-specification:sans-serif"
           id="path16744" />
        <path
           d="m 285.69744,164.50869 0.50766,0.7285 -0.63965,1.89335 2.00199,0.0616 0.46911,0.67317 -2.64607,-0.14708 -0.79599,2.52744 -0.50766,-0.7285 0.62242,-1.8722 -1.97405,-0.0674 -0.47125,-0.67625 2.63097,0.1713 z"
           style="font-weight:normal;font-family:sans-serif;-inkscape-font-specification:sans-serif"
           id="path16746" />
        <path
           d="m 283.40186,161.20493 q 0.32577,0.21524 0.56994,0.44012 0.24224,0.22166 0.42538,0.52686 0.23325,0.38872 0.31551,0.78067 0.079,0.39387 -0.0135,0.76397 -0.0906,0.37332 -0.36687,0.71387 -0.27627,0.34055 -0.74853,0.62392 -0.88025,0.52819 -1.67057,0.34703 -0.79225,-0.18438 -1.2684,-0.9779 -0.18506,-0.30841 -0.27566,-0.65602 -0.0925,-0.35082 -0.11568,-0.67337 l 0.67143,-0.40289 0.0193,0.0321 q -0.0495,0.40544 0.0122,0.7704 0.0598,0.36174 0.22748,0.64124 0.30843,0.51401 0.83467,0.60459 0.5211,0.0893 1.18932,-0.31167 0.64895,-0.38939 0.82563,-0.88865 0.17154,-0.50054 -0.14461,-1.0274 -0.10988,-0.18312 -0.2718,-0.34375 -0.16192,-0.16063 -0.32963,-0.26535 -0.1465,-0.0912 -0.28979,-0.16256 -0.1465,-0.0694 -0.24159,-0.10408 l -0.0193,-0.0321 z"
           style="font-weight:normal;font-family:sans-serif;-inkscape-font-specification:sans-serif"
           id="path16748" />
        <path
           d="m 278.54512,161.90261 0.37489,0.70024 -0.64409,0.34482 -0.37489,-0.70024 z m 4.32835,-2.26627 0.33244,0.62097 -3.68946,1.97522 -0.33245,-0.62096 z"
           style="font-weight:normal;font-family:sans-serif;-inkscape-font-specification:sans-serif"
           id="path16750" />
        <path
           d="m 281.24938,156.4519 q 0.13365,0.15594 0.26675,0.35376 0.13146,0.19446 0.21137,0.35974 0.27886,0.57679 0.11367,1.02702 -0.16518,0.45023 -0.84991,0.78128 l -2.00359,0.96867 0.2071,0.42837 -0.53294,0.25766 -0.20711,-0.42837 -1.08275,0.52347 -0.30658,-0.63414 1.08275,-0.52347 -0.63273,-1.30874 0.53294,-0.25766 0.63273,1.30874 1.71689,-0.83005 q 0.29683,-0.14351 0.45896,-0.23854 0.15875,-0.0934 0.26466,-0.24448 0.099,-0.13943 0.10116,-0.29859 -0.003,-0.16091 -0.13171,-0.42738 -0.075,-0.15516 -0.2004,-0.30261 -0.12877,-0.14582 -0.195,-0.20536 l -0.0163,-0.0337 z"
           style="font-weight:normal;font-family:sans-serif;-inkscape-font-specification:sans-serif"
           id="path16752" />
        <path
           d="m 277.73003,153.18333 1.17029,2.85272 q 0.35702,-0.14646 0.57984,-0.3634 0.21935,-0.21553 0.31241,-0.47238 0.0924,-0.2485 0.0747,-0.52873 -0.0192,-0.2837 -0.14148,-0.5818 -0.16211,-0.39515 -0.48161,-0.72978 -0.3244,-0.33667 -0.54659,-0.44395 l -0.0142,-0.0347 0.71058,-0.29151 q 0.27374,0.27242 0.5081,0.57718 0.23436,0.30477 0.38936,0.68259 0.39531,0.96361 0.0972,1.71765 -0.30158,0.75545 -1.26173,1.14933 -0.94975,0.38962 -1.71969,0.10209 -0.77136,-0.291 -1.11832,-1.13676 -0.32137,-0.78338 -0.0373,-1.39396 0.28264,-0.61405 1.12494,-0.95959 z m -0.23892,0.83909 q -0.51158,0.21392 -0.68712,0.5856 -0.17696,0.36822 0.0363,0.88815 0.21472,0.52341 0.6512,0.70881 0.43505,0.18194 0.90966,0.0358 z"
           style="font-weight:normal;font-family:sans-serif;-inkscape-font-specification:sans-serif"
           id="path16754" />
        <path
           d="m 277.16007,148.94963 q 0.54407,-0.18049 1.04237,0.15552 0.49713,0.33245 0.75548,1.11121 0.14628,0.44095 0.16584,0.84499 0.0148,0.40165 -0.0271,0.69186 l -0.75031,0.24892 -0.0118,-0.0356 q 0.13326,-0.39553 0.14692,-0.83032 0.0101,-0.43361 -0.10787,-0.78921 -0.14628,-0.44095 -0.3711,-0.64268 -0.22482,-0.20174 -0.53063,-0.10029 -0.2347,0.0779 -0.31078,0.2531 -0.0761,0.17524 -0.034,0.5876 0.0152,0.15286 0.0492,0.39815 0.0328,0.24174 0.0456,0.44673 0.0347,0.56874 -0.15883,0.87769 -0.1983,0.30657 -0.58946,0.43633 -0.24537,0.0814 -0.49531,0.0538 -0.25113,-0.0312 -0.49024,-0.18079 -0.2332,-0.14369 -0.43066,-0.41765 -0.2022,-0.27635 -0.32843,-0.65684 -0.11796,-0.3556 -0.14939,-0.74781 -0.0362,-0.39458 0.008,-0.67768 l 0.71476,-0.23711 0.0118,0.0356 q -0.10353,0.31856 -0.11004,0.72729 -0.0101,0.40992 0.10672,0.76197 0.1215,0.36627 0.3475,0.57156 0.22244,0.20647 0.49981,0.11445 0.24537,-0.0814 0.3191,-0.27559 0.0749,-0.19064 0.0423,-0.55086 -0.0187,-0.19907 -0.0515,-0.44081 -0.034,-0.2453 -0.0492,-0.41001 -0.0479,-0.50122 0.12797,-0.83982 0.17939,-0.33977 0.61323,-0.48369 z"
           style="font-weight:normal;font-family:sans-serif;-inkscape-font-specification:sans-serif"
           id="path16756" />
        <path
           d="m 276.1671,138.99387 0.12937,0.69237 -2.34228,0.43767 q -0.26517,0.0496 -0.5071,0.12143 -0.24262,0.0682 -0.37549,0.17307 -0.14253,0.1143 -0.19396,0.2878 -0.0514,0.1735 0.004,0.47181 0.0544,0.29095 0.25604,0.55437 0.198,0.2641 0.47701,0.51307 0.0826,-0.0269 0.19544,-0.0556 0.10911,-0.028 0.21959,-0.0486 l 2.63323,-0.49203 0.12937,0.69237 -2.34228,0.43767 q -0.27253,0.0509 -0.51078,0.12212 -0.24262,0.0682 -0.37549,0.17307 -0.14253,0.1143 -0.19028,0.28711 -0.0514,0.1735 0.004,0.47181 0.053,0.28358 0.24661,0.54469 0.19294,0.25743 0.46322,0.50041 l 3.07148,-0.57393 0.12938,0.69238 -4.11373,0.76867 -0.12938,-0.69237 0.45667,-0.0853 q -0.3294,-0.27386 -0.54027,-0.56605 -0.21155,-0.29588 -0.27968,-0.66048 -0.0785,-0.41984 0.044,-0.74382 0.12172,-0.32766 0.40793,-0.52978 -0.432,-0.35378 -0.65137,-0.67107 -0.22305,-0.31659 -0.29668,-0.71066 -0.12662,-0.67764 0.22598,-1.07512 0.34824,-0.40047 1.08481,-0.53811 z"
           style="font-weight:normal;font-family:sans-serif;-inkscape-font-specification:sans-serif"
           id="path16758" />
        <path
           d="m 273.73151,134.32652 0.27274,3.07135 q 0.38438,-0.0341 0.66147,-0.17534 0.27335,-0.14087 0.43831,-0.35863 0.1619,-0.20997 0.22794,-0.48289 0.0657,-0.27665 0.0372,-0.59759 -0.0378,-0.42544 -0.24382,-0.83969 -0.21011,-0.41766 -0.39055,-0.58594 l -0.003,-0.0373 0.76504,-0.0679 q 0.18076,0.34128 0.31433,0.70179 0.13357,0.36051 0.16969,0.76729 0.0921,1.03746 -0.41596,1.66935 -0.51181,0.63222 -1.54555,0.72401 -1.02254,0.0908 -1.67275,-0.41189 -0.65055,-0.50643 -0.73141,-1.41701 -0.0749,-0.84341 0.37729,-1.34245 0.45184,-0.50277 1.35869,-0.5833 z m -0.47675,0.73066 q -0.55199,0.0528 -0.82975,0.35578 -0.27809,0.29927 -0.22838,0.85906 0.05,0.56351 0.41201,0.86989 0.36163,0.30265 0.85822,0.30368 z"
           style="font-weight:normal;font-family:sans-serif;-inkscape-font-specification:sans-serif"
           id="path16760" />
        <path
           d="m 271.25875,126.23517 -0.0752,2.5653 1.03736,0.0304 0.0697,-2.37806 1.07855,0.0316 -0.0697,2.37806 2.3818,0.0698 -0.0419,1.43058 -5.57626,-0.16343 0.11711,-3.99589 z"
           id="path16762" />
        <path
           d="m 272.34426,121.81705 q -0.20839,-0.0244 -0.36725,0.0438 -0.15886,0.0682 -0.26883,0.26655 -0.0765,0.13816 -0.11032,0.33035 -0.0375,0.19176 -0.0676,0.44853 l -0.0605,0.51724 1.4922,0.17459 0.0514,-0.4391 q 0.0401,-0.34235 0.0336,-0.57699 -0.007,-0.23463 -0.10729,-0.40485 -0.0979,-0.16235 -0.22779,-0.24544 -0.13313,-0.0872 -0.36757,-0.11467 z m 4.10479,-1.77926 -0.20419,1.74524 -2.20854,1.27309 -0.0771,0.65866 2.03178,0.23771 -0.16631,1.4215 -5.54087,-0.64827 0.28038,-2.39645 q 0.0575,-0.4912 0.15465,-0.83819 0.0972,-0.34698 0.31937,-0.63407 0.22263,-0.29081 0.54166,-0.43832 0.31574,-0.15167 0.76229,-0.0994 0.614,0.0718 0.96748,0.40365 0.35391,0.32809 0.54885,0.88654 z"
           id="path16764" />
        <path
           d="m 275.02597,113.51196 q 1.30255,0.28692 1.9065,1.20258 0.60029,0.91486 0.31014,2.23205 -0.28933,1.31353 -1.21845,1.8915 -0.93278,0.57716 -2.23533,0.29024 -1.31354,-0.28934 -1.91017,-1.20339 -0.60029,-0.91485 -0.31095,-2.22839 0.28853,-1.30987 1.21846,-1.89149 0.92626,-0.58243 2.2398,-0.2931 z m 0.96916,2.16621 q -0.20367,-0.2597 -0.51853,-0.43264 -0.31851,-0.17374 -0.77587,-0.27448 -0.49029,-0.108 -0.85921,-0.0703 -0.36891,0.0377 -0.62143,0.17387 -0.26063,0.13824 -0.41342,0.36163 -0.15198,0.21972 -0.21001,0.48316 -0.0588,0.2671 -0.0161,0.52588 0.0435,0.25512 0.21956,0.50106 0.1646,0.22807 0.50103,0.42495 0.33359,0.1924 0.80924,0.29718 0.48663,0.10719 0.85474,0.0732 0.36526,-0.0385 0.62143,-0.17386 0.25617,-0.13539 0.41262,-0.35797 0.15645,-0.22258 0.21609,-0.49333 0.0596,-0.27076 0.0112,-0.53847 -0.0521,-0.26852 -0.23134,-0.49982 z"
           id="path16766" />
        <path
           d="m 279.66074,108.24453 -0.43819,1.31516 -4.38114,1.0361 3.63268,1.21033 -0.41686,1.25118 -5.29263,-1.76339 0.54358,-1.63151 3.67504,-0.9199 -3.03198,-1.01018 0.41687,-1.25118 z"
           id="path16768" />
        <path
           d="m 277.85347,101.10693 -0.70402,1.59357 4.11588,1.81834 -0.58139,1.31599 -4.11587,-1.81835 -0.70402,1.59358 -0.98699,-0.43604 1.98943,-4.50313 z"
           id="path16770" />
        <path
           d="m 281.8748,98.996318 -1.33915,2.525572 -0.9533,-0.50548 1.33916,-2.525566 z"
           id="path16772" />
        <path
           d="m 286.27856,95.498128 -2.13985,3.420933 -4.7296,-2.95845 2.13986,-3.420933 0.91479,0.572219 -1.38087,2.207566 0.81632,0.510625 1.28153,-2.048748 0.91479,0.572219 -1.28153,2.048748 1.1689,0.731168 1.38087,-2.207566 z"
           id="path16774" />
        <path
           d="m 290.03408,90.459516 -0.84181,1.101367 -4.48005,-0.443957 3.04215,2.32521 -0.80085,1.047786 -4.43226,-3.387707 1.0443,-1.36629 3.77451,0.324379 -2.5391,-1.940708 0.80086,-1.047787 z"
           id="path16776" />
        <path
           d="m 292.54979,83.620746 q 0.56758,0.53399 0.77393,1.216819 0.20362,0.680262 0.0715,1.301849 -0.0997,0.466872 -0.36253,0.888357 -0.2628,0.421486 -0.71977,0.907202 l -1.34781,1.43259 -4.0631,-3.822653 1.38632,-1.473521 q 0.46724,-0.496632 0.89071,-0.777241 0.42074,-0.283176 0.8046,-0.384996 0.65186,-0.178904 1.31438,-0.0083 0.66236,0.165336 1.25177,0.719865 z m -1.02739,1.075609 q -0.40113,-0.377388 -0.82355,-0.497031 -0.42258,-0.124939 -0.88138,0.04013 -0.2306,0.08655 -0.41706,0.230055 -0.18662,0.138213 -0.50496,0.476577 l -0.24902,0.264688 2.54318,2.392689 0.24903,-0.264688 q 0.35171,-0.373838 0.48327,-0.579285 0.12883,-0.208014 0.19539,-0.459187 0.10584,-0.440554 -0.0412,-0.830988 -0.14981,-0.393002 -0.55366,-0.772957 z"
           id="path16778" />
        <path
           d="m 298.82465,79.224056 -2.38564,1.953541 q 0.24449,0.298567 0.51713,0.448184 0.27026,0.146717 0.5431,0.160575 0.26467,0.01571 0.52744,-0.08326 0.26568,-0.101336 0.51497,-0.305473 0.33045,-0.2706 0.55699,-0.674015 0.22706,-0.408688 0.26465,-0.652542 l 0.029,-0.02374 0.4866,0.594235 q -0.18043,0.341448 -0.40331,0.654707 -0.22288,0.31326 -0.53884,0.571992 -0.80584,0.659883 -1.61409,0.595372 -0.81063,-0.06741 -1.46814,-0.870352 -0.65039,-0.794246 -0.60064,-1.614617 0.0526,-0.822744 0.75993,-1.401923 0.6551,-0.536452 1.32207,-0.443412 0.66987,0.09067 1.24668,0.795052 z m -0.87227,0.01697 q -0.35421,-0.426636 -0.76098,-0.485778 -0.40387,-0.06152 -0.83868,0.294536 -0.4377,0.358426 -0.48733,0.830042 -0.0467,0.469243 0.23181,0.880356 z"
           style="font-weight:normal;font-family:sans-serif;-inkscape-font-specification:sans-serif"
           id="path16780" />
        <path
           d="m 303.92444,78.062851 -0.72594,0.511317 -1.89653,-0.630133 -0.0516,2.002275 -0.6708,0.472483 0.13378,-2.646768 -2.53141,-0.783285 0.72594,-0.511317 1.87531,0.613007 0.0575,-1.974362 0.67387,-0.47464 -0.15807,2.631799 z"
           style="font-weight:normal;font-family:sans-serif;-inkscape-font-specification:sans-serif"
           id="path16782" />
        <path
           d="m 307.21664,75.750621 q -0.2136,0.326852 -0.43724,0.572152 -0.22045,0.243356 -0.52472,0.428024 -0.38754,0.235208 -0.77907,0.319439 -0.39346,0.08103 -0.76403,-0.0096 -0.37376,-0.0887 -0.7157,-0.363262 -0.34194,-0.274559 -0.62769,-0.745378 -0.53262,-0.877581 -0.35544,-1.668806 0.18039,-0.793169 0.9715,-1.273304 0.30747,-0.186611 0.65462,-0.27897 0.35034,-0.0943 0.67278,-0.119069 l 0.40626,0.669395 -0.032,0.01944 q -0.40569,-0.04742 -0.77033,0.01611 -0.36144,0.06159 -0.64009,0.230706 -0.51245,0.311019 -0.60038,0.837706 -0.0867,0.521541 0.31766,1.187734 0.39266,0.646976 0.89279,0.821138 0.5014,0.169016 1.02667,-0.149778 0.18256,-0.1108 0.34237,-0.273531 0.15981,-0.162731 0.26369,-0.330961 0.0905,-0.146959 0.16109,-0.290604 0.0687,-0.146847 0.10287,-0.242117 l 0.032,-0.01944 z"
           style="font-weight:normal;font-family:sans-serif;-inkscape-font-specification:sans-serif"
           id="path16784" />
        <path
           d="m 306.49444,70.89748 -0.69833,0.378417 -0.34808,-0.642338 0.69834,-0.378417 z m 2.2881,4.316848 -0.61928,0.335577 -1.99383,-3.679442 0.61928,-0.335578 z"
           style="font-weight:normal;font-family:sans-serif;-inkscape-font-specification:sans-serif"
           id="path16786" />
        <path
           d="m 311.95863,73.574217 q -0.15527,0.13444 -0.35242,0.268535 -0.19378,0.132446 -0.35865,0.213188 -0.57538,0.281774 -1.02644,0.11887 -0.45106,-0.162905 -0.78556,-0.845952 l -0.9788,-1.998669 -0.42732,0.20927 -0.26035,-0.531632 0.42732,-0.209271 -0.52894,-1.080089 0.63257,-0.309786 0.52895,1.080089 1.30552,-0.639346 0.26036,0.531633 -1.30553,0.639346 0.83873,1.712664 q 0.145,0.2961 0.24085,0.457747 0.0942,0.158282 0.24581,0.263419 0.13994,0.09834 0.29911,0.09965 0.16089,-0.0037 0.4267,-0.133875 0.15478,-0.0758 0.3016,-0.201931 0.14517,-0.129496 0.20436,-0.196031 l 0.0337,-0.01648 z"
           style="font-weight:normal;font-family:sans-serif;-inkscape-font-specification:sans-serif"
           id="path16788" />
        <path
           d="m 315.20931,70.038341 -2.84675,1.184729 q 0.14827,0.356276 0.36635,0.577994 0.21663,0.218258 0.47395,0.310014 0.24897,0.09118 0.5291,0.07199 0.2836,-0.02063 0.58107,-0.144429 0.39433,-0.164106 0.72733,-0.485306 0.33503,-0.326099 0.44118,-0.548831 l 0.0346,-0.01439 0.2951,0.709093 q -0.27102,0.275115 -0.57459,0.511021 -0.30358,0.235906 -0.68061,0.392814 -0.9616,0.400188 -1.71713,0.105905 -0.75697,-0.297742 -1.15572,-1.255883 -0.39443,-0.947765 -0.1108,-1.719152 0.28708,-0.772827 1.13108,-1.124071 0.78173,-0.325333 1.39374,-0.04437 0.61548,0.279526 0.96528,1.120061 z m -0.84028,-0.234662 q -0.21651,-0.510492 -0.58908,-0.684146 -0.36911,-0.175093 -0.88796,0.04084 -0.5223,0.217368 -0.7055,0.654776 -0.17973,0.435968 -0.0312,0.90983 z"
           style="font-weight:normal;font-family:sans-serif;-inkscape-font-specification:sans-serif"
           id="path16790" />
        <path
           d="m 319.44021,69.446851 q 0.18325,0.543147 -0.15022,1.043155 -0.32992,0.498809 -1.10737,0.761108 -0.4402,0.148517 -0.84413,0.170129 -0.40158,0.01686 -0.692,-0.02354 l -0.25271,-0.749046 0.0355,-0.01198 q 0.39619,0.131252 0.83105,0.142701 0.43366,0.0079 0.78865,-0.111873 0.4402,-0.148516 0.64079,-0.374355 0.20059,-0.225839 0.0976,-0.531138 -0.079,-0.234298 -0.25467,-0.309485 -0.17562,-0.07519 -0.58777,-0.03103 -0.15277,0.01596 -0.3979,0.05121 -0.24157,0.03405 -0.44648,0.04783 -0.56856,0.03761 -0.87849,-0.154376 -0.30757,-0.196738 -0.43932,-0.587236 -0.0826,-0.244949 -0.0563,-0.495034 0.0299,-0.251282 0.1783,-0.491148 0.14251,-0.233921 0.41547,-0.432774 0.27531,-0.203601 0.65516,-0.331756 0.355,-0.119771 0.74704,-0.153188 0.39439,-0.03816 0.67771,0.0046 l 0.24074,0.713546 -0.0355,0.01198 q -0.31908,-0.101914 -0.72784,-0.106349 -0.40997,-0.008 -0.76141,0.110589 -0.36565,0.123364 -0.56979,0.350401 -0.20534,0.223487 -0.11192,0.500385 0.0826,0.244949 0.27721,0.317697 0.19102,0.07394 0.55107,0.03946 0.19897,-0.01968 0.44054,-0.05373 0.24512,-0.03525 0.40975,-0.05125 0.50098,-0.0504 0.84046,0.12371 0.34068,0.177661 0.4868,0.610759 z"
           style="font-weight:normal;font-family:sans-serif;-inkscape-font-specification:sans-serif"
           id="path16792" />
        <path
           d="m 329.39087,68.40345 -0.69171,0.132874 -0.44951,-2.340043 q -0.0509,-0.26491 -0.12399,-0.506477 -0.0694,-0.242273 -0.17497,-0.374603 -0.11502,-0.141955 -0.28878,-0.192508 -0.17375,-0.05055 -0.47178,0.0067 -0.29066,0.05583 -0.55306,0.258843 -0.2631,0.199329 -0.51065,0.479602 0.0273,0.0825 0.0566,0.195149 0.0286,0.108966 0.0498,0.219345 l 0.50535,2.630709 -0.69171,0.132874 -0.44951,-2.340043 q -0.0523,-0.272269 -0.1247,-0.510156 -0.0694,-0.242274 -0.17497,-0.374604 -0.11502,-0.141955 -0.28807,-0.188829 -0.17376,-0.05055 -0.47178,0.0067 -0.28331,0.05442 -0.54344,0.249364 -0.25645,0.194235 -0.49806,0.465737 l 0.58945,3.068546 -0.69171,0.132874 -0.78946,-4.109792 0.69171,-0.132874 0.0876,0.456235 q 0.27218,-0.330786 0.5633,-0.543128 0.29481,-0.213048 0.65906,-0.283019 0.41944,-0.08057 0.74403,0.0402 0.32827,0.120065 0.53184,0.405242 0.35159,-0.433787 0.66776,-0.654755 0.31547,-0.224647 0.70915,-0.300272 0.677,-0.130047 1.07625,0.220547 0.40224,0.346207 0.54359,1.08207 z"
           style="font-weight:normal;font-family:sans-serif;-inkscape-font-specification:sans-serif"
           id="path16794" />
        <path
           d="m 334.04557,65.944541 -3.06995,0.28813 q 0.0361,0.384209 0.17865,0.660581 0.14225,0.272641 0.36083,0.436515 0.21078,0.160844 0.48402,0.225512 0.27698,0.06432 0.59777,0.03421 0.42525,-0.03991 0.83846,-0.248031 0.4166,-0.2122 0.58398,-0.393483 l 0.0373,-0.0035 0.0718,0.764689 q -0.34037,0.182467 -0.7002,0.317841 -0.35984,0.135375 -0.76643,0.173536 -1.03699,0.09733 -1.67142,-0.407586 -0.63477,-0.508644 -0.73175,-1.541906 -0.0959,-1.022072 0.40351,-1.674797 0.50316,-0.653074 1.41333,-0.738498 0.84302,-0.07912 1.34432,0.370551 0.50502,0.449323 0.5901,1.355759 z m -0.73304,-0.47308 q -0.0555,-0.551717 -0.35994,-0.827955 -0.30066,-0.276589 -0.86019,-0.224074 -0.56326,0.05286 -0.86782,0.41636 -0.30082,0.363146 -0.29937,0.859732 z"
           style="font-weight:normal;font-family:sans-serif;-inkscape-font-specification:sans-serif"
           id="path16796" />
        <path
           d="m 342.12476,63.431708 -2.56565,-0.06246 -0.0252,1.037496 2.37837,0.0579 -0.0263,1.078696 -2.37838,-0.0579 -0.058,2.38212 -1.43077,-0.03483 0.13577,-5.577007 3.99642,0.0973 z"
           id="path16798" />
        <path
           d="m 346.54811,64.495031 q 0.0233,-0.208507 -0.0456,-0.367024 -0.069,-0.158517 -0.2679,-0.267488 -0.13854,-0.07582 -0.3309,-0.10866 -0.19195,-0.03656 -0.44886,-0.06531 l -0.51755,-0.05792 -0.16708,1.49306 0.43935,0.04917 q 0.34255,0.03833 0.57715,0.03066 0.2346,-0.0077 0.40431,-0.109323 0.16185,-0.09876 0.24429,-0.229021 0.0866,-0.13357 0.11282,-0.36814 z m 1.79986,4.095795 -1.74624,-0.195418 -1.28418,-2.202112 -0.65903,-0.07375 -0.2275,2.032943 -1.42232,-0.159168 0.62043,-5.544053 2.39783,0.268336 q 0.49148,0.055 0.83894,0.150434 0.34747,0.09543 0.63568,0.316184 0.29192,0.221168 0.44103,0.539452 0.15325,0.314977 0.10325,0.761778 -0.0688,0.614351 -0.39878,0.969495 -0.32631,0.35556 -0.88377,0.553303 z"
           id="path16800" />
        <path
           d="m 354.86652,67.134672 q -0.28032,1.303993 -1.1929,1.912571 -0.91181,0.604915 -2.23045,0.321447 -1.31498,-0.282681 -1.89765,-1.20886 -0.58187,-0.929842 -0.30155,-2.233835 0.28268,-1.314982 1.19369,-1.916234 0.9118,-0.604915 2.22678,-0.322234 1.31132,0.281894 1.89765,1.20886 0.58711,0.923303 0.30443,2.238285 z m -2.16127,0.980122 q 0.25867,-0.204982 0.43001,-0.520709 0.17213,-0.31939 0.27055,-0.777253 0.10551,-0.490829 0.066,-0.859552 -0.0395,-0.368722 -0.17701,-0.620541 -0.13956,-0.259933 -0.36371,-0.411587 -0.2205,-0.150868 -0.48423,-0.207562 -0.26739,-0.05748 -0.52595,-0.01343 -0.2549,0.04484 -0.49994,0.222095 -0.22724,0.165752 -0.42241,0.503182 -0.19071,0.334555 -0.29308,0.810732 -0.10472,0.487166 -0.0688,0.855102 0.0403,0.365059 0.17701,0.620541 0.13669,0.255482 0.36005,0.4108 0.22337,0.155318 0.49442,0.213586 0.27106,0.05827 0.53852,0.0085 0.26825,-0.05347 0.49864,-0.233871 z"
           id="path16802" />
        <path
           d="m 360.15734,71.742605 -1.31737,-0.431501 -1.05833,-4.375831 -1.19187,3.638781 -1.25328,-0.410509 1.7365,-5.301511 1.63425,0.535294 0.93854,3.670321 0.99478,-3.037064 1.25328,0.410509 z"
           id="path16804" />
        <path
           d="m 367.28573,69.899205 -1.59711,-0.695942 -1.79748,4.125032 -1.31891,-0.574714 1.79748,-4.125031 -1.59712,-0.695942 0.43103,-0.989183 4.51315,1.966597 z"
           id="path16806" />
        <path
           d="m 369.41672,73.909863 -2.5323,-1.326382 0.50065,-0.955836 2.5323,1.326383 z"
           id="path16808" />
        <path
           d="m 372.93706,78.295959 -3.43167,-2.122608 2.9346,-4.744426 3.43167,2.122609 -0.56761,0.917659 -2.21449,-1.369743 -0.50651,0.818884 2.05518,1.2712 -0.56761,0.917659 -2.05517,-1.2712 -0.72528,1.172565 2.21449,1.369742 z"
           id="path16810" />
        <path
           d="m 377.99446,82.026163 -1.10558,-0.836272 0.42148,-4.482222 -2.30992,3.053779 -1.05179,-0.795588 3.36543,-4.449195 1.37151,1.037429 -0.30544,3.776086 1.92795,-2.5488 1.05179,0.795588 z"
           id="path16812" />
        <path
           d="m 384.8457,84.507586 q -0.53114,0.570245 -1.21293,0.780013 -0.67923,0.207027 -1.30147,0.07802 -0.46737,-0.0974 -0.89016,-0.35808 -0.4228,-0.260683 -0.91079,-0.715219 l -1.43932,-1.340624 3.80226,-4.082184 1.48044,1.378928 q 0.49897,0.464749 0.78169,0.886809 0.28528,0.419318 0.38902,0.802667 0.18217,0.650956 0.0148,1.31432 -0.16201,0.663176 -0.71359,1.255353 z m -1.08073,-1.021992 q 0.37537,-0.403009 0.4929,-0.826024 0.12282,-0.423203 -0.0445,-0.88117 -0.0877,-0.230166 -0.23214,-0.415903 -0.13915,-0.185924 -0.4791,-0.502567 l -0.26593,-0.247696 -2.37993,2.555134 0.26593,0.247697 q 0.3756,0.349839 0.5817,0.480368 0.20866,0.127789 0.46016,0.193085 0.44108,0.103631 0.83077,-0.0454 0.39225,-0.151773 0.77018,-0.557524 z"
           id="path16814" />
        <path
           d="m 389.27376,90.760347 -1.96547,-2.375818 q -0.29734,0.245983 -0.44558,0.519363 -0.14537,0.270991 -0.15786,0.543898 -0.0144,0.264745 0.0859,0.527022 0.10267,0.265164 0.30805,0.513427 0.27225,0.329093 0.6768,0.553604 0.40982,0.22501 0.65386,0.261382 l 0.0239,0.02887 -0.59179,0.489577 q -0.34235,-0.178717 -0.65672,-0.400027 -0.31437,-0.22131 -0.57468,-0.535969 -0.66392,-0.802524 -0.60346,-1.611088 0.0634,-0.810952 0.86299,-1.472477 0.79097,-0.654361 1.61158,-0.608728 0.823,0.04852 1.40572,0.752894 0.53973,0.652411 0.45003,1.319838 -0.0873,0.670313 -0.7888,1.25064 z m -0.0213,-0.872178 q 0.42486,-0.356337 0.48196,-0.763401 0.0595,-0.404177 -0.29874,-0.837194 -0.36061,-0.435903 -0.83247,-0.483165 -0.46947,-0.04438 -0.87918,0.236223 z"
           style="font-weight:normal;font-family:sans-serif;-inkscape-font-specification:sans-serif"
           id="path16816" />
        <path
           d="m 390.46057,95.85424 -0.51496,-0.723366 0.6206,-1.899675 -2.00251,-0.04151 -0.47584,-0.668426 2.6474,0.120493 0.77057,-2.535314 0.51495,0.723366 -0.60358,1.878361 1.97463,0.04756 0.47802,0.671478 -2.63256,-0.144859 z"
           style="font-weight:normal;font-family:sans-serif;-inkscape-font-specification:sans-serif"
           id="path16818" />
        <path
           d="m 392.7893,99.134693 q -0.32792,-0.211945 -0.57434,-0.434352 -0.24447,-0.219215 -0.43066,-0.522552 -0.23716,-0.386355 -0.32336,-0.77745 -0.083,-0.393054 0.006,-0.764069 0.0868,-0.374209 0.35965,-0.717527 0.27283,-0.343317 0.74221,-0.631433 0.87489,-0.537033 1.66699,-0.363835 0.79407,0.17639 1.27818,0.965067 0.18816,0.30653 0.28227,0.653207 0.0961,0.34987 0.12245,0.672172 l -0.66734,0.409634 -0.0196,-0.03193 q 0.0454,-0.405918 -0.02,-0.770235 -0.0634,-0.361124 -0.23393,-0.638917 -0.31359,-0.510883 -0.84072,-0.596157 -0.52197,-0.08404 -1.18612,0.323633 -0.64499,0.395914 -0.81663,0.896923 -0.16649,0.502242 0.15495,1.025897 0.11172,0.182003 0.27525,0.340991 0.16353,0.158989 0.33228,0.262022 0.14742,0.08975 0.29142,0.159624 0.14719,0.06791 0.24263,0.101643 l 0.0196,0.03193 z"
           style="font-weight:normal;font-family:sans-serif;-inkscape-font-specification:sans-serif"
           id="path16820" />
        <path
           d="m 397.63874,98.388016 -0.38194,-0.696418 0.64057,-0.35131 0.38194,0.696418 z m -4.30525,2.309854 -0.3387,-0.61758 3.66934,-2.012375 0.3387,0.617578 z"
           style="font-weight:normal;font-family:sans-serif;-inkscape-font-specification:sans-serif"
           id="path16822" />
        <path
           d="m 394.98968,103.86573 q -0.13522,-0.15459 -0.27031,-0.35106 -0.13342,-0.19311 -0.215,-0.35757 -0.28468,-0.57394 -0.12406,-1.02582 0.16063,-0.45188 0.84197,-0.78983 l 1.9937,-0.98889 -0.21143,-0.42626 0.53031,-0.263037 0.21143,0.426257 1.0774,-0.534392 0.31298,0.631002 -1.0774,0.5344 0.64594,1.30228 -0.53031,0.26303 -0.64594,-1.30228 -1.7084,0.84738 q -0.29537,0.1465 -0.45653,0.24317 -0.1578,0.095 -0.26217,0.24714 -0.0976,0.14043 -0.0981,0.2996 0.005,0.16087 0.13603,0.42602 0.0766,0.1544 0.20345,0.30057 0.13023,0.14452 0.19706,0.20337 l 0.0167,0.0336 z"
           style="font-weight:normal;font-family:sans-serif;-inkscape-font-specification:sans-serif"
           id="path16824" />
        <path
           d="m 398.54197,107.09846 -1.19914,-2.84071 q -0.35552,0.15007 -0.57613,0.36926 -0.21715,0.21774 -0.30761,0.47552 -0.0899,0.24943 -0.0693,0.52946 0.0221,0.28349 0.14737,0.58033 0.1661,0.39349 0.48899,0.72487 0.32779,0.33337 0.55106,0.43839 l 0.0146,0.0345 -0.70759,0.2987 q -0.27649,-0.26963 -0.51393,-0.57201 -0.23744,-0.30237 -0.39626,-0.6786 -0.40505,-0.95956 -0.1146,-1.71657 0.2939,-0.75847 1.25001,-1.16207 0.94576,-0.39923 1.71857,-0.11951 0.77427,0.28316 1.12979,1.12537 0.32929,0.78007 0.0514,1.3935 -0.27641,0.61688 -1.11516,0.97094 z m 0.2304,-0.84147 q 0.50939,-0.21909 0.68115,-0.59253 0.17323,-0.36999 -0.0453,-0.88774 -0.22001,-0.5212 -0.65834,-0.70217 -0.43687,-0.17752 -0.90998,-0.0266 z"
           style="font-weight:normal;font-family:sans-serif;-inkscape-font-specification:sans-serif"
           id="path16826" />
        <path
           d="m 399.15489,111.32613 q -0.54221,0.186 -1.0439,-0.14493 -0.50048,-0.32738 -0.76672,-1.10349 -0.15075,-0.43943 -0.17441,-0.84325 -0.0189,-0.40149 0.02,-0.69211 l 0.74776,-0.25652 0.0121,0.0354 q -0.12924,0.39686 -0.13848,0.83177 -0.006,0.43369 0.11587,0.78808 0.15075,0.43944 0.37761,0.63888 0.22685,0.19944 0.53162,0.0949 0.2339,-0.0802 0.30819,-0.25624 0.0743,-0.176 0.0281,-0.58792 -0.0167,-0.15269 -0.0532,-0.39763 -0.0353,-0.2414 -0.0501,-0.44624 -0.0405,-0.56836 0.14992,-0.87926 0.19518,-0.30857 0.585,-0.44229 0.24453,-0.0839 0.49474,-0.0588 0.25143,0.0286 0.49205,0.1758 0.23464,0.14132 0.43487,0.41327 0.205,0.27427 0.33508,0.65347 0.12157,0.35438 0.15698,0.74625 0.0402,0.39419 -10e-4,0.67773 l -0.71232,0.24435 -0.0122,-0.0354 q 0.1003,-0.31959 0.10266,-0.72837 0.006,-0.41 -0.11445,-0.76084 -0.12522,-0.36502 -0.35329,-0.568 -0.22453,-0.2042 -0.50095,-0.10938 -0.24452,0.0839 -0.31628,0.27882 -0.073,0.19139 -0.0367,0.55126 0.0207,0.19887 0.056,0.44027 0.0365,0.24494 0.0533,0.40948 0.0529,0.50072 -0.11945,0.84108 -0.17593,0.34157 -0.60828,0.48989 z"
           style="font-weight:normal;font-family:sans-serif;-inkscape-font-specification:sans-serif"
           id="path16828" />
        <path
           d="m 400.2487,121.27133 -0.13638,-0.69103 2.33774,-0.46134 q 0.26465,-0.0522 0.50585,-0.12656 0.24192,-0.0707 0.37371,-0.17686 0.14137,-0.11573 0.19104,-0.28974 0.0497,-0.17402 -0.009,-0.47175 -0.0573,-0.29038 -0.26164,-0.55174 -0.20065,-0.26209 -0.48217,-0.50822 -0.0824,0.0277 -0.19487,0.0576 -0.10882,0.0291 -0.21909,0.0509 l -2.62811,0.51865 -0.13638,-0.69103 2.33774,-0.46134 q 0.272,-0.0537 0.50952,-0.12729 0.24192,-0.0707 0.37372,-0.17686 0.14137,-0.11573 0.18736,-0.28902 0.0497,-0.17401 -0.009,-0.47174 -0.0559,-0.28303 -0.25211,-0.54217 -0.19553,-0.25546 -0.46825,-0.49569 l -3.06552,0.60497 -0.13638,-0.69103 4.10575,-0.81026 0.13637,0.69103 -0.45578,0.09 q 0.33216,0.27051 0.54597,0.56055 0.21453,0.29372 0.28635,0.65762 0.0827,0.41903 -0.0364,0.74422 -0.1184,0.32888 -0.40254,0.53389 0.43555,0.34939 0.65812,0.66444 0.22624,0.31432 0.30386,0.70762 0.13347,0.67633 -0.2151,1.07735 -0.34417,0.40398 -1.07931,0.54906 z"
           style="font-weight:normal;font-family:sans-serif;-inkscape-font-specification:sans-serif"
           id="path16830" />
        <path
           d="m 402.73096,125.91386 -0.30351,-3.06846 q -0.38402,0.038 -0.65968,0.18196 -0.27192,0.14361 -0.4347,0.36301 -0.15978,0.21158 -0.22308,0.48515 -0.0629,0.27729 -0.0312,0.59793 0.042,0.42504 0.25223,0.83721 0.21428,0.41553 0.3964,0.58199 l 0.004,0.0373 -0.76432,0.0756 q -0.18417,-0.33945 -0.32135,-0.6986 -0.13717,-0.35916 -0.17737,-0.76555 -0.10253,-1.03649 0.3992,-1.67344 0.50546,-0.63731 1.53822,-0.73947 1.02158,-0.10105 1.6768,0.39511 0.65559,0.49988 0.74557,1.40961 0.0833,0.84261 -0.36381,1.34616 -0.44678,0.50727 -1.35278,0.59688 z m 0.4694,-0.7354 q 0.55143,-0.0583 0.82614,-0.36408 0.27508,-0.30205 0.21976,-0.8613 -0.0557,-0.56299 -0.4207,-0.86572 -0.36465,-0.29901 -0.86122,-0.29507 z"
           style="font-weight:normal;font-family:sans-serif;-inkscape-font-specification:sans-serif"
           id="path16832" />
        <text
           xml:space="preserve"
           style="font-weight:bold;font-size:11px;line-height:1.25;font-family:'Space Grotesk';-inkscape-font-specification:'Space Grotesk Bold';stroke-width:0.0185218"
           id="text2780"><textPath
             xlink:href="#path10048"
             id="textPath10050"
             style="font-style:normal;font-variant:normal;font-weight:bold;font-stretch:normal;font-size:11px;font-family:sans-serif;-inkscape-font-specification:'sans-serif Bold';stroke-width:0.0185218">FRONT-END <tspan
   style="font-weight:normal;font-size:11px"
   id="tspan4852">excites me <tspan
   style="font-weight:bold;font-size:11px"
   id="tspan9092">FRONT-END</tspan> excites me <tspan
   style="font-weight:bold;font-size:11px"
   id="tspan8184">FRONT-END</tspan> excites me</tspan></textPath></text>
        <ellipse
           style="fill:#000000;fill-opacity:0;stroke:#000000;stroke-width:0.0185218"
           id="path10048"
           cx="513.06622"
           cy="144.65678"
           rx="71.000923"
           ry="64.000832" />
        <ellipse
           style="fill:#000000;fill-opacity:0;stroke:#000000;stroke-width:0.0185218"
           id="path19221"
           cx="994.87244"
           cy="53.055603"
           rx="76.368515"
           ry="58.832039" />
        <g
           aria-label="FRONT-END excites me FRONT-END excites me FRONT-END excites me"
           id="text19447"
           style="font-size:9.112px;stroke-width:0.0185218">
          <path
             d="m 1233.1961,82.924262 0.16,-3.043513 -1.2307,-0.0647 -0.1483,2.821358 -1.2797,-0.06727 0.1484,-2.821358 -2.8258,-0.148553 0.089,-1.697258 6.6157,0.34779 -0.2492,4.740771 z"
             id="path27255" />
          <path
             d="m 1231.6384,88.259409 q 0.2456,0.04206 0.4383,-0.02876 0.1927,-0.07082 0.3356,-0.299127 0.1,-0.159012 0.1517,-0.384798 0.057,-0.225035 0.1084,-0.527626 l 0.1044,-0.609566 -1.7585,-0.301177 -0.089,0.517473 q -0.069,0.403454 -0.076,0.682106 -0.01,0.278653 0.1017,0.486872 0.1059,0.198698 0.2547,0.305424 0.1523,0.111863 0.4286,0.15918 z m -4.98,1.850984 0.3523,-2.056737 2.6993,-1.370378 0.133,-0.77621 -2.3944,-0.410082 0.2869,-1.67521 6.5298,1.118337 -0.4837,2.824177 q -0.099,0.578868 -0.2363,0.984212 -0.1371,0.405344 -0.4187,0.731776 -0.2824,0.330818 -0.67,0.485616 -0.384,0.159934 -0.9102,0.06981 -0.7236,-0.123926 -1.1219,-0.53971 -0.399,-0.411399 -0.5949,-1.085945 z"
             id="path27257" />
          <path
             d="m 1227.6662,97.98322 q -1.5112,-0.474488 -2.1307,-1.620341 -0.6153,-1.14452 -0.1355,-2.672681 0.4785,-1.523916 1.6376,-2.111312 1.1633,-0.586063 2.6745,-0.111575 1.5239,0.478487 2.1349,1.621674 0.6153,1.14452 0.1368,2.668437 -0.4771,1.519671 -1.6375,2.111312 -1.1562,0.592973 -2.6801,0.114486 z m -0.9219,-2.663128 q 0.214,0.328347 0.5685,0.56558 0.3588,0.238565 0.8894,0.405169 0.5688,0.1786 1.0092,0.172294 0.4403,-0.0063 0.7532,-0.141245 0.3226,-0.13652 0.5265,-0.384941 0.2026,-0.244176 0.2986,-0.549809 0.097,-0.309877 0.073,-0.620448 -0.025,-0.306327 -0.2077,-0.615521 -0.1711,-0.286883 -0.5487,-0.55467 -0.3747,-0.26221 -0.9265,-0.435478 -0.5646,-0.177267 -1.0036,-0.175206 -0.4361,0.0076 -0.7532,0.141245 -0.3171,0.133608 -0.5252,0.380696 -0.2082,0.247089 -0.3068,0.561211 -0.099,0.314122 -0.069,0.635849 0.034,0.32306 0.2219,0.615274 z"
             id="path27259" />
          <path
             d="m 1221.4142,103.63884 0.7075,-1.48644 5.3142,-0.58486 -4.1058,-1.95414 0.6731,-1.414127 5.9819,2.847077 -0.8777,1.84398 -4.4651,0.55046 3.4269,1.63099 -0.6731,1.41413 z"
             id="path27261" />
          <path
             d="m 1222.2479,112.35364 1.116,-1.74205 -4.4994,-2.88251 0.9217,-1.4386 4.4993,2.88251 1.1161,-1.74205 1.0789,0.69122 -3.1537,4.9227 z"
             id="path27263" />
          <path
             d="m 1217.0302,114.08149 2.0941,-2.67192 1.0085,0.79042 -2.0941,2.67193 z"
             id="path27265" />
          <path
             d="m 1211.06,117.1677 3.2999,-3.47456 4.8037,4.56215 -3.2998,3.47457 -0.9291,-0.88241 2.1294,-2.24217 -0.8292,-0.78743 -1.9762,2.08087 -0.9291,-0.88241 1.9762,-2.08086 -1.1872,-1.12752 -2.1294,2.24217 z"
             id="path27267" />
          <path
             d="m 1205.364,121.991 1.2734,-1.04334 5.0569,1.73511 -2.8819,-3.51724 1.2114,-0.99258 4.1988,5.12444 -1.5797,1.2943 -4.2741,-1.40446 2.4054,2.93563 -1.2115,0.99258 z"
             id="path27269" />
          <path
             d="m 1200.3566,129.06462 q -0.4832,-0.78928 -0.506,-1.63608 -0.021,-0.84301 0.3253,-1.51377 0.2603,-0.50365 0.6933,-0.9043 0.4329,-0.40065 1.1083,-0.81414 l 1.9922,-1.21956 3.4589,5.65022 -2.0491,1.25441 q -0.6906,0.42278 -1.2635,0.61178 -0.5706,0.1928 -1.0422,0.18936 -0.8027,0.001 -1.5084,-0.40167 -0.707,-0.39661 -1.2088,-1.21625 z m 1.5134,-0.91084 q 0.3415,0.55781 0.788,0.82702 0.4451,0.27531 1.0223,0.22973 0.2912,-0.027 0.5497,-0.13309 0.2571,-0.1 0.7276,-0.38801 l 0.3681,-0.22533 -2.165,-3.5366 -0.3681,0.22533 q -0.5199,0.31824 -0.7349,0.51245 -0.2126,0.198 -0.3674,0.46493 -0.2591,0.47159 -0.2127,0.96488 0.049,0.49708 0.3924,1.05869 z"
             id="path27271" />
          <path
             d="m 1191.5581,131.88873 3.4082,-1.33863 q -0.1675,-0.42655 -0.4211,-0.695 -0.252,-0.26432 -0.5553,-0.37941 -0.2935,-0.1142 -0.6265,-0.0981 -0.3372,0.0177 -0.6934,0.1576 -0.4721,0.18543 -0.8751,0.55883 -0.4056,0.37918 -0.537,0.64109 l -0.041,0.0163 -0.3334,-0.84896 q 0.3284,-0.32017 0.6944,-0.59301 0.3661,-0.27284 0.8175,-0.45013 1.1512,-0.45218 2.0413,-0.0847 0.8916,0.37159 1.3422,1.51872 0.4456,1.1347 0.09,2.04379 -0.3593,0.91072 -1.3697,1.3076 -0.936,0.36759 -1.6559,0.0194 -0.7241,-0.34659 -1.1193,-1.35291 z m 0.9921,0.29869 q 0.2448,0.61128 0.683,0.82635 0.4341,0.21671 1.0553,-0.0273 0.6253,-0.24561 0.8532,-0.76057 0.2239,-0.51333 0.059,-1.07949 z"
             style="font-weight:normal;font-family:sans-serif;-inkscape-font-specification:'sans-serif Bold'"
             id="path27273" />
          <path
             d="m 1185.3316,131.21765 1.0145,-0.28756 1.8775,1.45173 0.8449,-2.22343 0.9375,-0.26572 -1.1905,2.9133 2.5287,1.87296 -1.0145,0.28756 -1.8604,-1.4242 -0.8407,2.18983 -0.9417,0.26693 1.2118,-2.88697 z"
             style="font-weight:normal;font-family:sans-serif;-inkscape-font-specification:'sans-serif Bold'"
             id="path27275" />
          <path
             d="m 1180.7032,132.4077 q 0.3744,-0.27351 0.7258,-0.45219 0.347,-0.17788 0.7625,-0.25538 0.5292,-0.0987 0.9995,-0.028 0.4712,0.0751 0.8448,0.33124 0.378,0.25535 0.6427,0.70384 0.2647,0.44848 0.3847,1.09143 0.2235,1.19841 -0.3053,2.0031 -0.5332,0.8055 -1.6135,1.007 -0.4199,0.0783 -0.8443,0.0353 -0.4288,-0.0422 -0.7974,-0.14998 l -0.1705,-0.91412 0.044,-0.008 q 0.4308,0.22288 0.8626,0.30529 0.4274,0.0832 0.8079,0.0122 0.6998,-0.13053 1.0185,-0.67877 0.3151,-0.54305 0.1454,-1.4528 -0.1648,-0.8835 -0.6474,-1.28682 -0.4861,-0.39813 -1.2034,-0.26434 -0.2493,0.0465 -0.4951,0.16024 -0.2459,0.11374 -0.4318,0.25706 -0.1622,0.12529 -0.3009,0.25526 -0.1379,0.13434 -0.2159,0.22583 l -0.044,0.008 z"
             style="font-weight:normal;font-family:sans-serif;-inkscape-font-specification:'sans-serif Bold'"
             id="path27277" />
          <path
             d="m 1179.369,138.07697 0.9366,-0.11197 0.103,0.86147 -0.9366,0.11196 z m -0.6356,-5.7671 0.8305,-0.0993 0.5899,4.93464 -0.8305,0.0993 z"
             style="font-weight:normal;font-family:sans-serif;-inkscape-font-specification:'sans-serif Bold'"
             id="path27279" />
          <path
             d="m 1174.5051,132.68777 q 0.2313,-0.0773 0.5084,-0.13533 0.2727,-0.0577 0.4903,-0.0717 0.7592,-0.049 1.1807,0.33405 0.4215,0.383 0.4796,1.28432 l 0.1701,2.63736 0.5639,-0.0364 0.045,0.70152 -0.5639,0.0364 0.092,1.42524 -0.8347,0.0538 -0.092,-1.42524 -1.7227,0.11108 -0.045,-0.70152 1.7227,-0.11108 -0.1457,-2.25996 q -0.025,-0.39072 -0.057,-0.61157 -0.032,-0.21642 -0.1507,-0.40047 -0.1091,-0.1713 -0.2833,-0.24478 -0.1783,-0.0687 -0.529,-0.0461 -0.2043,0.0132 -0.4226,0.0852 -0.2179,0.0765 -0.3131,0.12273 l -0.044,0.003 z"
             style="font-weight:normal;font-family:sans-serif;-inkscape-font-specification:'sans-serif Bold'"
             id="path27281" />
          <path
             d="m 1169.2896,135.01238 3.6613,0.0569 q 0.01,-0.45821 -0.1255,-0.8029 -0.1326,-0.34025 -0.3694,-0.56197 -0.2281,-0.21713 -0.5423,-0.32881 -0.3186,-0.11175 -0.7012,-0.1177 -0.5071,-0.008 -1.0218,0.18435 -0.5193,0.19662 -0.7403,0.38897 l -0.044,-6.9e-4 0.014,-0.91198 q 0.4254,-0.17138 0.8677,-0.28465 0.4423,-0.11326 0.9272,-0.10572 1.2367,0.0192 1.9203,0.69732 0.6836,0.68254 0.6644,1.91483 -0.019,1.21894 -0.6929,1.92487 -0.6785,0.70586 -1.764,0.68898 -1.0054,-0.0156 -1.539,-0.6113 -0.538,-0.59573 -0.5212,-1.67676 z m 0.8042,0.65327 q -0.01,0.65848 0.3178,1.02394 0.3192,0.36539 0.9865,0.37577 0.6717,0.0104 1.0782,-0.37927 0.4021,-0.38977 0.4646,-0.97617 z"
             style="font-weight:normal;font-family:sans-serif;-inkscape-font-specification:'sans-serif Bold'"
             id="path27283" />
          <path
             d="m 1164.3787,133.55406 q 0.072,-0.6769 0.6803,-1.05059 0.6036,-0.37417 1.5725,-0.27092 0.5486,0.0585 0.995,0.2358 0.4416,0.18129 0.7348,0.36913 l -0.1,0.9335 -0.044,-0.005 q -0.3621,-0.33838 -0.8255,-0.56674 -0.4638,-0.22393 -0.9063,-0.27108 -0.5486,-0.0585 -0.8771,0.0855 -0.3286,0.14396 -0.3691,0.52444 -0.031,0.29199 0.121,0.46033 0.1521,0.16834 0.6186,0.32544 0.1727,0.0587 0.4546,0.14241 0.2775,0.0833 0.5054,0.17019 0.6319,0.24185 0.8709,0.60289 0.234,0.365 0.1822,0.85165 -0.033,0.30527 -0.1852,0.56195 -0.1571,0.2562 -0.4363,0.44121 -0.2699,0.18154 -0.6631,0.26044 -0.3981,0.0829 -0.8715,0.0324 -0.4424,-0.0471 -0.8819,-0.20584 -0.4444,-0.15475 -0.7287,-0.34165 l 0.095,-0.88926 0.044,0.005 q 0.2935,0.26842 0.7322,0.47625 0.4383,0.21226 0.8763,0.25893 0.4557,0.0486 0.7886,-0.0949 0.3325,-0.13907 0.3693,-0.48415 0.033,-0.30527 -0.1412,-0.48039 -0.1693,-0.17465 -0.5748,-0.3163 -0.2244,-0.0776 -0.5019,-0.16087 -0.2819,-0.0837 -0.4674,-0.14825 -0.5654,-0.19448 -0.8451,-0.55092 -0.2793,-0.36086 -0.2218,-0.90061 z"
             style="font-weight:normal;font-family:sans-serif;-inkscape-font-specification:'sans-serif Bold'"
             id="path27285" />
          <path
             d="m 1153.2171,129.35931 0.8023,0.23674 -0.8009,2.714 q -0.091,0.30724 -0.1452,0.60197 -0.059,0.29346 -0.02,0.4906 0.044,0.21246 0.1998,0.36048 0.1558,0.14803 0.5014,0.25003 0.3372,0.0995 0.7247,0.0283 0.3862,-0.067 0.8001,-0.22777 0.016,-0.10193 0.047,-0.23673 0.029,-0.13054 0.067,-0.25856 l 0.9004,-3.05112 0.8022,0.23674 -0.8009,2.714 q -0.093,0.31578 -0.1464,0.60624 -0.059,0.29347 -0.019,0.4906 0.044,0.21246 0.201,0.35622 0.1558,0.14803 0.5015,0.25003 0.3286,0.097 0.7093,0.033 0.3764,-0.0652 0.7793,-0.22 l 1.0502,-3.55893 0.8022,0.23674 -1.4065,4.76657 -0.8023,-0.23674 0.1561,-0.52914 q -0.4674,0.2007 -0.8903,0.2661 -0.4271,0.0641 -0.8496,-0.0605 -0.4865,-0.14355 -0.7631,-0.44786 -0.281,-0.30557 -0.3404,-0.7174 -0.6073,0.2661 -1.0613,0.32696 -0.4553,0.0651 -0.9119,-0.0696 -0.7852,-0.2317 -1.0154,-0.8192 -0.2358,-0.58448 0.016,-1.43794 z"
             style="font-weight:normal;font-family:sans-serif;-inkscape-font-specification:'sans-serif Bold'"
             id="path27287" />
          <path
             d="m 1146.9634,129.20635 3.3489,1.48096 q 0.1853,-0.41911 0.1978,-0.78822 0.011,-0.36503 -0.121,-0.66159 -0.1252,-0.28888 -0.3709,-0.5143 -0.2498,-0.22722 -0.5997,-0.38198 -0.4639,-0.20514 -1.0128,-0.22897 -0.5548,-0.0216 -0.8334,0.0693 l -0.041,-0.018 0.3689,-0.83416 q 0.4585,0.008 0.91,0.0765 0.4514,0.0683 0.8949,0.26442 1.1312,0.50025 1.4961,1.39133 0.363,0.89515 -0.1354,2.02229 -0.4931,1.11493 -1.3891,1.50193 -0.9,0.3852 -1.8929,-0.0539 -0.9196,-0.40668 -1.1785,-1.16333 -0.263,-0.75845 0.1743,-1.74724 z m 0.4856,0.91525 q -0.2623,0.60403 -0.1069,1.06678 0.1512,0.46096 0.7616,0.73088 0.6144,0.27172 1.1408,0.0715 0.5223,-0.20199 0.8087,-0.71752 z"
             style="font-weight:normal;font-family:sans-serif;-inkscape-font-specification:'sans-serif Bold'"
             id="path27289" />
          <path
             d="m 1137.0916,126.75165 2.5552,1.66117 0.6717,-1.03327 -2.3687,-1.53992 0.6985,-1.0743 2.3687,1.53991 1.5423,-2.37243 1.4249,0.92637 -3.6109,5.55432 -3.9801,-2.58754 z"
             id="path27291" />
          <path
             d="m 1133.2525,122.7326 q -0.1593,0.1916 -0.1943,0.39387 -0.035,0.20227 0.091,0.44024 0.088,0.16567 0.2573,0.32383 0.1665,0.16158 0.4026,0.35783 l 0.4756,0.39534 1.1405,-1.37199 -0.4037,-0.33562 q -0.3148,-0.26166 -0.5525,-0.40721 -0.2378,-0.14554 -0.4725,-0.15551 -0.225,-0.008 -0.3918,0.0677 -0.1731,0.076 -0.3523,0.29153 z m 0.8886,-5.23801 1.6047,1.33392 -0.1639,3.02284 0.6056,0.50342 1.553,-1.8681 1.3069,1.08648 -4.2349,5.09451 -2.2034,-1.83165 q -0.4517,-0.37543 -0.734,-0.69695 -0.2824,-0.32152 -0.4242,-0.72866 -0.1452,-0.40998 -0.085,-0.82306 0.054,-0.4125 0.3949,-0.82308 0.4693,-0.56453 1.0286,-0.70136 0.5558,-0.13967 1.2379,0.0281 z"
             id="path27293" />
          <path
             d="m 1126.816,114.43993 q 1.1651,-1.07298 2.4672,-1.03826 1.2989,0.0377 2.384,1.21595 1.082,1.17495 1.0128,2.47253 -0.072,1.30059 -1.2376,2.37357 -1.1749,1.08203 -2.4705,1.04128 -1.2989,-0.0377 -2.3809,-1.21268 -1.079,-1.17167 -1.0129,-2.47253 0.063,-1.29784 1.2379,-2.37986 z m 2.7679,0.5296 q -0.3913,0.0217 -0.7738,0.21059 -0.3857,0.19193 -0.7948,0.56868 -0.4386,0.40388 -0.6528,0.78865 -0.2142,0.38477 -0.2533,0.72323 -0.043,0.34775 0.071,0.64841 0.1105,0.29738 0.3275,0.53302 0.2201,0.23892 0.5011,0.37329 0.278,0.1311 0.6371,0.12699 0.334,-0.005 0.7544,-0.19879 0.4142,-0.19392 0.8397,-0.58573 0.4352,-0.40087 0.6525,-0.78237 0.2109,-0.38175 0.2533,-0.72322 0.042,-0.34147 -0.068,-0.64514 -0.1103,-0.30367 -0.3333,-0.54586 -0.2231,-0.24219 -0.5166,-0.37708 -0.2969,-0.13187 -0.644,-0.11467 z"
             id="path27295" />
          <path
             d="m 1125.0242,106.20673 0.9374,1.35327 -2.1369,4.9007 3.738,-2.58915 0.8917,1.28744 -5.446,3.77226 -1.1628,-1.6788 1.7442,-4.14703 -3.1199,2.16101 -0.8917,-1.28744 z"
             id="path27297" />
          <path
             d="m 1117.0482,102.59603 0.9562,1.83466 4.7386,-2.46966 0.7896,1.51508 -4.7385,2.46965 0.9562,1.83466 -1.1364,0.59223 -2.702,-5.1844 z"
             id="path27299" />
          <path
             d="m 1118.1463,97.207489 1.2742,3.146551 -1.1877,0.48095 -1.2742,-3.146546 z"
             id="path27301" />
          <path
             d="m 1118.449,90.491545 1.3641,4.593543 -6.3508,1.885941 -1.3641,-4.593543 1.2283,-0.364776 0.8803,2.964264 1.0961,-0.325512 -0.8169,-2.751007 1.2284,-0.364776 0.8169,2.751008 1.5696,-0.466103 -0.8803,-2.964264 z"
             id="path27303" />
          <path
             d="m 1117.1219,83.146578 0.2663,1.624528 -4.0324,3.510454 4.4873,-0.735584 0.2533,1.545497 -6.5376,1.071707 -0.3304,-2.015293 3.3544,-2.998051 -3.7452,0.613946 -0.2534,-1.545497 z"
             id="path27305" />
          <path
             d="m 1113.5024,75.273082 q 0.9251,-0.02386 1.6699,0.379752 0.7403,0.403725 1.1483,1.038554 0.3061,0.477233 0.4367,1.052457 0.1305,0.575224 0.1509,1.366922 l 0.06,2.335064 -6.6226,0.170788 -0.062,-2.401779 q -0.021,-0.809489 0.1019,-1.400146 0.1183,-0.590543 0.357,-0.997263 0.4004,-0.695734 1.102,-1.105487 0.697,-0.414086 1.6577,-0.438862 z m 0.032,1.766097 q -0.6538,0.01686 -1.1102,0.268968 -0.4609,0.247774 -0.7101,0.770479 -0.1222,0.265743 -0.1595,0.54265 -0.042,0.272574 -0.028,0.824094 l 0.011,0.43143 4.1453,-0.1069 -0.011,-0.431431 q -0.016,-0.609341 -0.076,-0.89262 -0.065,-0.283164 -0.2189,-0.550691 -0.2789,-0.460131 -0.7293,-0.6666 -0.4549,-0.206354 -1.1131,-0.189379 z"
             id="path27307" />
          <path
             d="m 1115.4371,66.244399 -0.5366,3.622177 q 0.4533,0.06716 0.8124,-0.01908 0.3547,-0.08688 0.6056,-0.292601 0.2452,-0.197566 0.3971,-0.494403 0.1526,-0.301237 0.2086,-0.679739 0.074,-0.501736 -0.049,-1.037212 -0.1268,-0.54053 -0.2886,-0.784876 l 0.01,-0.04401 0.9022,0.133659 q 0.1141,0.444192 0.1684,0.897514 0.054,0.453321 -0.017,0.93305 -0.1812,1.223531 -0.9431,1.812317 -0.7663,0.588134 -1.9854,0.407531 -1.206,-0.178647 -1.8174,-0.939395 -0.6108,-0.765149 -0.4517,-1.839039 0.1473,-0.994668 0.8078,-1.44555 0.6612,-0.455283 1.7307,-0.296848 z m -0.7531,0.71153 q -0.652,-0.09209 -1.0568,0.180782 -0.4041,0.268475 -0.5019,0.928653 -0.098,0.664579 0.2346,1.118714 0.3337,0.449733 0.9068,0.588611 z"
             style="font-weight:normal;font-family:sans-serif;-inkscape-font-specification:'sans-serif Bold'"
             id="path27309" />
          <path
             d="m 1119.1182,61.178914 -0.2556,1.023021 -2.1936,0.905701 1.5077,1.839621 -0.2361,0.945324 -1.9342,-2.482695 -2.8831,1.26083 0.2556,-1.02302 2.1613,-0.904618 -1.4808,-1.819122 0.2372,-0.94964 1.9007,2.488096 z"
             style="font-weight:normal;font-family:sans-serif;-inkscape-font-specification:'sans-serif Bold'"
             id="path27311" />
          <path
             d="m 1120.3903,56.572343 q 0.051,0.460891 0.031,0.854586 -0.019,0.389497 -0.1581,0.788433 -0.1779,0.508119 -0.4734,0.880798 -0.2996,0.371209 -0.7078,0.567714 -0.4097,0.200705 -0.9304,0.206968 -0.5208,0.0063 -1.1381,-0.209841 -1.1506,-0.402805 -1.5852,-1.262039 -0.4331,-0.863433 -0.07,-1.900668 0.1412,-0.403136 0.3898,-0.749782 0.2501,-0.350845 0.5271,-0.61686 l 0.8776,0.30725 -0.015,0.04199 q -0.4078,0.262646 -0.6942,0.596061 -0.2849,0.329216 -0.4128,0.694558 -0.2353,0.671893 0.082,1.2212 0.314,0.543639 1.1875,0.849418 0.8483,0.296959 1.4383,0.07926 0.5873,-0.223369 0.8284,-0.912059 0.084,-0.239362 0.1075,-0.509174 0.024,-0.269812 -0.01,-0.502463 -0.028,-0.203044 -0.072,-0.388032 -0.048,-0.186458 -0.088,-0.299636 l 0.015,-0.04199 z"
             style="font-weight:normal;font-family:sans-serif;-inkscape-font-specification:'sans-serif Bold'"
             id="path27313" />
          <path
             d="m 1116.1393,52.591054 -0.3694,0.867855 -0.7983,-0.339857 0.3695,-0.867855 z m 5.3172,2.321809 -0.3276,0.769607 -4.5726,-1.946771 0.3276,-0.769607 z"
             style="font-weight:normal;font-family:sans-serif;-inkscape-font-specification:'sans-serif Bold'"
             id="path27315" />
          <path
             d="m 1123.2367,51.05918 q -0.048,0.239063 -0.1362,0.508209 -0.086,0.265156 -0.1823,0.46073 -0.3362,0.682516 -0.8784,0.856877 -0.5421,0.174361 -1.3524,-0.224725 l -2.3708,-1.167768 -0.2497,0.506897 -0.6306,-0.310618 0.2497,-0.506898 -1.2812,-0.631067 0.3695,-0.750368 1.2813,0.631067 0.7627,-1.548632 0.6307,0.310619 -0.7628,1.548632 2.0316,1.000663 q 0.3512,0.173003 0.5586,0.255334 0.2035,0.08037 0.4223,0.06911 0.2029,-0.0092 0.3534,-0.123489 0.1485,-0.120274 0.3039,-0.435588 0.09,-0.183601 0.1368,-0.408724 0.042,-0.227089 0.05,-0.332592 l 0.02,-0.03991 z"
             style="font-weight:normal;font-family:sans-serif;-inkscape-font-specification:'sans-serif Bold'"
             id="path27317" />
          <path
             d="m 1123.8294,45.379758 -1.8795,3.142588 q 0.3933,0.235214 0.7581,0.292681 0.361,0.05518 0.6715,-0.03912 0.302,-0.08895 0.5558,-0.305249 0.256,-0.220121 0.4524,-0.548508 0.2604,-0.435304 0.3511,-0.97719 0.089,-0.547987 0.033,-0.835571 l 0.023,-0.03818 0.7828,0.468144 q -0.064,0.454098 -0.1872,0.893783 -0.123,0.439685 -0.3719,0.855897 -0.6348,1.06153 -1.5638,1.314665 -0.9329,0.250851 -1.9906,-0.381714 -1.0462,-0.625715 -1.3208,-1.562328 -0.2722,-0.940433 0.285,-1.872135 0.5161,-0.862971 1.2988,-1.027384 0.7849,-0.16823 1.7128,0.386691 z m -0.9678,0.369935 q -0.5674,-0.334159 -1.0457,-0.236567 -0.476,0.09377 -0.8186,0.666542 -0.3448,0.576586 -0.2105,1.12349 0.1366,0.543085 0.6133,0.890346 z"
             style="font-weight:normal;font-family:sans-serif;-inkscape-font-specification:'sans-serif Bold'"
             id="path27319" />
          <path
             d="m 1127.5516,41.857028 q 0.5499,0.401266 0.5691,1.114731 0.022,0.709871 -0.5526,1.49697 -0.3252,0.445663 -0.7022,0.743389 -0.378,0.291508 -0.6874,0.4513 l -0.7583,-0.553379 0.026,-0.03594 q 0.4742,-0.144153 0.9039,-0.431 0.426,-0.289469 0.6883,-0.648875 0.3252,-0.445664 0.365,-0.802154 0.04,-0.35649 -0.2693,-0.582038 -0.2372,-0.173094 -0.459,-0.12569 -0.2219,0.0474 -0.5914,0.372619 -0.1372,0.120158 -0.3508,0.322301 -0.211,0.198548 -0.4003,0.352316 -0.5257,0.426043 -0.9579,0.452176 -0.4331,0.01992 -0.8285,-0.268575 -0.248,-0.180963 -0.3938,-0.441578 -0.1431,-0.264209 -0.1635,-0.598552 -0.022,-0.324532 0.1064,-0.704432 0.1276,-0.386117 0.4082,-0.770682 0.2622,-0.359406 0.6196,-0.660434 0.3564,-0.307244 0.6605,-0.459848 l 0.7224,0.527153 -0.026,0.03594 q -0.3793,0.119772 -0.7788,0.395545 -0.4031,0.27315 -0.6628,0.628962 -0.2701,0.370188 -0.3126,0.730272 -0.046,0.357462 0.2343,0.562029 0.248,0.180962 0.4866,0.11821 0.2359,-0.05916 0.5615,-0.339301 0.1795,-0.155419 0.3905,-0.353967 0.2136,-0.202142 0.3623,-0.33046 0.4514,-0.392143 0.9,-0.455867 0.4522,-0.0611 0.8906,0.25886 z"
             style="font-weight:normal;font-family:sans-serif;-inkscape-font-specification:'sans-serif Bold'"
             id="path27321" />
          <path
             d="m 1136.7613,34.285224 -0.6055,0.577043 -1.9522,-2.04852 q -0.221,-0.231908 -0.4492,-0.426225 -0.2249,-0.197387 -0.4153,-0.261768 -0.2061,-0.06791 -0.4121,-0.0068 -0.2061,0.06112 -0.467,0.309742 -0.2544,0.242481 -0.3861,0.613799 -0.1347,0.368098 -0.202,0.807056 0.08,0.06487 0.1819,0.158584 0.099,0.09049 0.1906,0.187118 l 2.1946,2.302974 -0.6055,0.577043 -1.9522,-2.04852 q -0.2271,-0.238349 -0.4522,-0.429446 -0.225,-0.197387 -0.4154,-0.261768 -0.2061,-0.0679 -0.409,-0.0036 -0.2061,0.06112 -0.467,0.309742 -0.248,0.236342 -0.3826,0.598149 -0.1313,0.358738 -0.1983,0.785116 l 2.5599,2.686266 -0.6055,0.577043 -3.4285,-3.597793 0.6055,-0.577043 0.3806,0.399397 q 0.059,-0.505234 0.2138,-0.904328 0.1576,-0.402164 0.4764,-0.706033 0.3672,-0.349909 0.769,-0.437784 0.405,-0.09095 0.7915,0.06313 0.072,-0.659119 0.2464,-1.08292 0.1708,-0.427022 0.5154,-0.755446 0.5927,-0.564765 1.2167,-0.471055 0.6241,0.08742 1.238,0.731607 z"
             style="font-weight:normal;font-family:sans-serif;-inkscape-font-specification:'sans-serif Bold'"
             id="path27323" />
          <path
             d="m 1140.006,28.937048 -2.9513,2.167453 q 0.2713,0.369363 0.5852,0.563846 0.3114,0.190898 0.6341,0.224399 0.3128,0.03518 0.6307,-0.06574 0.3214,-0.103554 0.6298,-0.330044 0.4088,-0.30023 0.7026,-0.764466 0.2949,-0.470456 0.3547,-0.757288 l 0.036,-0.02634 0.5399,0.735138 q -0.2354,0.393634 -0.5193,0.751184 -0.2839,0.357549 -0.6748,0.644612 -0.9969,0.732141 -1.9513,0.605077 -0.9571,-0.130651 -1.6866,-1.123985 -0.7217,-0.982575 -0.6113,-1.952334 0.1139,-0.972393 0.9888,-1.614992 0.8105,-0.595194 1.5956,-0.443135 0.7887,0.149424 1.4287,1.020832 z m -1.0354,-0.03444 q -0.3934,-0.528101 -0.8721,-0.623684 -0.4751,-0.09822 -1.013,0.296824 -0.5415,0.397673 -0.6299,0.953855 -0.085,0.553548 0.2199,1.058509 z"
             style="font-weight:normal;font-family:sans-serif;-inkscape-font-specification:'sans-serif Bold'"
             id="path27325" />
          <path
             d="m 1147.0445,21.593538 -2.7121,1.39044 0.5623,1.0967 2.5141,-1.288948 0.5846,1.140251 -2.5141,1.288948 1.291,2.518054 -1.5124,0.775399 -3.0225,-5.895256 4.2245,-2.165839 z"
             id="path27327" />
          <path
             d="m 1152.4465,20.263932 q -0.087,-0.233566 -0.2447,-0.36477 -0.1579,-0.131203 -0.4271,-0.140382 -0.1874,-0.0063 -0.4089,0.06172 -0.2231,0.06387 -0.5109,0.170759 l -0.5798,0.215327 0.6212,1.672502 0.4922,-0.182795 q 0.3837,-0.142519 0.6284,-0.276101 0.2446,-0.133582 0.3702,-0.332112 0.1188,-0.19126 0.1366,-0.373464 0.02,-0.187925 -0.077,-0.450687 z m 4.0985,3.380547 -1.9561,0.726533 -2.5392,-1.648332 -0.7382,0.274193 0.8458,2.277271 -1.5932,0.591761 -2.3067,-6.210362 2.686,-0.997628 q 0.5506,-0.204483 0.9701,-0.289086 0.4194,-0.0846 0.8431,-0.0046 0.4278,0.07842 0.7561,0.336176 0.3309,0.252039 0.5168,0.752539 0.2556,0.688186 0.095,1.241234 -0.1558,0.551498 -0.6412,1.059259 z"
             id="path27329" />
          <path
             d="m 1162.8523,18.826532 q 0.347,1.545448 -0.3339,2.655924 -0.6819,1.106135 -2.2447,1.457021 -1.5585,0.349911 -2.6478,-0.358553 -1.0903,-0.712805 -1.4373,-2.258253 -0.3499,-1.558471 0.333,-2.660264 0.6819,-1.106135 2.2404,-1.456046 1.5541,-0.348937 2.6477,0.358552 1.0927,0.703148 1.4426,2.261619 z m -1.8422,2.132726 q 0.1768,-0.34978 0.2044,-0.775482 0.027,-0.430043 -0.095,-0.972686 -0.1306,-0.581713 -0.3568,-0.959566 -0.2262,-0.377852 -0.4998,-0.580905 -0.2799,-0.21076 -0.597,-0.262667 -0.3129,-0.05288 -0.6254,0.0173 -0.3169,0.07115 -0.5738,0.247376 -0.2524,0.175249 -0.4284,0.488351 -0.1625,0.291838 -0.2049,0.752801 -0.039,0.455648 0.088,1.019997 0.1296,0.577372 0.3515,0.956199 0.2252,0.373512 0.4997,0.580905 0.2746,0.207393 0.5927,0.263642 0.3182,0.05625 0.6394,-0.01588 0.3213,-0.07213 0.5849,-0.258982 0.2625,-0.191197 0.4211,-0.5004 z"
             id="path27331" />
          <path
             d="m 1170.8796,21.396729 -1.6407,0.134346 -3.1736,-4.302458 0.3711,4.531935 -1.5609,0.127809 -0.5407,-6.602789 2.0354,-0.166661 2.7176,3.585363 -0.3097,-3.782524 1.5609,-0.12781 z"
             id="path27333" />
          <path
             d="m 1177.989,16.288663 -2.0671,-0.08684 -0.2243,5.338802 -1.7069,-0.07172 0.2243,-5.338802 -2.0671,-0.08684 0.054,-1.280245 5.8411,0.2454 z"
             id="path27335" />
          <path
             d="m 1182.1089,19.923525 -3.3632,-0.462317 0.1745,-1.269437 3.3632,0.462317 z"
             id="path27337" />
          <path
             d="m 1187.7821,23.529049 -4.663,-1.103533 1.5257,-6.446815 4.663,1.103534 -0.2951,1.246932 -3.0091,-0.712122 -0.2633,1.112714 2.7926,0.660891 -0.2951,1.246932 -2.7926,-0.66089 -0.377,1.593302 3.009,0.712123 z"
             id="path27339" />
          <path
             d="m 1194.8128,26.035007 -1.5414,-0.578046 -1.0362,-5.244925 -1.5967,4.257561 -1.4664,-0.549924 2.3263,-6.203042 1.9121,0.717089 0.9295,4.401843 1.3326,-3.553522 1.4664,0.549924 z"
             id="path27341" />
          <path
             d="m 1203.443,26.827136 q -0.4411,0.8135 -1.1627,1.257317 -0.7194,0.439906 -1.4732,0.476516 -0.5663,0.02693 -1.1298,-0.147132 -0.5636,-0.174059 -1.2598,-0.55162 l -2.0533,-1.113591 3.1584,-5.823565 2.1119,1.145409 q 0.7118,0.386045 1.1623,0.787276 0.4527,0.397321 0.6859,0.807242 0.4029,0.694293 0.4077,1.506721 0.011,0.810638 -0.4474,1.655427 z m -1.5463,-0.853821 q 0.3118,-0.574925 0.3212,-1.096216 0.015,-0.523081 -0.3131,-0.999884 -0.1692,-0.238567 -0.3905,-0.409188 -0.2152,-0.17241 -0.7002,-0.43543 l -0.3794,-0.205749 -1.9769,3.645105 0.3794,0.20575 q 0.5358,0.290594 0.8116,0.379414 0.2779,0.08491 0.5864,0.08523 0.538,-0.01195 0.9417,-0.299116 0.4059,-0.291081 0.7198,-0.869918 z"
             id="path27343" />
          <path
             d="m 1210.2945,33.024312 -2.8674,-2.277205 q -0.285,0.35887 -0.3901,0.712928 -0.1023,0.350573 -0.05,0.670713 0.048,0.311122 0.2293,0.591197 0.1845,0.282841 0.4841,0.520799 0.3972,0.315433 0.9224,0.476845 0.5315,0.160695 0.8239,0.142972 l 0.035,0.02767 -0.5672,0.714257 q -0.4417,-0.123494 -0.8614,-0.30335 -0.4196,-0.179855 -0.7994,-0.481454 -0.9686,-0.769213 -1.0971,-1.723485 -0.1257,-0.957757 0.6408,-1.922874 0.7581,-0.954665 1.7227,-1.103342 0.9681,-0.145909 1.8183,0.529228 0.7874,0.625332 0.8472,1.422813 0.063,0.800247 -0.609,1.646902 z m -0.2391,-1.008075 q 0.406,-0.518426 0.3723,-1.005399 -0.03,-0.484206 -0.5528,-0.89925 -0.5262,-0.41781 -1.086,-0.356744 -0.5563,0.06383 -0.9634,0.490541 z"
             style="font-weight:normal;font-family:sans-serif;-inkscape-font-specification:'sans-serif Bold'"
             id="path27345" />
          <path
             d="m 1212.8411,38.742925 -0.7586,-0.732483 0.3114,-2.352767 -2.3469,0.387115 -0.7009,-0.676852 3.1169,-0.435178 0.3481,-3.127461 0.7586,0.732483 -0.2961,2.324182 2.3156,-0.373983 0.7041,0.679943 -3.1049,0.403501 z"
             style="font-weight:normal;font-family:sans-serif;-inkscape-font-specification:'sans-serif Bold'"
             id="path27347" />
          <path
             d="m 1216.2003,42.142172 q -0.4249,-0.185732 -0.7562,-0.399305 -0.3284,-0.210205 -0.6047,-0.530143 -0.3518,-0.407501 -0.5276,-0.849409 -0.1724,-0.444816 -0.1392,-0.896637 0.03,-0.455188 0.2843,-0.909726 0.2542,-0.454538 0.7493,-0.881943 0.9227,-0.796659 1.8842,-0.745066 0.9644,0.05496 1.6826,0.886801 0.2791,0.323306 0.4557,0.711645 0.1794,0.391705 0.272,0.764417 l -0.7039,0.607671 -0.029,-0.03368 q -0.024,-0.484432 -0.1706,-0.898938 -0.1434,-0.411137 -0.3963,-0.704134 -0.4652,-0.538843 -1.0993,-0.538035 -0.6279,0.0013 -1.3284,0.606033 -0.6803,0.587318 -0.7857,1.207337 -0.099,0.620479 0.3777,1.172794 0.1658,0.191963 0.3878,0.347049 0.2221,0.155086 0.4396,0.243591 0.1899,0.07702 0.372,0.131388 0.1855,0.05146 0.3038,0.07276 l 0.029,0.03368 z"
             style="font-weight:normal;font-family:sans-serif;-inkscape-font-specification:'sans-serif Bold'"
             id="path27349" />
          <path
             d="m 1221.7695,40.436903 -0.5687,-0.752487 0.6921,-0.523125 0.5687,0.752486 z m -4.6607,3.455642 -0.5044,-0.667299 3.9648,-2.996572 0.5043,0.667299 z"
             style="font-weight:normal;font-family:sans-serif;-inkscape-font-specification:'sans-serif Bold'"
             id="path27351" />
          <path
             d="m 1219.566,47.354084 q -0.1834,-0.160836 -0.3731,-0.371003 -0.1873,-0.206476 -0.309,-0.387331 -0.4249,-0.631147 -0.3064,-1.188212 0.1184,-0.557064 0.8677,-1.061415 l 2.1924,-1.475787 -0.3156,-0.468747 0.5832,-0.392549 0.3155,0.468747 1.1848,-0.797522 0.4671,0.693893 -1.1848,0.797521 0.964,1.432075 -0.5832,0.39255 -0.9639,-1.432076 -1.8787,1.264605 q -0.3248,0.218635 -0.4994,0.357623 -0.1709,0.136504 -0.27,0.331919 -0.093,0.18058 -0.069,0.36804 0.03,0.188666 0.2267,0.480249 0.1143,0.169782 0.2865,0.322029 0.1759,0.149763 0.2638,0.208603 l 0.025,0.03691 z"
             style="font-weight:normal;font-family:sans-serif;-inkscape-font-specification:'sans-serif Bold'"
             id="path27353" />
          <path
             d="m 1224.1988,50.692452 -1.7918,-3.193356 q -0.3997,0.224248 -0.631,0.512175 -0.2274,0.285749 -0.2999,0.601957 -0.073,0.306272 -0.012,0.634014 0.064,0.331622 0.2509,0.665314 0.2482,0.442336 0.6731,0.79058 0.4311,0.349946 0.7085,0.444278 l 0.022,0.0388 -0.7955,0.44632 q -0.362,-0.281527 -0.6823,-0.606877 -0.3203,-0.325351 -0.5576,-0.748286 -0.6053,-1.078679 -0.3629,-2.010556 0.2463,-0.934055 1.3211,-1.53713 1.0631,-0.596544 2.0122,-0.368927 0.9513,0.231498 1.4825,1.178252 0.4921,0.876912 0.2455,1.637675 -0.2444,0.764643 -1.1873,1.293695 z m 0.1603,-1.023578 q 0.5721,-0.326101 0.7253,-0.789582 0.1553,-0.4596 -0.1713,-1.041622 -0.3287,-0.585901 -0.87,-0.741346 -0.5391,-0.151564 -1.0774,0.08926 z"
             style="font-weight:normal;font-family:sans-serif;-inkscape-font-specification:'sans-serif Bold'"
             id="path27355" />
          <path
             d="m 1225.4026,55.674974 q -0.6217,0.277237 -1.25,-0.06125 -0.6266,-0.334427 -1.0234,-1.224337 -0.2247,-0.503876 -0.2953,-0.97903 -0.065,-0.472902 -0.049,-0.820769 l 0.8574,-0.382334 0.018,0.04064 q -0.111,0.483058 -0.076,0.998462 0.039,0.513591 0.2202,0.919943 0.2247,0.503876 0.5141,0.715842 0.2894,0.211966 0.6388,0.05613 0.2682,-0.119593 0.3375,-0.335615 0.069,-0.216022 -0.029,-0.69837 -0.036,-0.178848 -0.1049,-0.464721 -0.067,-0.281809 -0.1063,-0.522544 -0.1079,-0.668005 0.085,-1.055844 0.1983,-0.385587 0.6453,-0.584908 0.2804,-0.125029 0.579,-0.121783 0.3004,0.0073 0.6005,0.156017 0.2925,0.142392 0.558,0.442931 0.2715,0.302789 0.4653,0.737586 0.1813,0.406351 0.2645,0.86613 0.089,0.462031 0.07,0.80177 l -0.8168,0.364214 -0.018,-0.04064 q 0.085,-0.38861 0.045,-0.872384 -0.036,-0.485587 -0.2157,-0.887875 -0.1867,-0.418542 -0.4778,-0.634572 -0.2872,-0.217841 -0.6041,-0.0765 -0.2804,0.125028 -0.3447,0.36318 -0.066,0.234088 0.015,0.655923 0.045,0.233047 0.1127,0.514856 0.069,0.285873 0.1063,0.478724 0.1154,0.586681 -0.053,1.007467 -0.172,0.422599 -0.6678,0.643664 z"
             style="font-weight:normal;font-family:sans-serif;-inkscape-font-specification:'sans-serif Bold'"
             id="path27357" />
          <path
             d="m 1227.3684,67.436533 -0.1973,-0.812847 2.7499,-0.66751 q 0.3113,-0.07557 0.5936,-0.176152 0.2834,-0.09626 0.4343,-0.22904 0.1618,-0.144574 0.2118,-0.353582 0.05,-0.209007 -0.035,-0.559223 -0.083,-0.341569 -0.3387,-0.641156 -0.2516,-0.300637 -0.5982,-0.578183 -0.096,0.03711 -0.2283,0.07829 -0.1276,0.04013 -0.2573,0.07162 l -3.0914,0.750424 -0.1973,-0.812848 2.7498,-0.667509 q 0.32,-0.07767 0.598,-0.177202 0.2834,-0.09626 0.4343,-0.22904 0.1618,-0.144574 0.2074,-0.352532 0.05,-0.209007 -0.035,-0.559224 -0.081,-0.332921 -0.327,-0.630284 -0.2451,-0.293039 -0.581,-0.564037 l -3.6059,0.875319 -0.1973,-0.812847 4.8295,-1.17234 0.1973,0.812847 -0.5361,0.130143 q 0.408,0.303866 0.6765,0.636992 0.2697,0.337451 0.3736,0.765493 0.1196,0.492897 0,0.884844 -0.1236,0.39627 -0.4502,0.654104 0.5348,0.392141 0.815,0.754484 0.2846,0.361293 0.3969,0.823925 0.1931,0.795552 -0.1998,1.289259 -0.3876,0.496982 -1.2523,0.70689 z"
             style="font-weight:normal;font-family:sans-serif;-inkscape-font-specification:'sans-serif Bold'"
             id="path27359" />
          <path
             d="m 1230.373,72.922756 -0.3992,-3.639883 q -0.4555,0.04996 -0.781,0.224411 -0.3211,0.173966 -0.5116,0.436559 -0.1871,0.253262 -0.2588,0.578915 -0.071,0.330075 -0.029,0.710428 0.055,0.504188 0.3101,0.990972 0.2597,0.490721 0.478,0.686092 v 0.04423 l -0.9067,0.09943 q -0.2229,-0.400755 -0.3904,-0.825507 -0.1674,-0.424751 -0.2203,-0.906826 -0.1348,-1.229511 0.4529,-1.992208 0.5922,-0.763182 1.8173,-0.897537 1.2118,-0.132901 1.9961,0.44799 0.7848,0.585315 0.9032,1.664454 0.1096,0.99953 -0.415,1.603125 -0.5242,0.608017 -1.5989,0.725881 z m 0.5481,-0.8792 q 0.6541,-0.07621 0.9764,-0.442776 0.3229,-0.362145 0.2501,-1.02555 -0.073,-0.667828 -0.5105,-1.022703 -0.4368,-0.350452 -1.0264,-0.339499 z"
             style="font-weight:normal;font-family:sans-serif;-inkscape-font-specification:'sans-serif Bold'"
             id="path27361" />
        </g>
      </g>
    </g>
  </g>
</svg>
