<?xml version="1.0" encoding="UTF-8" standalone="no"?>
<!-- Created with Inkscape (http://www.inkscape.org/) -->

<svg
   width="93.969193mm"
   height="93.665535mm"
   viewBox="0 0 95.969194 95.665533"
   version="1.1"
   id="svg5"
   sodipodi:docname="project1-contactCardsETC.svg"
   inkscape:version="1.1.2 (b8e25be8, 2022-02-05)"
   xmlns:inkscape="http://www.inkscape.org/namespaces/inkscape"
   xmlns:sodipodi="http://sodipodi.sourceforge.net/DTD/sodipodi-0.dtd"
   xmlns="http://www.w3.org/2000/svg"
   xmlns:svg="http://www.w3.org/2000/svg">
  <sodipodi:namedview
     id="namedview7"
     pagecolor="#ffffff"
     bordercolor="#111111"
     borderopacity="1"
     inkscape:pageshadow="0"
     inkscape:pageopacity="0"
     inkscape:pagecheckerboard="1"
     inkscape:document-units="mm"
     showgrid="false"
     showguides="true"
     inkscape:guide-bbox="true"
     inkscape:zoom="1.1749799"
     inkscape:cx="144.25779"
     inkscape:cy="192.76926"
     inkscape:window-width="1312"
     inkscape:window-height="781"
     inkscape:window-x="0"
     inkscape:window-y="25"
     inkscape:window-maximized="0"
     inkscape:current-layer="layer1">
    <sodipodi:guide
       position="948.23324,15.763533"
       orientation="1,0"
       id="guide6180" />
    <sodipodi:guide
       position="1241.5343,-14.652868"
       orientation="1,0"
       id="guide6182" />
    <inkscape:grid
       type="xygrid"
       id="grid6184"
       originx="3204.9713"
       originy="3398.0774" />
    <sodipodi:guide
       position="-201.48061,-243.80824"
       orientation="1,0"
       id="guide6732" />
    <sodipodi:guide
       position="-158.8156,263.60355"
       orientation="1,0"
       id="guide6734" />
    <sodipodi:guide
       position="48.274895,45.426703"
       orientation="1,0"
       id="guide31360" />
  </sodipodi:namedview>
  <defs
     id="defs2">
    <rect
       x="-2080"
       y="-3860"
       width="433.61374"
       height="134.07614"
       id="rect57365" />
  </defs>
  <g
     inkscape:label="Layer 1"
     inkscape:groupmode="layer"
     id="layer1"
     transform="translate(1702.6687,1102.8262)">
    <text
       xml:space="preserve"
       transform="scale(0.26458333)"
       id="text57363"
       style="font-weight:bold;font-size:37.7953px;line-height:1.25;font-family:'Space Grotesk';-inkscape-font-specification:'Space Grotesk Bold';white-space:pre;shape-inside:url(#rect57365)" />
    <g
       aria-label="                                  ETC. ME                                 ETC. ME"
       id="text26704"
       style="font-weight:bold;font-size:10px;line-height:1.25;font-family:'Space Grotesk';-inkscape-font-specification:'Space Grotesk Bold';stroke-width:0.264583">
      <path
         d="m -1674.1947,-1017.1667 -3.584,6.0129 -3.8655,-2.304 0.6144,-1.0308 2.7316,1.6282 0.8551,-1.4345 -2.4911,-1.4848 0.6144,-1.0308 2.491,1.4848 0.8858,-1.4861 -2.7831,-1.6588 0.6144,-1.0308 z"
         id="path36603" />
      <path
         d="m -1680.1884,-1021.0865 -3.5977,4.5493 1.6001,1.2655 -0.7444,0.9412 -4.2355,-3.3496 0.7443,-0.9413 1.6001,1.2654 3.5978,-4.5493 z"
         id="path36605" />
      <path
         d="m -1685.0097,-1025.6373 q 0.8956,0.9424 0.8972,1.9893 -0.01,1.0538 -0.9842,1.9837 l -1.2178,1.1574 q -0.9786,0.9299 -2.0241,0.875 -1.0527,-0.048 -1.9482,-0.9904 -0.8887,-0.9351 -0.8562,-1.9316 0.018,-0.9969 0.9099,-1.8442 l 0.043,-0.041 0.8955,0.9423 -0.072,0.069 q -0.4495,0.4271 -0.4983,0.9564 -0.056,0.522 0.4334,1.0367 0.4822,0.5074 1.0694,0.5011 0.5873,-0.01 1.1237,-0.516 l 1.2468,-1.1849 q 0.5291,-0.5028 0.5725,-1.0959 0.036,-0.5862 -0.446,-1.0936 -0.4891,-0.5147 -1.0133,-0.4856 -0.5383,0.029 -0.9805,0.449 l -0.1305,0.124 -0.8955,-0.9424 0.1015,-0.096 q 0.8916,-0.8473 1.8953,-0.8218 0.9897,0.025 1.8783,0.9603 z"
         id="path36607" />
      <path
         d="m -1687.9898,-1029.1519 q 0.2489,0.3258 0.2123,0.7061 -0.051,0.3785 -0.3844,0.6334 -0.3338,0.255 -0.7043,0.1983 -0.3845,-0.059 -0.6334,-0.3844 -0.2429,-0.3178 -0.1922,-0.6963 0.043,-0.3724 0.3764,-0.6273 0.3337,-0.255 0.7122,-0.2044 0.3705,0.057 0.6134,0.3746 z"
         id="path36609" />
      <path
         d="m -1690.7967,-1032.8059 -6.8957,1.8465 -0.5538,-1.1206 5.5802,-3.6504 -0.053,-0.1075 -7.4589,-0.1507 -0.5538,-1.1206 6.8957,-1.8465 0.2747,0.5558 -6.5196,1.7498 0.053,0.1076 7.4589,0.1507 0.5051,1.022 -5.5803,3.6504 0.053,0.1076 6.5196,-1.7499 z"
         style="font-style:italic;font-weight:300;-inkscape-font-specification:'Space Grotesk Light'"
         id="path36611" />
      <path
         d="m -1694.3525,-1040.6064 -7.1083,0.6572 -1.2079,-4.0539 0.5901,-0.051 1.0251,3.4405 2.6594,-0.2498 -0.9452,-3.1722 0.5901,-0.051 0.9452,3.1722 2.6786,-0.2555 -1.0366,-3.4789 0.5902,-0.051 z"
         style="font-style:italic;font-weight:300;-inkscape-font-specification:'Space Grotesk Light'"
         id="path36613" />
      <path
         d="m -1645.8344,-1096.0489 1.7514,-6.7773 4.3569,1.1259 -0.3002,1.1618 -3.0789,-0.7956 -0.4178,1.6169 2.8077,0.7256 -0.3002,1.1618 -2.8078,-0.7256 -0.4328,1.675 3.1369,0.8106 -0.3002,1.1619 z"
         id="path36615" />
      <path
         d="m -1638.982,-1093.9674 2.1823,-5.3738 -1.8901,-0.7676 0.4515,-1.1118 5.0032,2.0318 -0.4515,1.1119 -1.8901,-0.7676 -2.1823,5.3737 z"
         id="path36617" />
      <path
         d="m -1633.0829,-1090.942 q -1.1225,-0.6559 -1.4154,-1.661 -0.2879,-1.0137 0.3933,-2.1793 l 0.8476,-1.4505 q 0.6811,-1.1656 1.7005,-1.4038 1.0245,-0.2468 2.1469,0.4091 1.1138,0.6508 1.36,1.617 0.2598,0.9626 -0.3608,2.0246 l -0.03,0.052 -1.1225,-0.6559 0.051,-0.086 q 0.3128,-0.5353 0.2124,-1.0572 -0.092,-0.5169 -0.7047,-0.8751 -0.6044,-0.3532 -1.1667,-0.1837 -0.5623,0.1694 -0.9357,0.8083 l -0.8678,1.4851 q -0.3683,0.6302 -0.2449,1.2119 0.1284,0.5731 0.7328,0.9263 0.613,0.3582 1.1084,0.1844 0.509,-0.1774 0.8168,-0.7041 l 0.091,-0.1554 1.1224,0.6559 -0.071,0.1208 q -0.6206,1.062 -1.5918,1.3168 -0.9576,0.2512 -2.0713,-0.3996 z"
         id="path36619" />
      <path
         d="m -1629.2432,-1088.3944 q -0.3297,-0.2438 -0.4002,-0.6193 -0.057,-0.3777 0.1932,-0.7153 0.2498,-0.3377 0.6215,-0.3862 0.3857,-0.051 0.7153,0.1932 0.3216,0.2379 0.3781,0.6155 0.062,0.3696 -0.1873,0.7073 -0.2497,0.3377 -0.6274,0.3942 -0.3716,0.048 -0.6932,-0.1894 z"
         id="path36621" />
      <path
         d="m -1625.5325,-1085.6637 6.1072,-3.6964 0.8444,0.9217 -4.3408,5.0618 0.081,0.089 7.205,-1.9355 0.8444,0.9217 -6.1071,3.6964 -0.4188,-0.4572 5.7729,-3.4986 -0.081,-0.088 -7.205,1.9354 -0.7701,-0.8405 4.3408,-5.0618 -0.081,-0.089 -5.7729,3.4986 z"
         style="font-style:italic;font-weight:300;-inkscape-font-specification:'Space Grotesk Light'"
         id="path36623" />
      <path
         d="m -1619.9402,-1079.1662 6.6386,-2.6249 2.2966,3.5523 -0.5523,0.2141 -1.9491,-3.0148 -2.4825,0.9858 1.7971,2.7797 -0.5522,0.2141 -1.7971,-2.7796 -2.4994,0.9966 1.9709,3.0484 -0.5523,0.2141 z"
         style="font-style:italic;font-weight:300;-inkscape-font-specification:'Space Grotesk Light'"
         id="path36625" />
    </g>
    <path
       id="circle31358"
       style="fill:none;stroke:#000000;stroke-width:0.000212522"
       transform="scale(-1)"
       d="m 1654.4208,1054.5874 a 0.02516603,0.02516603 0 0 1 -0.025,0.025 0.02516603,0.02516603 0 0 1 -0.025,-0.025 0.02516603,0.02516603 0 0 1 0.025,-0.025 0.02516603,0.02516603 0 0 1 0.025,0.025 z" />
    <path
       style="fill:none;stroke:#000000;stroke-width:0.264583px;stroke-linecap:butt;stroke-linejoin:miter;stroke-opacity:1"
       d="m -1699.1941,-1047.2899 c -6.031,-28.889 22.9363,-57.9791 51.7913,-51.792"
       id="path35060"
       sodipodi:nodetypes="cc" />
    <path
       style="fill:none;stroke:#000000;stroke-width:0.264583px;stroke-linecap:butt;stroke-linejoin:miter;stroke-opacity:1"
       d="m -1613.4,-1074.5368 c 8.5394,17.3215 4.6728,37.4895 -7.9804,50.7303 -12.6532,13.2409 -33.0134,18.9579 -51.6926,10.5978"
       id="path35518"
       sodipodi:nodetypes="csc" />
  </g>
</svg>
